SplineFontDB: 3.2
FontName: SeriousShannsBoldItalic
FullName: Serious Shanns Bold Italic
FamilyName: Serious Shanns Bold Italic
Weight: Bold
Copyright: https://github.com/kaBeech/serious-shanns/blob/main/LICENSE
Version: 6.0.0
ItalicAngle: -12.5
UnderlinePosition: 0
UnderlineWidth: 0
Ascent: 750
Descent: 250
InvalidEm: 0
sfntRevision: 0x00003333
LayerCount: 2
Layer: 0 0 "Back" 1
Layer: 1 0 "Fore" 0
XUID: [1021 45 630387186 10904090]
StyleMap: 0x0040
FSType: 0
OS2Version: 3
OS2_WeightWidthSlopeOnly: 0
OS2_UseTypoMetrics: 0
CreationTime: 1532631502
ModificationTime: 315532800
PfmFamily: 49
TTFWeight: 700
TTFWidth: 5
LineGap: 200
VLineGap: 0
Panose: 0 0 0 0 0 0 0 0 0 0
OS2TypoAscent: 750
OS2TypoAOffset: 0
OS2TypoDescent: -250
OS2TypoDOffset: 0
OS2TypoLinegap: 200
OS2WinAscent: 1000
OS2WinAOffset: 0
OS2WinDescent: 500
OS2WinDOffset: 0
HheadAscent: 750
HheadAOffset: 0
HheadDescent: -250
HheadDOffset: 0
OS2SubXSize: 317
OS2SubYSize: 293
OS2SubXOff: 0
OS2SubYOff: 37
OS2SupXSize: 317
OS2SupYSize: 293
OS2SupXOff: 0
OS2SupYOff: 171
OS2StrikeYSize: 0
OS2StrikeYPos: 132
OS2CapHeight: 650
OS2XHeight: 450
OS2Vendor: 'NONE'
OS2CodePages: 00000001.00000000
OS2UnicodeRanges: 00000001.00000000.00000000.00000000
MarkAttachClasses: 1
DEI: 91125
LangName: 1033 "" "" "Normal" "" "" "Version 0.2.0"
Encoding: UnicodeBmp
Compacted: 1
UnicodeInterp: none
NameList: AGL For New Fonts
DisplaySize: -48
AntiAlias: 1
FitToEm: 0
WinInfo: 0 17 8
BeginPrivate: 9
BlueValues 32 [-40 -6 499 523 706 718 765 769]
OtherBlues 11 [-297 -287]
BlueScale 9 0.0291667
BlueShift 1 0
StdHW 5 [111]
StdVW 5 [118]
StemSnapH 33 [100 106 110 111 114 116 119 179]
StemSnapV 5 [118]
ForceBold 4 true
EndPrivate
BeginChars: 65537 121

StartChar: .notdef
Encoding: 65536 -1 0
Width: 640
GlyphClass: 1
Flags: W
HStem: -280 78<133.818 409.818> 683 78<337.818 613.818>
LayerCount: 2
Fore
SplineSet
42.818359375 -280 m 1
 283.818359375 761 l 1
 703.818359375 761 l 1
 463.818359375 -280 l 1
 42.818359375 -280 l 1
337.818359375 683 m 1
 133.818359375 -202 l 1
 409.818359375 -202 l 1
 613.818359375 683 l 1
 337.818359375 683 l 1
EndSplineSet
Validated: 1
EndChar

StartChar: exclam
Encoding: 33 33 8
Width: 640
GlyphClass: 2
Flags: HMW
HStem: -36.998 179<373.26 449.593 384.26 449.593>
VStem: 325.26 309.998
LayerCount: 2
Fore
SplineSet
555.12890625 738 m 0
 553.795898438 732 544.130859375 694.668945312 526.130859375 626.001953125 c 0
 508.130859375 557.334960938 494.463867188 502.334960938 485.130859375 461.001953125 c 0
 480.463867188 441.668945312 475.963867188 421.501953125 471.630859375 400.501953125 c 0
 467.297851562 379.501953125 463.297851562 361.501953125 459.630859375 346.501953125 c 0
 455.963867188 331.501953125 453.130859375 321.168945312 451.130859375 315.501953125 c 0
 449.130859375 309.834960938 447.297851562 302.66796875 445.630859375 294.000976562 c 0
 443.963867188 285.333984375 442.130859375 277.333984375 440.130859375 270.000976562 c 0
 434.130859375 251.333984375 424.130859375 237.000976562 410.130859375 227.000976562 c 0
 396.797851562 217.66796875 382.797851562 212.66796875 368.130859375 212.000976562 c 2
 365.130859375 212.000976562 l 2
 349.797851562 212.000976562 338.46484375 217.66796875 331.131835938 229.000976562 c 0
 326.686523438 235.66796875 324.46484375 243.96484375 324.46484375 253.891601562 c 0
 324.46484375 258.854492188 325.01953125 264.223632812 326.130859375 270.000976562 c 0
 328.130859375 278.000976562 331.630859375 288.500976562 336.630859375 301.500976562 c 0
 341.630859375 314.500976562 345.130859375 324.000976562 347.130859375 330.000976562 c 0
 349.130859375 336.000976562 351.963867188 346.16796875 355.630859375 360.500976562 c 0
 359.297851562 374.833984375 362.630859375 388.666992188 365.630859375 402 c 0
 368.630859375 415.333007812 372.797851562 435.666015625 378.130859375 462.999023438 c 0
 384.130859375 494.999023438 390.463867188 525.666015625 397.130859375 554.999023438 c 0
 403.797851562 584.33203125 409.297851562 607.33203125 413.630859375 623.999023438 c 0
 417.963867188 640.666015625 423.296875 661.333007812 429.629882812 686 c 0
 435.962890625 710.666992188 440.129882812 727 442.129882812 735 c 0
 447.462890625 756.333007812 456.962890625 772.833007812 470.629882812 784.5 c 0
 484.296875 796.166992188 498.796875 802 514.129882812 802 c 2
 518.129882812 802 l 2
 532.796875 802 543.796875 796.666992188 551.129882812 786 c 0
 555.611328125 779.481445312 557.8515625 770.971679688 557.8515625 760.470703125 c 0
 557.8515625 753.787109375 556.944335938 746.296875 555.12890625 738 c 0
304.130859375 -36.998046875 m 2
 282.130859375 -36.998046875 265.797851562 -28.998046875 255.130859375 -12.998046875 c 0
 246.53515625 -0.3310546875 242.23828125 14.0234375 242.23828125 30.06640625 c 0
 242.23828125 37.666015625 243.202148438 45.64453125 245.130859375 54.001953125 c 0
 250.463867188 78.001953125 264.130859375 98.3349609375 286.130859375 115.001953125 c 0
 310.130859375 133.001953125 333.963867188 142.001953125 357.630859375 142.001953125 c 0
 381.297851562 142.001953125 398.797851562 134.001953125 410.130859375 118.001953125 c 0
 418.130859375 106.890625 422.130859375 93.927734375 422.130859375 79.11328125 c 0
 422.130859375 71.7060546875 421.130859375 63.8349609375 419.130859375 55.501953125 c 0
 413.130859375 30.501953125 400.630859375 9.6689453125 381.630859375 -6.998046875 c 0
 362.630859375 -23.6650390625 340.130859375 -33.6650390625 314.130859375 -36.998046875 c 2
 304.130859375 -36.998046875 l 2
EndSplineSet
Validated: 1
EndChar

StartChar: quotedbl
Encoding: 34 34 9
Width: 640
GlyphClass: 2
Flags: W
LayerCount: 2
Fore
SplineSet
470.477539062 739 m 0
 469.14453125 730.333007812 466.141601562 716.333984375 461.474609375 697.000976562 c 0
 456.807617188 677.66796875 447.807617188 641.66796875 434.474609375 589.000976562 c 0
 420.474609375 533.66796875 409.474609375 495.000976562 401.474609375 473.000976562 c 0
 395.474609375 456.333984375 385.807617188 443.666992188 372.474609375 435 c 0
 360.474609375 427 348.807617188 423 337.474609375 423 c 0
 322.141601562 423 308.80859375 428 297.475585938 438 c 0
 290.942382812 444.533203125 287.67578125 452.700195312 287.67578125 462.5 c 0
 287.67578125 466.700195312 288.275390625 471.200195312 289.475585938 476 c 2
 291.475585938 482 l 2
 298.80859375 508 306.80859375 540 315.475585938 578 c 0
 318.142578125 588.666992188 320.475585938 600 322.475585938 612 c 0
 337.142578125 679.333007812 346.809570312 724.666015625 351.4765625 747.999023438 c 0
 353.4765625 756.666015625 357.143554688 764.333007812 362.4765625 771 c 0
 369.143554688 779 376.810546875 785 385.477539062 789 c 0
 395.9765625 793.083007812 406.221679688 795.125 416.209960938 795.125 c 0
 417.637695312 795.125 419.060546875 795.083007812 420.477539062 795 c 0
 429.810546875 795 437.310546875 794.166992188 442.977539062 792.5 c 0
 448.64453125 790.833007812 454.14453125 788 459.477539062 784 c 0
 464.810546875 780 468.477539062 774 470.477539062 766 c 0
 472.477539062 758 472.477539062 749 470.477539062 739 c 0
619.474609375 738.000976562 m 0
 618.141601562 731.333984375 616.807617188 725.001953125 615.474609375 719.001953125 c 0
 607.474609375 685.001953125 596.807617188 641.668945312 583.474609375 589.001953125 c 0
 569.474609375 533.668945312 558.807617188 495.001953125 551.474609375 473.001953125 c 0
 545.474609375 456.334960938 535.474609375 443.66796875 521.474609375 435.000976562 c 0
 509.474609375 427.000976562 497.474609375 423.000976562 485.474609375 423.000976562 c 0
 470.141601562 423.000976562 457.474609375 428.000976562 447.474609375 438.000976562 c 0
 440.59765625 444.877929688 437.159179688 453.565429688 437.159179688 464.0625 c 0
 437.159179688 467.811523438 437.59765625 471.791015625 438.474609375 476.000976562 c 2
 440.474609375 482.000976562 l 2
 447.141601562 504.66796875 454.141601562 532.000976562 461.474609375 564.000976562 c 0
 476.807617188 631.333984375 489.474609375 691.000976562 499.474609375 743.000976562 c 1
 499.474609375 746.000976562 l 2
 501.474609375 755.333984375 505.641601562 763.833984375 511.974609375 771.500976562 c 0
 518.307617188 779.16796875 525.807617188 785.000976562 534.474609375 789.000976562 c 0
 544.973632812 793.083984375 555.21875 795.125976562 565.20703125 795.125976562 c 0
 566.634765625 795.125976562 568.057617188 795.083984375 569.474609375 795.000976562 c 0
 578.807617188 795.000976562 586.307617188 794.16796875 591.974609375 792.500976562 c 0
 597.641601562 790.833984375 603.141601562 788.333984375 608.474609375 785.000976562 c 0
 614.474609375 781.000976562 618.307617188 774.833984375 619.974609375 766.500976562 c 0
 621.641601562 758.16796875 621.474609375 748.66796875 619.474609375 738.000976562 c 0
EndSplineSet
Validated: 1
EndChar

StartChar: numbersign
Encoding: 35 35 10
Width: 640
GlyphClass: 2
Flags: HMW
HStem: -14 21G<152.256 159.59> 178.501 108.501<333.59 333.59> 433.002 109.002<440.586 479.586 395.586 521.586>
LayerCount: 2
Fore
SplineSet
278.58984375 431 m 1
 261.256835938 430.333007812 251.5859375 430.334960938 249.5859375 431.001953125 c 0
 232.918945312 431.001953125 220.918945312 435.334960938 213.5859375 444.001953125 c 0
 207.938476562 451.060546875 205.115234375 459.448242188 205.115234375 469.165039062 c 0
 205.115234375 473.212890625 205.60546875 477.4921875 206.5859375 482.001953125 c 2
 206.5859375 485.001953125 l 2
 209.918945312 499.001953125 217.751953125 511.334960938 230.084960938 522.001953125 c 0
 242.41796875 532.668945312 257.91796875 538.3359375 276.584960938 539.002929688 c 0
 287.251953125 539.669921875 302.584960938 540.002929688 322.584960938 540.002929688 c 1
 381.584960938 686.002929688 l 2
 392.251953125 706.669921875 404.918945312 721.002929688 419.5859375 729.002929688 c 0
 429.5859375 734.3359375 439.5859375 737.002929688 449.5859375 737.002929688 c 0
 453.5859375 737.002929688 457.918945312 736.3359375 462.5859375 735.002929688 c 0
 477.918945312 731.669921875 488.251953125 723.336914062 493.584960938 710.00390625 c 0
 495.985351562 704.404296875 497.185546875 698.204101562 497.185546875 691.404296875 c 0
 497.185546875 686.87109375 496.651367188 682.0703125 495.584960938 677.00390625 c 0
 494.251953125 671.00390625 491.918945312 665.00390625 488.5859375 659.00390625 c 2
 440.5859375 542.00390625 l 1
 521.5859375 542.00390625 l 1
 576.5859375 678.00390625 l 2
 587.252929688 699.336914062 599.919921875 714.00390625 614.586914062 722.00390625 c 0
 624.586914062 727.336914062 634.586914062 729.669921875 644.586914062 729.002929688 c 0
 649.25390625 729.002929688 653.920898438 728.669921875 658.587890625 728.002929688 c 0
 673.920898438 724.669921875 684.587890625 716.336914062 690.587890625 703.00390625 c 0
 692.98828125 697.803710938 694.188476562 692.00390625 694.188476562 685.603515625 c 0
 694.188476562 681.336914062 693.654296875 676.803710938 692.587890625 672.00390625 c 0
 691.254882812 665.336914062 688.587890625 658.336914062 684.587890625 651.00390625 c 0
 672.587890625 626.336914062 657.254882812 590.336914062 638.587890625 543.00390625 c 1
 655.254882812 542.336914062 667.921875 537.00390625 676.588867188 527.00390625 c 0
 684.921875 517.559570312 689.088867188 507.189453125 689.088867188 495.892578125 c 0
 689.088867188 493.633789062 688.921875 491.336914062 688.588867188 489.00390625 c 0
 685.255859375 473.670898438 677.422851562 460.670898438 665.08984375 450.00390625 c 0
 652.756835938 439.336914062 637.58984375 433.669921875 619.58984375 433.002929688 c 2
 618.58984375 433.002929688 l 1
 594.58984375 433.002929688 l 1
 537.58984375 286.002929688 l 1
 562.58984375 286.002929688 l 2
 580.58984375 286.002929688 592.256835938 281.3359375 597.58984375 272.002929688 c 0
 601.14453125 265.78125 602.922851562 258.522460938 602.922851562 250.2265625 c 0
 602.922851562 246.078125 602.477539062 241.669921875 601.588867188 237.002929688 c 2
 601.588867188 236.002929688 l 2
 598.255859375 220.002929688 591.922851562 207.669921875 582.58984375 199.002929688 c 0
 570.58984375 186.3359375 555.58984375 180.002929688 537.58984375 180.002929688 c 2
 495.58984375 180.002929688 l 1
 467.58984375 109.3359375 447.922851562 60.6689453125 436.58984375 34.001953125 c 0
 425.922851562 16.6689453125 411.922851562 3.3359375 394.58984375 -5.9970703125 c 0
 384.390625 -11.396484375 375.000976562 -14.0966796875 366.421875 -14.0966796875 c 0
 365.467773438 -14.0966796875 364.524414062 -14.0634765625 363.590820312 -13.9970703125 c 0
 358.2578125 -13.9970703125 353.2578125 -13.330078125 348.590820312 -11.9970703125 c 0
 334.590820312 -8.6640625 325.590820312 1.6689453125 321.590820312 19.001953125 c 0
 319.590820312 28.3349609375 319.923828125 37.66796875 322.590820312 47.0009765625 c 0
 324.590820312 55.0009765625 327.590820312 63.333984375 331.590820312 72.0009765625 c 0
 342.923828125 96.0009765625 358.256835938 131.66796875 377.58984375 179.000976562 c 1
 366.256835938 179.000976562 351.58984375 178.833984375 333.58984375 178.500976562 c 0
 315.58984375 178.16796875 300.922851562 178.000976562 289.58984375 178.000976562 c 1
 251.58984375 88.0009765625 231.922851562 41.333984375 230.58984375 38.0009765625 c 0
 221.256835938 21.333984375 207.256835938 7.6669921875 188.58984375 -3 c 0
 175.922851562 -10.3330078125 164.58984375 -14 154.58984375 -14 c 0
 149.922851562 -14 144.922851562 -13.3330078125 139.58984375 -12 c 0
 125.58984375 -8.6669921875 117.256835938 2.3330078125 114.58984375 21 c 0
 113.256835938 30.3330078125 113.58984375 39.5 115.58984375 48.5 c 0
 117.58984375 57.5 120.922851562 66.6669921875 125.58984375 76 c 0
 133.58984375 92 148.922851562 125.666992188 171.58984375 177 c 1
 157.58984375 177 l 2
 139.58984375 177 126.58984375 181 118.58984375 189 c 0
 112.330078125 195.259765625 109.200195312 203.2578125 109.200195312 212.995117188 c 0
 109.200195312 216.739257812 109.663085938 220.741210938 110.588867188 225 c 2
 110.588867188 229 l 2
 113.921875 243 121.421875 255 133.088867188 265 c 0
 144.755859375 275 159.922851562 280.666992188 178.58984375 282 c 0
 183.922851562 282 190.58984375 282.166992188 198.58984375 282.5 c 0
 206.58984375 282.833007812 212.58984375 283 216.58984375 283 c 2
 278.58984375 431 l 1
479.5859375 433.001953125 m 1
 395.5859375 433.001953125 l 1
 334.5859375 287.001953125 l 1
 420.5859375 287.001953125 l 1
 440.5859375 334.334960938 460.252929688 383.001953125 479.5859375 433.001953125 c 1
EndSplineSet
Validated: 1
EndChar

StartChar: dollar
Encoding: 36 36 11
Width: 640
GlyphClass: 2
Flags: HMW
HStem: 623.002 101
VStem: 511.361 117.492
LayerCount: 2
Fore
SplineSet
321.850585938 -130 m 0
 307.517578125 -140 292.026367188 -144.999023438 275.359375 -144.999023438 c 2
 274.359375 -144.999023438 l 2
 257.692382812 -144.999023438 246.359375 -138.999023438 240.359375 -126.999023438 c 0
 237.63671875 -121.943359375 236.275390625 -115.866210938 236.275390625 -108.767578125 c 0
 236.275390625 -103.698242188 236.969726562 -98.1083984375 238.358398438 -91.998046875 c 0
 239.025390625 -88.6650390625 240.525390625 -82.83203125 242.858398438 -74.4990234375 c 0
 245.19140625 -66.166015625 249.024414062 -51.9990234375 254.357421875 -31.9990234375 c 1
 232.357421875 -31.33203125 211.357421875 -27.9990234375 191.357421875 -21.9990234375 c 0
 172.690429688 -16.666015625 156.690429688 -8.666015625 143.357421875 2.0009765625 c 0
 118.024414062 22.0009765625 102.024414062 46.0009765625 95.357421875 74.0009765625 c 0
 93.8330078125 82.3818359375 93.0712890625 90.3271484375 93.0712890625 97.8369140625 c 0
 93.0712890625 103.469726562 93.5 108.857421875 94.357421875 114.000976562 c 0
 95.0244140625 118.000976562 96.357421875 121.66796875 98.357421875 125.000976562 c 0
 105.024414062 139.66796875 116.024414062 150.66796875 131.357421875 158.000976562 c 0
 140.024414062 162.000976562 146.857421875 164.500976562 151.857421875 165.500976562 c 0
 156.857421875 166.500976562 160.857421875 167.000976562 163.857421875 167.000976562 c 2
 172.357421875 167.000976562 l 2
 179.690429688 166.333984375 185.857421875 163.000976562 190.857421875 157.000976562 c 0
 195.857421875 151.000976562 200.357421875 143.333984375 204.357421875 134.000976562 c 0
 212.357421875 115.333984375 223.024414062 100.666992188 236.357421875 90 c 0
 247.690429688 81.3330078125 262.690429688 76.3330078125 281.357421875 75 c 1
 305.357421875 174.333007812 326.690429688 263.666015625 345.357421875 342.999023438 c 1
 343.357421875 342.999023438 339.690429688 343.666015625 334.357421875 344.999023438 c 0
 331.024414062 345.666015625 326.357421875 345.999023438 320.357421875 345.999023438 c 0
 295.024414062 348.666015625 273.357421875 355.333007812 255.357421875 366 c 0
 238.690429688 376.666992188 225.857421875 389.333984375 216.857421875 404.000976562 c 0
 207.857421875 418.66796875 202.024414062 434.500976562 199.357421875 451.500976562 c 0
 198.291015625 458.30078125 197.756835938 465.07421875 197.756835938 471.8203125 c 0
 197.756835938 481.940429688 198.95703125 492.000976562 201.357421875 502.000976562 c 0
 207.357421875 526.66796875 216.524414062 550.334960938 228.857421875 573.001953125 c 0
 241.190429688 595.668945312 257.0234375 616.8359375 276.356445312 636.502929688 c 0
 295.689453125 656.169921875 319.356445312 673.002929688 347.356445312 687.002929688 c 0
 374.0234375 699.669921875 402.356445312 709.002929688 432.356445312 715.002929688 c 1
 435.689453125 728.3359375 439.689453125 744.002929688 444.356445312 762.002929688 c 0
 452.356445312 794.002929688 467.356445312 814.3359375 489.356445312 823.002929688 c 0
 496.689453125 825.669921875 505.356445312 827.002929688 515.356445312 827.002929688 c 0
 536.0234375 827.002929688 549.356445312 820.002929688 555.356445312 806.002929688 c 0
 557.869140625 800.259765625 559.125976562 793.645507812 559.125976562 786.163085938 c 0
 559.125976562 779.748046875 558.203125 772.694335938 556.356445312 765.001953125 c 0
 551.689453125 745.001953125 548.356445312 731.334960938 546.356445312 724.001953125 c 1
 560.356445312 722.668945312 578.689453125 719.001953125 601.356445312 713.001953125 c 0
 623.356445312 707.668945312 640.356445312 702.668945312 652.356445312 698.001953125 c 0
 665.689453125 692.668945312 674.022460938 683.668945312 677.35546875 671.001953125 c 0
 680.022460938 661.668945312 680.35546875 652.001953125 678.35546875 642.001953125 c 0
 677.688476562 638.668945312 676.688476562 635.001953125 675.35546875 631.001953125 c 0
 672.022460938 621.001953125 666.522460938 613.001953125 658.85546875 607.001953125 c 0
 651.188476562 601.001953125 643.021484375 597.334960938 634.354492188 596.001953125 c 0
 630.354492188 595.334960938 626.6875 595.001953125 623.354492188 595.001953125 c 0
 620.021484375 595.001953125 616.354492188 595.168945312 612.354492188 595.501953125 c 0
 608.354492188 595.834960938 603.6875 597.001953125 598.354492188 599.001953125 c 0
 591.6875 600.334960938 584.020507812 603.001953125 575.353515625 607.001953125 c 0
 559.353515625 615.668945312 541.686523438 621.001953125 522.353515625 623.001953125 c 1
 506.353515625 558.334960938 491.020507812 497.001953125 476.353515625 439.001953125 c 1
 503.020507812 434.334960938 527.353515625 427.334960938 549.353515625 418.001953125 c 0
 569.353515625 408.001953125 585.020507812 396.001953125 596.353515625 382.001953125 c 0
 607.686523438 368.001953125 616.01953125 352.168945312 621.352539062 334.501953125 c 0
 626.372070312 317.873046875 628.881835938 301.245117188 628.881835938 284.616210938 c 0
 628.881835938 270.657226562 627.295898438 250.924804688 621.352539062 228.000976562 c 0
 614.01953125 196.66796875 602.01953125 167.000976562 585.352539062 139.000976562 c 0
 568.685546875 111.000976562 549.018554688 86.66796875 526.3515625 66.0009765625 c 0
 503.684570312 45.333984375 478.3515625 27.6669921875 450.3515625 13 c 0
 423.684570312 -0.3330078125 396.017578125 -11 367.350585938 -19 c 1
 359.350585938 -53 354.68359375 -76 353.350585938 -88 c 0
 346.68359375 -106 336.18359375 -120 321.850585938 -130 c 0
353.359375 585.000976562 m 0
 334.692382812 569.66796875 322.692382812 551.666992188 317.359375 531 c 0
 316.359375 526.666992188 315.859375 522.4375 315.859375 518.3125 c 0
 315.859375 505.9375 320.359375 494.5 329.359375 484 c 0
 339.359375 472 353.359375 463 371.359375 457 c 1
 381.359375 498.333007812 394.026367188 551.333007812 409.359375 616 c 1
 388.026367188 608.666992188 369.359375 598.333984375 353.359375 585.000976562 c 0
462.359375 137 m 0
 486.359375 157.666992188 501.360351562 181.33203125 507.360351562 207.999023438 c 0
 510.02734375 219.999023438 511.360351562 230.33203125 511.360351562 238.999023438 c 0
 511.360351562 248.999023438 509.02734375 259.33203125 504.360351562 269.999023438 c 0
 497.02734375 288.666015625 478.02734375 304.333007812 447.360351562 317 c 1
 429.360351562 240.333007812 417.52734375 190.5 411.860351562 167.5 c 0
 406.193359375 144.5 400.026367188 119.666992188 393.359375 93 c 1
 419.359375 105 442.359375 119.666992188 462.359375 137 c 0
EndSplineSet
Validated: 1
EndChar

StartChar: percent
Encoding: 37 37 12
Width: 640
GlyphClass: 2
Flags: HMW
HStem: -40.0059 100.999<419.881 466.881 432.881 466.881> 158.993 98<494.881 495.878> 420 98.9951<260.207 305.88> 607.994 97.0068<315.88 371.542>
VStem: 337.881 97.998<102.993 103.993 103.993 103.993> 354.881 101.995 516.879 96.002
LayerCount: 2
Fore
SplineSet
180.374023438 491.5 m 0xf6
 178.431640625 500.612304688 177.4609375 509.959960938 177.4609375 519.541015625 c 0
 177.4609375 531.338867188 178.932617188 543.4921875 181.875976562 556 c 0
 181.875976562 556.666992188 182.208984375 557.333984375 182.875976562 558.000976562 c 0
 192.875976562 600.000976562 212.708984375 635.000976562 242.375976562 663.000976562 c 0
 272.04296875 691.000976562 308.875976562 705.000976562 352.875976562 705.000976562 c 0
 390.208984375 705.000976562 418.875976562 693.000976562 438.875976562 669.000976562 c 0
 449.54296875 656.333984375 455.54296875 640.000976562 456.875976562 620.000976562 c 0
 457.171875 616.446289062 457.3203125 612.79296875 457.3203125 609.041015625 c 0
 457.3203125 595.904296875 455.504882812 581.557617188 451.875 566.000976562 c 0
 439.875 515.333984375 417.875 477.666992188 385.875 453 c 0
 357.208007812 431 319.541015625 420 272.874023438 420 c 0
 247.541015625 420 226.874023438 426.833007812 210.874023438 440.5 c 0
 194.874023438 454.166992188 184.70703125 471.166992188 180.374023438 491.5 c 0xf6
88.8759765625 -45 m 0
 81.54296875 -41 75.8798828125 -36.0048828125 71.8798828125 -30.0048828125 c 0
 67.212890625 -22.0048828125 66.212890625 -12.5048828125 68.8798828125 -1.5048828125 c 0
 71.546875 9.4951171875 77.546875 21.328125 86.8798828125 33.9951171875 c 0
 106.212890625 61.9951171875 150.545898438 120.328125 219.87890625 208.995117188 c 0
 366.545898438 387.662109375 439.87890625 477.329101562 439.87890625 477.99609375 c 0
 513.211914062 567.99609375 563.544921875 632.663085938 590.877929688 671.99609375 c 0
 604.2109375 685.99609375 619.2109375 694.99609375 635.877929688 698.99609375 c 2
 649.877929688 700.99609375 l 2
 659.877929688 700.99609375 668.544921875 698.329101562 675.877929688 692.99609375 c 0
 687.911132812 686.030273438 693.927734375 676.356445312 693.927734375 663.975585938 c 0
 693.927734375 659.627929688 693.447265625 656.840820312 692.877929688 653.997070312 c 0
 690.2109375 642.6640625 683.543945312 630.331054688 672.876953125 616.998046875 c 0
 640.876953125 577.665039062 559.876953125 477.33203125 429.876953125 315.999023438 c 0
 299.209960938 154.666015625 212.54296875 45.666015625 169.875976562 -11.0009765625 c 0
 149.701171875 -37.6826171875 130.162109375 -51.0234375 111.258789062 -51.0234375 c 0
 110.797851562 -51.0234375 110.336914062 -51.015625 109.875976562 -51 c 0
 102.54296875 -51 95.54296875 -49 88.8759765625 -45 c 0
352.379882812 597.495117188 m 0
 346.712890625 604.495117188 336.546875 607.994140625 321.879882812 607.994140625 c 0
 309.879882812 607.994140625 300.546875 604.327148438 293.879882812 596.994140625 c 0
 285.212890625 588.327148438 278.212890625 576.327148438 272.879882812 560.994140625 c 0
 272.879882812 559.661132812 272.546875 558.328125 271.879882812 556.995117188 c 0
 269.212890625 544.995117188 269.712890625 535.995117188 273.379882812 529.995117188 c 0
 277.046875 523.995117188 287.546875 520.328125 304.879882812 518.995117188 c 2
 305.879882812 518.995117188 l 2
 317.879882812 518.995117188 327.546875 522.328125 334.879882812 528.995117188 c 0
 343.546875 536.995117188 350.213867188 547.662109375 354.880859375 560.995117188 c 0
 354.880859375 561.662109375 355.213867188 562.662109375 355.880859375 563.995117188 c 0
 357.115234375 569.673828125 357.732421875 574.780273438 357.732421875 579.31640625 c 0
 357.732421875 587.02734375 355.948242188 593.087890625 352.379882812 597.495117188 c 0
336.380859375 33.994140625 m 0
 334.108398438 43.69140625 332.971679688 53.6630859375 332.971679688 63.9111328125 c 0
 332.971679688 76.2080078125 334.608398438 88.90234375 337.880859375 101.993164062 c 1
 337.880859375 103.993164062 l 1xfa
 347.880859375 147.993164062 368.880859375 184.493164062 400.880859375 213.493164062 c 0
 432.880859375 242.493164062 471.880859375 256.993164062 517.880859375 256.993164062 c 0
 553.213867188 256.993164062 579.880859375 244.66015625 597.880859375 219.993164062 c 0
 607.213867188 206.66015625 612.213867188 189.327148438 612.880859375 167.994140625 c 0
 612.963867188 165.993164062 613.005859375 163.966796875 613.005859375 161.9140625 c 0
 613.005859375 147.549804688 610.963867188 131.909179688 606.880859375 114.994140625 c 0
 605.547851562 108.327148438 603.880859375 101.66015625 601.880859375 94.9931640625 c 0
 589.880859375 51.66015625 570.380859375 18.3271484375 543.380859375 -5.005859375 c 0
 516.380859375 -28.3388671875 481.213867188 -40.005859375 437.880859375 -40.005859375 c 2
 432.880859375 -40.005859375 l 2
 406.880859375 -40.005859375 385.547851562 -33.005859375 368.880859375 -19.005859375 c 0
 352.213867188 -5.005859375 341.380859375 12.6611328125 336.380859375 33.994140625 c 0
466.880859375 60.9931640625 m 2
 469.877929688 60.9921875 l 2
 481.2109375 60.9921875 490.2109375 64.3251953125 496.877929688 70.9921875 c 0
 505.544921875 79.6591796875 512.211914062 91.326171875 516.87890625 105.993164062 c 1
 516.87890625 108.993164062 l 2
 518.73046875 117.880859375 519.65625 125.53515625 519.65625 131.954101562 c 0
 519.65625 137.090820312 519.063476562 141.4375 517.877929688 144.993164062 c 0
 513.877929688 154.326171875 503.877929688 158.993164062 487.877929688 158.993164062 c 0
 475.877929688 158.993164062 465.877929688 154.66015625 457.877929688 145.993164062 c 0
 448.544921875 135.993164062 441.211914062 122.66015625 435.87890625 105.993164062 c 1
 435.87890625 102.993164062 l 2
 432.545898438 89.66015625 432.712890625 79.4931640625 436.379882812 72.4931640625 c 0
 440.046875 65.4931640625 450.213867188 61.66015625 466.880859375 60.9931640625 c 2
EndSplineSet
Validated: 1
EndChar

StartChar: ampersand
Encoding: 38 38 13
Width: 640
GlyphClass: 2
Flags: HMW
HStem: -53.9971 117.999<233.213 286.88> 633.001 103.001<441.212 485.547>
LayerCount: 2
Fore
SplineSet
558.879882812 11 m 0
 558.212890625 7.6669921875 557.212890625 4.0009765625 555.879882812 0.0009765625 c 0
 548.546875 -23.33203125 537.546875 -38.6650390625 522.879882812 -45.998046875 c 0
 510.212890625 -50.6650390625 502.212890625 -52.998046875 498.879882812 -52.998046875 c 2
 497.879882812 -52.998046875 l 2
 489.879882812 -52.998046875 481.879882812 -50.3310546875 473.879882812 -44.998046875 c 0
 459.879882812 -36.3310546875 449.879882812 -21.3310546875 443.879882812 0.001953125 c 0
 443.212890625 3.3349609375 442.045898438 10.8349609375 440.37890625 22.501953125 c 2
 436.87890625 47.001953125 l 1
 428.87890625 38.3349609375 422.711914062 31.8349609375 418.37890625 27.501953125 c 0
 414.045898438 23.1689453125 407.212890625 16.8359375 397.879882812 8.5029296875 c 0
 388.546875 0.169921875 380.713867188 -6.330078125 374.380859375 -10.9970703125 c 0
 368.047851562 -15.6640625 359.547851562 -21.1640625 348.880859375 -27.4970703125 c 0
 338.213867188 -33.830078125 328.213867188 -38.4970703125 318.880859375 -41.4970703125 c 0
 309.547851562 -44.4970703125 299.047851562 -47.330078125 287.380859375 -49.9970703125 c 0
 275.713867188 -52.6640625 263.880859375 -53.9970703125 251.880859375 -53.9970703125 c 0
 214.547851562 -53.9970703125 183.047851562 -43.830078125 157.380859375 -23.4970703125 c 0
 131.713867188 -3.1640625 114.213867188 23.6689453125 104.880859375 57.001953125 c 0
 100.041992188 74.28515625 97.6220703125 92.28515625 97.6220703125 111.002929688 c 0
 97.6220703125 128.383789062 99.708984375 146.383789062 103.881835938 165.001953125 c 0
 117.21484375 223.001953125 138.881835938 272.668945312 168.881835938 314.001953125 c 0
 203.548828125 362.668945312 248.881835938 400.668945312 304.881835938 428.001953125 c 1
 294.881835938 455.501953125 l 2
 290.881835938 466.501953125 287.881835938 475.001953125 285.881835938 481.001953125 c 0
 283.881835938 487.001953125 281.71484375 494.834960938 279.381835938 504.501953125 c 0
 277.048828125 514.168945312 275.881835938 522.668945312 275.881835938 530.001953125 c 0
 275.881835938 550.001953125 278.21484375 569.668945312 282.881835938 589.001953125 c 0
 285.548828125 601.668945312 290.048828125 614.501953125 296.381835938 627.501953125 c 0
 302.71484375 640.501953125 311.381835938 653.668945312 322.381835938 667.001953125 c 0
 333.381835938 680.334960938 346.048828125 692.001953125 360.381835938 702.001953125 c 0
 374.71484375 712.001953125 391.881835938 720.168945312 411.881835938 726.501953125 c 0
 431.881835938 732.834960938 453.21484375 736.001953125 475.881835938 736.001953125 c 0
 495.21484375 736.001953125 513.381835938 732.668945312 530.381835938 726.001953125 c 0
 547.381835938 719.334960938 562.21484375 709.834960938 574.881835938 697.501953125 c 0
 587.548828125 685.168945312 596.048828125 668.668945312 600.381835938 648.001953125 c 0
 602.19921875 639.334960938 603.107421875 630.2578125 603.107421875 620.770507812 c 0
 603.107421875 607.633789062 601.365234375 593.7109375 597.881835938 579.001953125 c 0
 592.548828125 556.334960938 585.048828125 535.16796875 575.381835938 515.500976562 c 0
 565.71484375 495.833984375 555.21484375 479.333984375 543.881835938 466.000976562 c 0
 532.548828125 452.66796875 519.215820312 440.16796875 503.8828125 428.500976562 c 0
 488.549804688 416.833984375 475.716796875 408.000976562 465.383789062 402.000976562 c 0
 455.05078125 396.000976562 444.883789062 390.66796875 434.883789062 386.000976562 c 1
 441.55078125 366.000976562 451.55078125 340.833984375 464.883789062 310.500976562 c 0
 478.216796875 280.16796875 487.549804688 257.66796875 492.8828125 243.000976562 c 1
 495.549804688 247.000976562 499.549804688 253.16796875 504.8828125 261.500976562 c 0
 510.215820312 269.833984375 515.548828125 278.000976562 520.881835938 286.000976562 c 0
 526.21484375 294.000976562 530.547851562 300.000976562 533.880859375 304.000976562 c 0
 550.547851562 324.000976562 565.880859375 336.333984375 579.880859375 341.000976562 c 0
 585.213867188 343.000976562 590.546875 344.000976562 595.879882812 344.000976562 c 0
 604.546875 344.000976562 612.879882812 341.66796875 620.879882812 337.000976562 c 0
 632.340820312 330.366210938 638.071289062 319.091796875 638.071289062 303.178710938 c 0
 638.071289062 301.50390625 638.0078125 299.778320312 637.880859375 298.000976562 c 0
 637.880859375 294.000976562 637.213867188 290.000976562 635.880859375 286.000976562 c 0
 632.547851562 272.000976562 625.547851562 257.333984375 614.880859375 242.000976562 c 0
 610.213867188 235.333984375 598.213867188 222.166992188 578.880859375 202.5 c 0
 559.547851562 182.833007812 543.547851562 165.333007812 530.880859375 150 c 1
 534.880859375 138 540.047851562 121.166992188 546.380859375 99.5 c 0
 552.713867188 77.8330078125 556.546875 65 557.879882812 61 c 0
 560.392578125 52.384765625 561.649414062 43.576171875 561.649414062 34.57421875 c 0
 561.649414062 26.8583984375 560.7265625 19 558.879882812 11 c 0
389.879882812 572.000976562 m 0
 388.213867188 564.66796875 387.379882812 557.000976562 387.379882812 549.000976562 c 0
 387.379882812 541.001953125 388.213867188 532.668945312 389.879882812 524.001953125 c 0
 393.212890625 506.668945312 397.879882812 491.668945312 403.879882812 479.001953125 c 1
 415.212890625 482.334960938 425.212890625 486.16796875 433.879882812 490.500976562 c 0
 442.546875 494.833984375 451.379882812 500.333984375 460.379882812 507.000976562 c 0
 469.379882812 513.66796875 476.712890625 522.000976562 482.379882812 532.000976562 c 0
 488.046875 542.000976562 492.546875 554.333984375 495.879882812 569.000976562 c 0
 497.473632812 576.057617188 498.270507812 582.551757812 498.270507812 588.481445312 c 0
 498.270507812 599.916992188 495.306640625 609.256835938 489.379882812 616.500976562 c 0
 480.379882812 627.500976562 467.212890625 633.000976562 449.879882812 633.000976562 c 0
 432.546875 633.000976562 418.879882812 627.333984375 408.879882812 616.000976562 c 0
 400.879882812 606.000976562 394.546875 591.333984375 389.879882812 572.000976562 c 0
221.879882812 174.001953125 m 0
 218.947265625 161.203125 217.48046875 149.310546875 217.48046875 138.32421875 c 0
 217.48046875 121.842773438 220.780273438 107.40234375 227.380859375 95.001953125 c 0
 238.380859375 74.3349609375 255.880859375 64.001953125 279.880859375 64.001953125 c 0
 293.880859375 64.001953125 308.880859375 66.6689453125 324.880859375 72.001953125 c 0
 330.213867188 73.3349609375 336.380859375 76.3349609375 343.380859375 81.001953125 c 2
 359.880859375 92.001953125 l 2
 363.880859375 94.6689453125 368.880859375 99.001953125 374.880859375 105.001953125 c 0
 380.880859375 111.001953125 385.213867188 115.168945312 387.880859375 117.501953125 c 0
 390.547851562 119.834960938 393.880859375 123.501953125 397.880859375 128.501953125 c 0
 401.880859375 133.501953125 404.547851562 136.668945312 405.880859375 138.001953125 c 0
 401.880859375 158.001953125 397.880859375 176.001953125 393.880859375 192.001953125 c 0
 389.880859375 207.334960938 381.380859375 230.834960938 368.380859375 262.501953125 c 0
 355.380859375 294.168945312 345.880859375 318.001953125 339.880859375 334.001953125 c 1
 324.547851562 326.668945312 310.547851562 318.001953125 297.880859375 308.001953125 c 0
 283.213867188 296.001953125 271.046875 283.001953125 261.379882812 269.001953125 c 0
 251.712890625 255.001953125 243.712890625 240.334960938 237.379882812 225.001953125 c 0
 231.046875 209.668945312 225.879882812 192.668945312 221.879882812 174.001953125 c 0
EndSplineSet
Validated: 1
EndChar

StartChar: quotesingle
Encoding: 39 39 14
Width: 640
GlyphClass: 2
Flags: W
LayerCount: 2
Fore
SplineSet
542.790039062 728 m 0
 540.790039062 719.333007812 537.790039062 705.833007812 533.790039062 687.5 c 0
 529.790039062 669.166992188 523.123046875 641.333984375 513.790039062 604.000976562 c 0
 499.123046875 546.000976562 487.790039062 506.000976562 479.790039062 484.000976562 c 0
 473.790039062 466.66796875 463.790039062 453.66796875 449.790039062 445.000976562 c 0
 437.790039062 437.66796875 426.123046875 434.000976562 414.790039062 434.000976562 c 0
 398.790039062 434.000976562 385.45703125 439.000976562 374.790039062 449.000976562 c 0
 368.256835938 455.534179688 364.990234375 463.701171875 364.990234375 473.500976562 c 0
 364.990234375 477.701171875 365.58984375 482.201171875 366.790039062 487.000976562 c 0
 366.790039062 489.000976562 367.45703125 491.000976562 368.790039062 493.000976562 c 0
 376.790039062 519.66796875 384.123046875 549.66796875 390.790039062 583.000976562 c 0
 401.45703125 630.333984375 412.124023438 680.000976562 422.791015625 732.000976562 c 1
 422.791015625 735.000976562 l 2
 424.791015625 744.333984375 428.791015625 752.666992188 434.791015625 760 c 0
 441.458007812 768.666992188 449.125 774.666992188 457.791992188 778 c 0
 469.791992188 782.666992188 481.791992188 785 493.791992188 785 c 0
 503.125 785 510.458007812 784 515.791015625 782 c 0
 521.124023438 780 526.45703125 777.333007812 531.790039062 774 c 0
 537.790039062 770 541.623046875 763.833007812 543.290039062 755.5 c 0
 544.95703125 747.166992188 544.790039062 738 542.790039062 728 c 0
EndSplineSet
Validated: 1
EndChar

StartChar: parenleft
Encoding: 40 40 15
Width: 640
GlyphClass: 2
Flags: HMW
HStem: -144 109<360.999 415.662> 721 105<574.666 615.665>
LayerCount: 2
Fore
SplineSet
442.994140625 -93 m 0
 439.661132812 -107.666992188 431.666015625 -119.833007812 418.999023438 -129.5 c 0
 406.33203125 -139.166992188 394.33203125 -144 382.999023438 -144 c 0
 338.999023438 -144 302.999023438 -127 274.999023438 -93 c 0
 246.999023438 -59 228.83203125 -13 220.499023438 45 c 0
 216.844726562 70.4375 215.016601562 97.5419921875 215.016601562 126.314453125 c 0
 215.016601562 163.14453125 218.01171875 202.706054688 224 245 c 0
 226.666992188 265.666992188 231.666992188 291.5 239 322.5 c 0
 246.333007812 354.166992188 257 392.666992188 271 438 c 0
 295.666992188 517.333007812 323 582.333007812 353 633 c 0
 366.333007812 656.333007812 382.666015625 679 401.999023438 701 c 0
 421.33203125 723 441.999023438 743.5 463.999023438 762.5 c 0
 485.999023438 781.5 509.83203125 796.833007812 535.499023438 808.5 c 0
 561.166015625 820.166992188 584.999023438 826 606.999023438 826 c 0
 624.33203125 826 635.999023438 820.333007812 641.999023438 809 c 0
 644.721679688 803.944335938 646.083007812 797.75390625 646.083007812 790.428710938 c 0
 646.083007812 785.197265625 645.388671875 779.387695312 644 773 c 0
 640 755 631.666992188 741.666992188 619 733 c 0
 607.666992188 725 595.166992188 721 581.5 721 c 0
 567.833007812 721 553.666015625 716.5 538.999023438 707.5 c 0
 524.33203125 698.5 510.33203125 685.666992188 496.999023438 669 c 0
 469.666015625 637 445.666015625 597.333007812 424.999023438 550 c 0
 408.999023438 514.666992188 392.666015625 468 375.999023438 410 c 0
 367.33203125 379.333007812 360.165039062 351.833007812 354.498046875 327.5 c 0
 348.831054688 303.166992188 344.6640625 281.666992188 341.997070312 263 c 0
 336.854492188 228.713867188 334.283203125 195.286132812 334.283203125 162.71484375 c 0
 334.283203125 157.286132812 334.354492188 151.880859375 334.497070312 146.5 c 0
 335.497070312 108.833007812 339.6640625 76.8330078125 346.997070312 50.5 c 0
 354.330078125 24.1669921875 363.663085938 3 374.99609375 -13 c 0
 385.663085938 -27 396.663085938 -34.3330078125 407.99609375 -35 c 0
 423.329101562 -35 434.162109375 -39.3330078125 440.495117188 -48 c 0
 444.141601562 -52.990234375 445.963867188 -60.0791015625 445.963867188 -69.2666015625 c 0
 445.963867188 -76.0380859375 444.974609375 -83.94921875 442.994140625 -93 c 0
EndSplineSet
Validated: 1
EndChar

StartChar: parenright
Encoding: 41 41 16
Width: 640
GlyphClass: 2
Flags: HMW
HStem: -144 108.998<202.233 206.9> 721 105<378.567 419.233>
VStem: 463.9 108.999
LayerCount: 2
Fore
SplineSet
184.900390625 -144 m 0
 173.567382812 -144 163.568359375 -139.169921875 154.901367188 -129.502929688 c 0
 148.641601562 -122.520507812 145.51171875 -114.234375 145.51171875 -104.64453125 c 0
 145.51171875 -100.95703125 145.974609375 -97.076171875 146.900390625 -93.001953125 c 0
 151.567382812 -71.6689453125 159.400390625 -56.6689453125 170.400390625 -48.001953125 c 0
 181.400390625 -39.3349609375 194.567382812 -35.001953125 209.900390625 -35.001953125 c 0
 221.233398438 -35.001953125 235.56640625 -27.6689453125 252.899414062 -13.001953125 c 0
 271.56640625 2.998046875 290.56640625 24.1650390625 309.899414062 50.498046875 c 0
 329.232421875 76.8310546875 348.232421875 108.998046875 366.899414062 146.998046875 c 0
 385.56640625 184.998046875 401.233398438 223.665039062 413.900390625 262.998046875 c 0
 419.900390625 282.998046875 425.567382812 304.831054688 430.900390625 328.498046875 c 0
 436.233398438 352.165039062 441.900390625 379.33203125 447.900390625 409.999023438 c 0
 458.567382812 468.666015625 463.900390625 515.333007812 463.900390625 550 c 0
 463.93359375 552.333984375 463.950195312 554.65234375 463.950195312 556.953125 c 0
 463.950195312 600.65234375 457.93359375 638.333984375 445.900390625 670 c 0
 439.900390625 686 431.733398438 698.5 421.400390625 707.5 c 0
 411.067382812 716.5 399.067382812 721 385.400390625 721 c 0
 371.733398438 721 360.900390625 725 352.900390625 733 c 0
 346.970703125 738.9296875 344.005859375 747.043945312 344.005859375 757.342773438 c 0
 344.005859375 762.096679688 344.63671875 767.315429688 345.900390625 773 c 0
 347.900390625 783 351.567382812 792 356.900390625 800 c 0
 362.233398438 808 368.56640625 814 375.899414062 818 c 0
 385.899414062 823.333007812 396.56640625 826 407.899414062 826 c 0
 430.56640625 826 451.899414062 820.166992188 471.899414062 808.5 c 0
 491.899414062 796.833007812 508.56640625 781.5 521.899414062 762.5 c 0
 535.232421875 743.5 546.399414062 723 555.399414062 701 c 0
 564.399414062 679 570.232421875 656.333007812 572.899414062 633 c 0
 574.9765625 615.231445312 576.014648438 595.825195312 576.014648438 574.78125 c 0
 576.014648438 535.030273438 572.309570312 489.436523438 564.899414062 438 c 0
 558.232421875 392 551.232421875 353.5 543.899414062 322.5 c 0
 536.56640625 291.5 529.56640625 265.666992188 522.899414062 245 c 0
 498.899414062 169.666992188 469.232421875 103 433.899414062 45 c 0
 398.56640625 -13 359.233398438 -59 315.900390625 -93 c 0
 272.567382812 -127 228.900390625 -144 184.900390625 -144 c 0
EndSplineSet
Validated: 1
EndChar

StartChar: asterisk
Encoding: 42 42 17
Width: 640
GlyphClass: 2
Flags: HMW
HStem: 281.001 127.999<187.601 223.602> 289 119.001<581.934 611.6> 294 101.001
LayerCount: 2
Fore
SplineSet
259.6015625 102 m 2x20
 250.600585938 102.000976562 l 2
 246.600585938 102.000976562 241.43359375 102.66796875 235.100585938 104.000976562 c 0
 228.767578125 105.333984375 222.934570312 108.166992188 217.6015625 112.5 c 0
 212.268554688 116.833007812 207.935546875 122.833007812 204.602539062 130.5 c 0
 201.26953125 138.166992188 200.26953125 147.333984375 201.602539062 158.000976562 c 0
 201.602539062 160.000976562 201.935546875 162.66796875 202.602539062 166.000976562 c 0
 204.602539062 176.66796875 209.602539062 186.66796875 217.602539062 196.000976562 c 2
 288.602539062 285.000976562 l 1
 247.935546875 282.333984375 217.268554688 281.000976562 196.6015625 281.000976562 c 0
 178.6015625 281.000976562 165.6015625 287.66796875 157.6015625 301.000976562 c 0
 152.83984375 309.572265625 150.458984375 319.1640625 150.458984375 329.775390625 c 0
 150.458984375 334.020507812 150.83984375 338.4296875 151.6015625 343.000976562 c 2
 151.6015625 346.000976562 l 2
 154.268554688 359.333984375 160.935546875 372.666992188 171.602539062 386 c 0
 177.602539062 394 185.602539062 400 195.602539062 404 c 0
 202.935546875 407.333007812 210.935546875 409 219.602539062 409 c 2
 223.602539062 409 l 1
 224.602539062 409 l 2x80
 249.26953125 407 283.26953125 404.333007812 326.602539062 401 c 1
 313.935546875 439.666992188 302.935546875 470 293.602539062 492 c 0
 290.3203125 501.026367188 288.6796875 510.177734375 288.6796875 519.456054688 c 0
 288.6796875 525.254882812 289.3203125 531.102539062 290.602539062 537 c 0
 291.26953125 539.666992188 292.26953125 542.333984375 293.602539062 545.000976562 c 0
 300.26953125 563.66796875 310.602539062 576.66796875 324.602539062 584.000976562 c 0
 333.935546875 589.333984375 343.768554688 592.000976562 354.1015625 592.000976562 c 0
 364.434570312 592.000976562 373.934570312 589.000976562 382.6015625 583.000976562 c 0
 391.934570312 576.333984375 397.934570312 566.333984375 400.6015625 553.000976562 c 0
 403.268554688 539.000976562 410.935546875 507.333984375 423.602539062 458.000976562 c 1
 450.26953125 492.66796875 472.602539062 524.000976562 490.602539062 552.000976562 c 0
 499.26953125 564.66796875 509.26953125 574.16796875 520.602539062 580.500976562 c 0
 531.935546875 586.833984375 542.268554688 590.000976562 551.6015625 590.000976562 c 0
 561.6015625 590.000976562 569.934570312 587.333984375 576.6015625 582.000976562 c 0
 583.268554688 578.000976562 588.1015625 571.333984375 591.1015625 562.000976562 c 0
 592.689453125 557.059570312 593.484375 551.745117188 593.484375 546.055664062 c 0
 593.484375 541 592.856445312 535.647460938 591.6015625 530.000976562 c 0
 588.934570312 516.66796875 582.267578125 504.334960938 571.600585938 493.001953125 c 0
 548.267578125 466.334960938 522.600585938 433.66796875 494.600585938 395.000976562 c 1x20
 537.93359375 395.66796875 569.266601562 399.000976562 588.599609375 405.000976562 c 0
 597.266601562 407.000976562 602.93359375 408.000976562 605.600585938 408.000976562 c 0x40
 617.600585938 408.000976562 626.93359375 403.66796875 633.600585938 395.000976562 c 0x20
 641.100585938 385.500976562 644.850585938 375.4375 644.850585938 364.8125 c 0
 644.850585938 361.270507812 644.43359375 357.666992188 643.600585938 354 c 0
 640.267578125 339.333007812 633.600585938 325.333007812 623.600585938 312 c 0
 617.600585938 304 610.267578125 297.666992188 601.600585938 293 c 0
 595.600585938 290.333007812 589.600585938 289 583.600585938 289 c 0x40
 580.267578125 289 576.934570312 289.333007812 573.6015625 290 c 0
 558.934570312 292.666992188 531.934570312 294 492.6015625 294 c 2
 471.6015625 294 l 1
 502.6015625 196 l 2
 504.453125 187.852539062 505.37890625 180.116210938 505.37890625 172.791992188 c 0
 505.37890625 166.931640625 504.786132812 161.333984375 503.600585938 156 c 0
 502.93359375 153.333007812 501.93359375 150.666015625 500.600585938 147.999023438 c 0
 495.267578125 132.666015625 486.267578125 121.333007812 473.600585938 114 c 0
 462.93359375 108 451.266601562 105 438.599609375 105 c 0
 428.599609375 105 419.266601562 107.333007812 410.599609375 112 c 0
 399.266601562 118 393.266601562 128 392.599609375 142 c 0
 391.266601562 164 385.599609375 194.666992188 375.599609375 234 c 1
 341.599609375 184.666992188 319.599609375 151.666992188 309.599609375 135 c 0
 304.266601562 124.333007812 296.93359375 116.333007812 287.600585938 111 c 0
 278.267578125 105.666992188 268.934570312 102.666992188 259.6015625 102 c 2x20
EndSplineSet
Validated: 1
EndChar

StartChar: plus
Encoding: 43 43 18
Width: 640
GlyphClass: 2
Flags: HMW
HStem: 346 106<533.682 539.682 533.682 533.682>
LayerCount: 2
Fore
SplineSet
443.682617188 348 m 1
 421.685546875 250 l 2
 417.018554688 230.666992188 409.518554688 217 399.185546875 209 c 0
 388.852539062 201 377.01953125 196.333007812 363.686523438 195 c 2
 362.686523438 195 l 2
 348.01953125 195 337.01953125 199 329.686523438 207 c 0
 323.747070312 212.939453125 320.77734375 220.903320312 320.77734375 230.892578125 c 0
 320.77734375 236.599609375 321.747070312 242.96875 323.686523438 249.999023438 c 2
 345.686523438 344.999023438 l 1
 262.686523438 343.999023438 l 2
 244.01953125 343.999023438 231.186523438 349.33203125 224.186523438 359.999023438 c 0
 219.444335938 367.224609375 217.07421875 375.369140625 217.07421875 384.430664062 c 0
 217.07421875 388.745117188 217.611328125 393.268554688 218.686523438 398 c 0
 218.686523438 398.666992188 219.01953125 400 219.686523438 402 c 0
 223.01953125 416 230.352539062 428.333007812 241.685546875 439 c 0
 253.018554688 449.666992188 267.3515625 455 284.684570312 455 c 0
 286.017578125 455 295.850585938 454.833007812 314.18359375 454.5 c 0
 332.516601562 454.166992188 351.349609375 453.666992188 370.682617188 453 c 1
 379.349609375 492.333007812 386.016601562 525.666015625 390.68359375 552.999023438 c 0
 394.68359375 571.666015625 403.68359375 585.333007812 417.68359375 594 c 0
 427.68359375 600.666992188 439.68359375 604 453.68359375 604 c 2
 457.68359375 604 l 2
 471.016601562 604 481.349609375 600.666992188 488.682617188 594 c 0
 494.31640625 588.799804688 497.1328125 581.487304688 497.1328125 572.0625 c 0
 497.1328125 566.987304688 496.31640625 561.299804688 494.682617188 555 c 0
 494.682617188 553 494.349609375 551 493.682617188 549 c 0
 483.682617188 515 475.349609375 482.666992188 468.682617188 452 c 1
 559.682617188 452 l 2
 577.682617188 452 589.349609375 447.333007812 594.682617188 438 c 0
 598.237304688 431.778320312 600.015625 424.51953125 600.015625 416.223632812 c 0
 600.015625 412.075195312 599.5703125 407.666992188 598.681640625 403 c 2
 598.681640625 402 l 2
 597.348632812 394.666992188 595.348632812 388.166992188 592.681640625 382.5 c 0
 590.014648438 376.833007812 586.34765625 371 581.680664062 365 c 0
 576.34765625 357.666992188 569.014648438 352.666992188 559.681640625 350 c 0
 553.681640625 348 547.014648438 346.666992188 539.681640625 346 c 2
 533.681640625 346 l 2
 524.348632812 346.666992188 511.015625 347.166992188 493.682617188 347.5 c 0
 476.349609375 347.833007812 459.682617188 348 443.682617188 348 c 1
EndSplineSet
Validated: 1
EndChar

StartChar: comma
Encoding: 44 44 19
Width: 640
GlyphClass: 2
Flags: HMW
VStem: 171.631 279.998
LayerCount: 2
Fore
SplineSet
242.626953125 -223 m 0
 231.293945312 -227 221.963867188 -228.999023438 214.630859375 -228.999023438 c 0
 207.297851562 -228.999023438 201.297851562 -227.999023438 196.630859375 -225.999023438 c 0
 189.297851562 -223.33203125 183.130859375 -218.165039062 178.130859375 -210.498046875 c 0
 173.130859375 -202.831054688 170.963867188 -193.331054688 171.630859375 -181.998046875 c 0
 171.630859375 -179.998046875 171.963867188 -177.998046875 172.630859375 -175.998046875 c 0
 174.630859375 -165.998046875 180.297851562 -155.998046875 189.630859375 -145.998046875 c 0
 206.297851562 -127.331054688 233.630859375 -84.3310546875 271.630859375 -16.998046875 c 0
 309.630859375 49.6689453125 333.963867188 96.6689453125 344.630859375 124.001953125 c 0
 349.963867188 136.001953125 357.963867188 145.501953125 368.630859375 152.501953125 c 0
 379.297851562 159.501953125 389.630859375 163.001953125 399.630859375 163.001953125 c 0
 400.297851562 163.001953125 401.297851562 163.334960938 402.630859375 164.001953125 c 0
 409.963867188 164.001953125 417.296875 163.001953125 424.629882812 161.001953125 c 0
 435.962890625 157.001953125 444.295898438 149.334960938 449.62890625 138.001953125 c 0
 452.029296875 132.40234375 453.229492188 126.202148438 453.229492188 119.40234375 c 0
 453.229492188 114.869140625 452.6953125 110.068359375 451.62890625 105.001953125 c 0
 450.961914062 100.334960938 449.62890625 96.66796875 447.62890625 94.0009765625 c 0
 433.62890625 61.333984375 408.62890625 10.333984375 372.62890625 -58.9990234375 c 0
 335.961914062 -128.33203125 309.794921875 -171.33203125 294.127929688 -187.999023438 c 0
 278.4609375 -204.666015625 261.293945312 -216.333007812 242.626953125 -223 c 0
EndSplineSet
Validated: 1
EndChar

StartChar: hyphen
Encoding: 45 45 20
Width: 640
GlyphClass: 2
Flags: HMW
HStem: 230.001 111.999<259.695 308.695> 234.501 109
VStem: 228.028 313.001<285 296.001>
LayerCount: 2
Fore
SplineSet
291.028320312 342 m 0xa0
 326.361328125 342 368.529296875 342.500976562 417.529296875 343.500976562 c 0
 466.529296875 344.500976562 494.362304688 345.000976562 501.029296875 345.000976562 c 0
 519.029296875 345.000976562 530.862304688 340.333984375 536.529296875 331.000976562 c 0
 540.3828125 324.654296875 542.309570312 317.229492188 542.309570312 308.724609375 c 0
 542.309570312 304.72265625 541.8828125 300.481445312 541.029296875 296.000976562 c 1
 540.029296875 295.000976562 l 1
 536.696289062 279.000976562 530.696289062 266.66796875 522.029296875 258.000976562 c 0
 510.029296875 245.333984375 495.029296875 239.000976562 477.029296875 239.000976562 c 0
 469.029296875 239.000976562 437.529296875 237.500976562 382.529296875 234.500976562 c 0x60
 327.529296875 231.500976562 289.029296875 230.000976562 267.029296875 230.000976562 c 0
 252.362304688 230.000976562 241.6953125 234.000976562 235.028320312 242.000976562 c 0
 229.098632812 248.38671875 226.133789062 257.11328125 226.133789062 268.1796875 c 0
 226.133789062 273.288085938 226.764648438 278.89453125 228.028320312 285 c 0
 228.028320312 286.333007812 228.361328125 288 229.028320312 290 c 0
 233.028320312 308.666992188 241.6953125 322.666992188 255.028320312 332 c 0
 265.028320312 338.666992188 277.028320312 342 291.028320312 342 c 0xa0
EndSplineSet
Validated: 1
EndChar

StartChar: period
Encoding: 46 46 21
Width: 640
GlyphClass: 2
Flags: HMW
HStem: -26 178.002<295.56 371.893 306.56 371.893>
VStem: 246.56 175.5
LayerCount: 2
Fore
SplineSet
306.559570312 -26 m 2
 284.559570312 -26 267.892578125 -18 256.559570312 -2 c 0
 247.963867188 10.6669921875 243.666992188 24.71484375 243.666992188 40.14453125 c 0
 243.666992188 47.453125 244.630859375 55.072265625 246.559570312 63.0009765625 c 0
 252.559570312 87.66796875 266.559570312 108.334960938 288.559570312 125.001953125 c 0
 312.559570312 143.001953125 336.392578125 152.001953125 360.059570312 152.001953125 c 0
 383.7265625 152.001953125 401.2265625 144.001953125 412.559570312 128.001953125 c 0
 420.7109375 116.680664062 424.786132812 103.514648438 424.786132812 88.5029296875 c 0
 424.786132812 81.4130859375 423.876953125 73.9130859375 422.059570312 66.0009765625 c 0
 416.392578125 41.333984375 403.892578125 20.6669921875 384.559570312 4 c 0
 365.2265625 -12.6669921875 342.559570312 -22.6669921875 316.559570312 -26 c 2
 306.559570312 -26 l 2
EndSplineSet
Validated: 1
EndChar

StartChar: slash
Encoding: 47 47 22
Width: 640
GlyphClass: 2
Flags: HMW
HStem: 746 20G<673.093 683.093>
LayerCount: 2
Fore
SplineSet
131.091796875 -67 m 0
 121.091796875 -71 111.760742188 -73.16796875 103.09375 -73.5009765625 c 0
 94.4267578125 -73.833984375 87.09375 -71.333984375 81.09375 -66.0009765625 c 0
 72.560546875 -59.6015625 68.2939453125 -48.5078125 68.2939453125 -32.7216796875 c 0
 68.2939453125 -28.775390625 68.560546875 -24.53515625 69.09375 -20.0009765625 c 0
 69.09375 -16.66796875 69.7607421875 -13.0009765625 71.09375 -9.0009765625 c 0
 75.09375 8.33203125 83.09375 24.9990234375 95.09375 40.9990234375 c 0
 222.426757812 200.999023438 332.759765625 342.999023438 426.092773438 466.999023438 c 0
 484.092773438 542.999023438 546.759765625 629.666015625 614.092773438 726.999023438 c 0
 622.759765625 739.666015625 633.092773438 749.333007812 645.092773438 756 c 0
 657.092773438 762.666992188 668.092773438 766 678.092773438 766 c 0
 688.092773438 766 697.42578125 763.666992188 706.092773438 759 c 0
 718.759765625 751 725.426757812 739 726.09375 723 c 0
 726.09375 718.333007812 725.426757812 713.333007812 724.09375 708 c 0
 721.426757812 696.666992188 715.759765625 684.333984375 707.092773438 671.000976562 c 0
 683.092773438 636.333984375 618.42578125 552.500976562 513.092773438 419.500976562 c 0
 407.759765625 286.500976562 343.092773438 204.000976562 319.092773438 172.000976562 c 0
 304.42578125 151.333984375 280.258789062 116.333984375 246.591796875 67.0009765625 c 0
 212.924804688 17.66796875 192.091796875 -12.33203125 184.091796875 -22.9990234375 c 0
 168.091796875 -43.666015625 150.424804688 -58.3330078125 131.091796875 -67 c 0
EndSplineSet
Validated: 1
EndChar

StartChar: zero
Encoding: 48 48 23
Width: 640
GlyphClass: 2
Flags: HMW
HStem: -24 107.996<272.542 323.21> 611.997 106.003<444.877 517.544>
LayerCount: 2
Fore
SplineSet
667.2109375 491 m 0
 666.543945312 488.333007812 666.54296875 487.999023438 667.209960938 489.999023438 c 1
 661.209960938 450.666015625 653.54296875 410.666015625 644.209960938 369.999023438 c 0
 634.876953125 329.33203125 624.376953125 289.33203125 612.709960938 249.999023438 c 0
 601.04296875 210.666015625 589.875976562 179.666015625 579.208984375 156.999023438 c 0
 558.541992188 114.33203125 536.541992188 79.6650390625 513.208984375 52.998046875 c 0
 501.875976562 39.6650390625 489.54296875 28.33203125 476.209960938 18.9990234375 c 0
 462.876953125 9.666015625 449.876953125 2.3330078125 437.209960938 -3 c 0
 423.876953125 -8.3330078125 408.876953125 -13 392.209960938 -17 c 0
 375.54296875 -20.3330078125 359.375976562 -22.3330078125 343.708984375 -23 c 0
 328.041992188 -23.6669921875 309.875 -24 289.208007812 -24 c 0
 255.875 -24 226.208007812 -18.3330078125 200.208007812 -7 c 0
 176.208007812 4.3330078125 157.208007812 20.5 143.208007812 41.5 c 0
 129.208007812 62.5 120.708007812 87.6669921875 117.708007812 117 c 0
 116.889648438 125 116.48046875 133.173828125 116.48046875 141.520507812 c 0
 116.48046875 163.779296875 119.389648438 187.272460938 125.208007812 212 c 0
 125.208007812 214 125.541015625 216 126.208007812 218 c 0
 133.541015625 250 140.541015625 280.666992188 147.208007812 310 c 0
 151.875 330.666992188 158.041992188 356 165.708984375 386 c 0
 173.375976562 416 180.54296875 440.833007812 187.209960938 460.5 c 0
 193.876953125 480.166992188 202.209960938 501.333984375 212.209960938 524.000976562 c 0
 222.209960938 547.333984375 232.209960938 567.666992188 242.209960938 585 c 0
 268.209960938 628.333007812 302.876953125 661.333007812 346.209960938 684 c 0
 392.876953125 706.666992188 445.209960938 718 503.209960938 718 c 0
 531.876953125 718 557.876953125 713.333007812 581.209960938 704 c 0
 603.876953125 694.666992188 622.543945312 680.666992188 637.2109375 662 c 0
 651.877929688 643.333007812 661.877929688 619.5 667.2109375 590.5 c 0
 669.876953125 576 671.2109375 560.458007812 671.2109375 543.875 c 0
 671.2109375 527.291015625 669.876953125 509.666015625 667.2109375 491 c 0
512.209960938 599.999023438 m 0
 499.2109375 608.046875 483.912109375 612.068359375 466.315429688 612.068359375 c 0
 464.959960938 612.068359375 463.591796875 612.044921875 462.209960938 611.997070312 c 0
 427.54296875 611.997070312 398.709960938 602.830078125 375.709960938 584.497070312 c 0
 352.709960938 566.1640625 330.876953125 534.997070312 310.209960938 490.997070312 c 0
 302.209960938 473.6640625 294.876953125 455.331054688 288.209960938 435.998046875 c 0
 282.209960938 416.665039062 276.54296875 393.998046875 271.209960938 367.998046875 c 0
 261.876953125 327.998046875 251.876953125 281.665039062 241.209960938 228.998046875 c 1
 347.876953125 339.665039062 447.876953125 453.33203125 541.209960938 569.999023438 c 1
 533.876953125 582.666015625 524.209960938 592.666015625 512.209960938 599.999023438 c 0
552.209960938 457.997070312 m 1
 454.876953125 330.6640625 351.876953125 221.99609375 243.209960938 131.99609375 c 1
 252.54296875 100.663085938 276.209960938 84.6630859375 314.209960938 83.99609375 c 0
 332.209960938 83.99609375 348.04296875 85.49609375 361.709960938 88.49609375 c 0
 375.376953125 91.49609375 388.876953125 96.3291015625 402.209960938 102.99609375 c 0
 428.876953125 116.99609375 452.876953125 143.99609375 474.209960938 183.99609375 c 0
 478.209960938 191.99609375 485.876953125 213.329101562 497.209960938 247.99609375 c 0
 508.54296875 282.663085938 520.209960938 323.330078125 532.209960938 369.997070312 c 0
 540.209960938 400.6640625 546.876953125 429.997070312 552.209960938 457.997070312 c 1
EndSplineSet
Validated: 1
EndChar

StartChar: one
Encoding: 49 49 24
Width: 640
GlyphClass: 2
Flags: HMW
HStem: -9 111 -5 114<111.364 161.363>
LayerCount: 2
Fore
SplineSet
80.033203125 33 m 0x40
 80.033203125 38 81.033203125 43 82.033203125 49 c 0
 82.033203125 50 82.033203125 52 83.033203125 53 c 0
 86.033203125 68 93.033203125 80 102.033203125 91 c 0
 114.033203125 103 129.033203125 109 148.033203125 109 c 0x40
 175.033203125 109 221.033203125 108 286.033203125 107 c 1
 291.033203125 126 294.033203125 143 296.033203125 157 c 0
 297.033203125 163 300.033203125 180 307.033203125 208 c 0
 313.033203125 233 318.033203125 254 323.033203125 271 c 2
 351.033203125 379 l 2
 378.033203125 480 394.033203125 539 399.033203125 556 c 1
 352.033203125 526 318.033203125 507 295.033203125 499 c 0
 287.033203125 497 282.033203125 496 279.033203125 496 c 0
 268.033203125 496 257.033203125 501 248.033203125 511 c 0
 239.033203125 521 234.033203125 532 234.033203125 542 c 0
 234.033203125 545 235.033203125 548 236.033203125 552 c 0
 239.033203125 565 244.033203125 577 252.033203125 587 c 0
 260.033203125 597 271.033203125 607 285.033203125 616 c 0
 306.033203125 630 333.033203125 649 368.033203125 672 c 1
 380.033203125 674 394.033203125 683 409.033203125 699 c 0
 421.033203125 707 434.033203125 714 447.033203125 721 c 0
 459.033203125 727 469.033203125 730 478.033203125 730 c 2
 481.033203125 730 l 2
 498.033203125 730 514.033203125 723 529.033203125 710 c 0
 537.033203125 703 542.033203125 696 545.033203125 690 c 0
 546.033203125 688 547.033203125 686 547.033203125 683 c 0
 547.033203125 672 539.033203125 643 504.033203125 514 c 0
 480.033203125 424 466.033203125 371 462.033203125 356 c 0
 447.033203125 294 436.033203125 242 427.033203125 200 c 2
 427.033203125 200 426.033203125 198 426.033203125 195 c 0
 421.033203125 173 415.033203125 142 407.033203125 103 c 1
 440.033203125 102 461.033203125 102 470.033203125 102 c 2
 505.033203125 102 l 2
 520.033203125 102 529.033203125 101 533.033203125 101 c 0
 554.033203125 101 567.033203125 97 574.033203125 87 c 0
 579.033203125 80 581.033203125 71 581.033203125 62 c 0
 581.033203125 58 581.033203125 54 580.033203125 50 c 0
 580.033203125 49 580.033203125 48 579.033203125 47 c 0
 576.033203125 32 568.033203125 19 557.033203125 8 c 0
 545.033203125 -3 528.033203125 -9 507.033203125 -9 c 0x80
 272.033203125 -7 143.033203125 -6 120.033203125 -5 c 0
 103.033203125 -5 91.033203125 0 85.033203125 11 c 0
 82.033203125 18 80.033203125 25 80.033203125 33 c 0x40
EndSplineSet
Validated: 1
EndChar

StartChar: two
Encoding: 50 50 25
Width: 640
GlyphClass: 2
Flags: HMW
HStem: -20.0059 113.005 -12.0059 113.006<513.61 513.61 513.61 519.604> 506.997 21G<265.269 268.602> 612.996 109.001<472.272 481.604>
LayerCount: 2
Fore
SplineSet
513.610351562 101 m 1x70
 514.603515625 100.993164062 l 1
 523.270507812 109.66015625 529.603515625 109.993164062 533.603515625 101.993164062 c 0
 535.603515625 101.993164062 539.270507812 101.826171875 544.603515625 101.493164062 c 0
 549.936523438 101.16015625 553.936523438 100.16015625 556.603515625 98.4931640625 c 0
 559.270507812 96.826171875 561.9375 94.9931640625 564.604492188 92.9931640625 c 0
 568.604492188 90.326171875 571.271484375 86.326171875 572.604492188 80.9931640625 c 0
 573.9375 72.9931640625 573.604492188 63.66015625 571.604492188 52.9931640625 c 0
 566.9375 33.66015625 558.604492188 17.3271484375 546.604492188 3.994140625 c 0
 536.604492188 -6.6728515625 525.604492188 -12.005859375 513.604492188 -12.005859375 c 0x70
 470.271484375 -12.005859375 399.271484375 -14.005859375 300.604492188 -18.005859375 c 0
 267.271484375 -19.3388671875 233.271484375 -20.005859375 198.604492188 -20.005859375 c 0
 166.604492188 -20.005859375 141.604492188 -18.6728515625 123.604492188 -16.005859375 c 0
 113.604492188 -14.6728515625 105.9375 -10.33984375 100.604492188 -3.0068359375 c 0
 96.6044921875 2.326171875 93.9375 9.326171875 92.6044921875 17.9931640625 c 0
 92.16015625 21.8447265625 91.9375 26.0263671875 91.9375 30.5361328125 c 0
 91.9375 46.322265625 94.66015625 66.140625 100.104492188 89.9931640625 c 0
 107.104492188 120.66015625 120.271484375 151.493164062 139.604492188 182.493164062 c 0
 158.9375 213.493164062 183.604492188 243.66015625 213.604492188 272.993164062 c 0
 243.604492188 302.326171875 277.271484375 325.993164062 314.604492188 343.993164062 c 0
 395.9375 382.66015625 448.604492188 409.327148438 472.604492188 423.994140625 c 0
 502.604492188 442.661132812 523.271484375 462.328125 534.604492188 482.995117188 c 0
 541.271484375 495.662109375 546.604492188 511.329101562 550.604492188 529.99609375 c 0
 552.754882812 539.458007812 553.830078125 548.053710938 553.830078125 555.78125 c 0
 553.830078125 572.010742188 549.087890625 584.415039062 539.604492188 592.99609375 c 0
 524.9375 606.329101562 499.604492188 612.99609375 463.604492188 612.99609375 c 0
 439.604492188 612.99609375 414.771484375 605.663085938 389.104492188 590.99609375 c 0
 363.4375 576.329101562 342.270507812 559.99609375 325.603515625 541.99609375 c 0
 316.936523438 532.663085938 308.76953125 524.830078125 301.102539062 518.497070312 c 0
 293.435546875 512.1640625 285.602539062 508.6640625 277.602539062 507.997070312 c 0
 275.602539062 507.997070312 272.602539062 507.6640625 268.602539062 506.997070312 c 0
 261.935546875 506.997070312 252.935546875 510.330078125 241.602539062 516.997070312 c 0
 229.602539062 524.997070312 223.26953125 536.330078125 222.602539062 550.997070312 c 0
 222.602539062 554.330078125 222.935546875 557.997070312 223.602539062 561.997070312 c 0
 226.26953125 573.997070312 232.936523438 587.6640625 243.603515625 602.997070312 c 0
 253.603515625 616.997070312 266.603515625 630.830078125 282.603515625 644.497070312 c 0
 298.603515625 658.1640625 316.603515625 670.997070312 336.603515625 682.997070312 c 0
 357.270507812 694.997070312 380.9375 704.497070312 407.604492188 711.497070312 c 0
 434.271484375 718.497070312 459.938476562 721.997070312 484.60546875 721.997070312 c 0
 561.272460938 721.997070312 614.60546875 704.997070312 644.60546875 670.997070312 c 0
 663.5859375 648.997070312 673.076171875 619.87890625 673.076171875 583.643554688 c 0
 673.076171875 563.87890625 670.252929688 541.997070312 664.60546875 517.997070312 c 0
 651.272460938 462.6640625 626.939453125 417.331054688 591.606445312 381.998046875 c 0
 565.606445312 357.331054688 522.2734375 330.331054688 461.606445312 300.998046875 c 0
 446.2734375 293.665039062 419.940429688 281.665039062 382.607421875 264.998046875 c 0
 351.274414062 250.998046875 323.94140625 233.831054688 300.608398438 213.498046875 c 0
 277.275390625 193.165039062 258.942382812 172.33203125 245.609375 150.999023438 c 0
 234.276367188 132.999023438 225.276367188 113.666015625 218.609375 92.9990234375 c 1xb0
 254.609375 91.666015625 288.942382812 90.8330078125 321.609375 90.5 c 0
 328.138671875 90.43359375 334.388671875 90.400390625 340.359375 90.400390625 c 0
 364.2578125 90.400390625 383.674804688 90.93359375 398.610351562 92 c 0
 416.610351562 93.3330078125 454.943359375 96.3330078125 513.610351562 101 c 1x70
EndSplineSet
Validated: 1
EndChar

StartChar: three
Encoding: 51 51 26
Width: 640
GlyphClass: 2
Flags: HMW
HStem: -23.998 107.998<287.704 348.04> 306 125<335.373 341.039> 521.001 21G<270.707 277.374> 613 109.001<434.375 502.374>
VStem: 538.374 115<522.002 538.333>
LayerCount: 2
Fore
SplineSet
607.373046875 279.5 m 0
 607.833984375 274.501953125 608.065429688 269.318359375 608.065429688 263.948242188 c 0
 608.065429688 246.037109375 605.499023438 226.055664062 600.370117188 204.000976562 c 0
 584.370117188 134.000976562 550.703125 78.333984375 499.370117188 37.0009765625 c 0
 448.196289062 -3.67578125 383.140625 -24.013671875 304.202148438 -24.013671875 c 0
 302.928710938 -24.013671875 301.651367188 -24.0087890625 300.370117188 -23.998046875 c 0
 275.037109375 -23.998046875 250.704101562 -20.3310546875 227.37109375 -12.998046875 c 0
 204.038085938 -5.6650390625 185.205078125 3.66796875 170.872070312 15.0009765625 c 0
 156.5390625 26.333984375 144.706054688 39.0009765625 135.373046875 53.0009765625 c 0
 125.373046875 67.0009765625 118.706054688 80.833984375 115.373046875 94.5009765625 c 0
 113.521484375 102.092773438 112.595703125 109.427734375 112.595703125 116.504882812 c 0
 112.595703125 122.16796875 113.188476562 127.666992188 114.374023438 133.000976562 c 0
 115.041015625 137.000976562 116.374023438 141.000976562 118.374023438 145.000976562 c 0
 125.041015625 161.000976562 136.041015625 172.66796875 151.374023438 180.000976562 c 0
 162.70703125 185.333984375 172.70703125 188 181.374023438 188 c 0
 200.041015625 188 214.374023438 177.333984375 224.374023438 156.000976562 c 0
 233.70703125 137.333984375 247.540039062 120.666992188 265.873046875 106 c 0
 284.206054688 91.3330078125 305.373046875 84 329.373046875 84 c 0
 366.706054688 84 399.5390625 93.8330078125 427.872070312 113.5 c 0
 456.205078125 133.166992188 474.038085938 158 481.37109375 188 c 0
 484.09375 199.278320312 485.455078125 209.592773438 485.455078125 218.942382812 c 0
 485.455078125 225.620117188 484.760742188 231.805664062 483.372070312 237.5 c 0
 480.0390625 251.166992188 472.872070312 263.166992188 461.872070312 273.5 c 0
 450.872070312 283.833007812 433.872070312 291.833007812 410.872070312 297.5 c 0
 387.872070312 303.166992188 358.705078125 306 323.372070312 306 c 0
 306.0390625 306 292.706054688 312.666992188 283.373046875 326 c 0
 276.83984375 335.333007812 273.573242188 345.483398438 273.573242188 356.450195312 c 0
 273.573242188 361.150390625 274.172851562 366 275.373046875 371 c 0
 279.373046875 387.666992188 287.040039062 401.666992188 298.373046875 413 c 0
 311.040039062 425 326.373046875 431 344.373046875 431 c 0
 399.040039062 431 443.70703125 440.666992188 478.374023438 460 c 0
 510.374023438 478 530.374023438 504 538.374023438 538 c 0
 538.374023438 538.609375 538.651367188 539.495117188 539.208007812 540.66015625 c 0
 539.2578125 541.064453125 539.3125 541.510742188 539.374023438 541.999023438 c 0
 539.374023438 543.33203125 539.70703125 544.33203125 540.374023438 544.999023438 c 0
 541.75 550.848632812 542.438476562 556.297851562 542.438476562 561.348632812 c 0
 542.438476562 575.868164062 536.75 587.0859375 525.374023438 595 c 0
 508.908203125 607.033203125 482.514648438 613.049804688 446.1953125 613.049804688 c 0
 444.282226562 613.049804688 442.342773438 613.033203125 440.375 613 c 0
 428.375 613 415.375 611 401.375 607 c 0
 397.375 605.666992188 392.375 603.166992188 386.375 599.5 c 0
 380.375 595.833007812 375.708007812 592.833007812 372.375 590.5 c 0
 369.041992188 588.166992188 364.375 584.333984375 358.375 579.000976562 c 0
 352.375 573.66796875 348.375 569.66796875 346.375 567.000976562 c 0
 339.708007812 553.66796875 335.041015625 549.000976562 332.374023438 553.000976562 c 1
 316.374023438 536.333984375 301.374023438 526.000976562 287.374023438 522.000976562 c 0
 283.374023438 521.333984375 279.373046875 521.000976562 275.373046875 521.000976562 c 0
 266.040039062 521.000976562 256.708007812 523.66796875 247.375 529.000976562 c 0
 236.575195312 535.600585938 231.174804688 545.7109375 231.174804688 559.33203125 c 0
 231.174804688 559.499023438 231.229492188 569.130859375 232.375 576.000976562 c 0
 235.041992188 588.000976562 241.375 601.000976562 251.375 615.000976562 c 0
 271.375 643.000976562 297.041992188 667.333984375 328.375 688.000976562 c 0
 345.041992188 698.66796875 365.041992188 707.000976562 388.375 713.000976562 c 0
 411.708007812 719.000976562 436.041015625 722.000976562 461.374023438 722.000976562 c 0
 543.374023438 722.000976562 600.041015625 705.66796875 631.374023438 673.000976562 c 0
 651.828125 650.728515625 662.055664062 621.482421875 662.055664062 585.262695312 c 0
 662.055664062 568.360351562 659.828125 549.939453125 655.374023438 530 c 0
 655.374023438 528.666992188 655.041015625 527.333984375 654.374023438 526.000976562 c 0
 653.70703125 524.66796875 653.374023438 523.333984375 653.374023438 522.000976562 c 0
 649.374023438 503.333984375 642.874023438 486.001953125 633.874023438 470.001953125 c 0
 624.874023438 454.001953125 614.541015625 440.334960938 602.874023438 429.001953125 c 0
 591.20703125 417.668945312 578.20703125 407.668945312 563.874023438 399.001953125 c 0
 549.541015625 390.334960938 535.041015625 383.66796875 520.374023438 379.000976562 c 1
 529.70703125 375.66796875 538.040039062 372.334960938 545.373046875 369.001953125 c 0
 562.040039062 360.334960938 576.040039062 348.66796875 587.373046875 334.000976562 c 0
 598.706054688 319.333984375 605.373046875 301.166992188 607.373046875 279.5 c 0
EndSplineSet
Validated: 1
EndChar

StartChar: four
Encoding: 52 52 27
Width: 640
GlyphClass: 2
Flags: HMW
HStem: -23.001 21G<431.192 445.859> 218.998 90.002<392.858 393.859 393.859 435.859>
LayerCount: 2
Fore
SplineSet
392.858398438 309 m 2
 455.857421875 309 l 1
 482.524414062 424.333007812 502.19140625 517.666015625 514.858398438 588.999023438 c 1
 399.525390625 469.666015625 316.858398438 375.333007812 266.858398438 306 c 1
 301.525390625 308 343.525390625 309 392.858398438 309 c 2
497.857421875 60 m 0
 497.857421875 52 496.859375 44.33203125 494.859375 36.9990234375 c 0
 492.192382812 23.666015625 487.192382812 11.9990234375 479.859375 1.9990234375 c 0
 467.859375 -14.66796875 453.859375 -23.0009765625 437.859375 -23.0009765625 c 0
 424.526367188 -23.0009765625 412.859375 -17.833984375 402.859375 -7.5009765625 c 0
 394.526367188 1.109375 390.359375 10.068359375 390.359375 19.373046875 c 0
 390.359375 21.234375 390.526367188 23.109375 390.859375 24.998046875 c 0
 392.192382812 32.998046875 394.859375 45.6650390625 398.859375 62.998046875 c 2
 416.859375 138.998046875 l 2
 423.526367188 166.331054688 429.859375 192.998046875 435.859375 218.998046875 c 1
 393.859375 218.998046875 l 2
 301.859375 218.998046875 235.859375 214.665039062 195.859375 205.998046875 c 0
 191.192382812 205.331054688 186.359375 204.998046875 181.359375 204.998046875 c 0
 176.359375 204.998046875 171.859375 205.998046875 167.859375 207.998046875 c 0
 159.859375 211.331054688 154.026367188 216.331054688 150.359375 222.998046875 c 0
 146.692382812 229.665039062 144.525390625 237.498046875 143.858398438 246.498046875 c 0
 143.19140625 255.498046875 143.858398438 264.665039062 145.858398438 273.998046875 c 0
 148.525390625 284.665039062 152.525390625 294.665039062 157.858398438 303.998046875 c 0
 168.525390625 323.331054688 192.358398438 353.831054688 229.358398438 395.498046875 c 0
 266.358398438 437.165039062 314.19140625 488.998046875 372.858398438 550.998046875 c 0
 424.858398438 605.665039062 466.858398438 650.665039062 498.858398438 685.998046875 c 0
 510.858398438 698.665039062 523.19140625 708.33203125 535.858398438 714.999023438 c 0
 548.525390625 721.666015625 559.858398438 724.999023438 569.858398438 724.999023438 c 0
 573.19140625 724.999023438 575.524414062 725.33203125 576.857421875 725.999023438 c 0
 588.190429688 725.999023438 597.857421875 723.33203125 605.857421875 717.999023438 c 0
 615.232421875 711.749023438 619.919921875 701.397460938 619.919921875 686.9453125 c 0
 619.919921875 682.481445312 618.947265625 654.850585938 604.357421875 576.5 c 0
 595.357421875 528.166992188 587.190429688 487.666992188 579.857421875 455 c 0
 569.190429688 405.666992188 558.857421875 356.666992188 548.857421875 308 c 1
 558.190429688 308 568.5234375 307.666992188 579.856445312 307 c 0
 595.856445312 307 606.189453125 303.166992188 610.856445312 295.5 c 0
 615.5234375 287.833007812 616.5234375 278 613.856445312 266 c 0
 610.5234375 252 605.190429688 240.666992188 597.857421875 232 c 0
 587.857421875 222 574.857421875 217 558.857421875 217 c 0
 548.190429688 217 538.190429688 217.333007812 528.857421875 218 c 1
 508.190429688 126 497.857421875 73.3330078125 497.857421875 60 c 0
EndSplineSet
Validated: 1
EndChar

StartChar: five
Encoding: 53 53 28
Width: 640
GlyphClass: 2
Flags: HMW
HStem: -18.002 109.001<289.247 317.248> 407.998 112.999<430.248 506.247> 594.998 112.999<639.579 679.242> 605.998 103.999
LayerCount: 2
Fore
SplineSet
217.248046875 561 m 0xd0
 223.248046875 581.666992188 227.576171875 596.997070312 230.243164062 606.997070312 c 1
 228.243164062 612.997070312 227.243164062 619.497070312 227.243164062 626.497070312 c 0
 227.243164062 633.497070312 228.243164062 640.997070312 230.243164062 648.997070312 c 0
 234.91015625 670.330078125 244.91015625 686.997070312 260.243164062 698.997070312 c 0
 270.91015625 707.6640625 282.243164062 711.997070312 294.243164062 711.997070312 c 0
 317.576171875 711.997070312 374.909179688 711.330078125 466.2421875 709.997070312 c 0xd0
 559.575195312 708.6640625 628.575195312 707.997070312 673.2421875 707.997070312 c 0
 685.2421875 707.997070312 693.575195312 702.6640625 698.2421875 691.997070312 c 0
 701.6171875 684.497070312 703.3046875 676.047851562 703.3046875 666.649414062 c 0
 703.3046875 659.33984375 702.284179688 651.456054688 700.2421875 642.998046875 c 0
 695.575195312 623.665039062 687.2421875 610.665039062 675.2421875 603.998046875 c 0
 671.909179688 601.998046875 668.576171875 600.165039062 665.243164062 598.498046875 c 0
 661.91015625 596.831054688 657.577148438 595.831054688 652.244140625 595.498046875 c 0
 646.911132812 595.165039062 643.078125 594.998046875 640.745117188 594.998046875 c 0xe0
 638.412109375 594.998046875 635.079101562 595.165039062 630.74609375 595.498046875 c 0
 626.413085938 595.831054688 623.580078125 595.998046875 622.247070312 595.998046875 c 0
 613.580078125 595.998046875 597.580078125 597.331054688 574.247070312 599.998046875 c 0
 550.247070312 601.998046875 528.9140625 603.498046875 510.247070312 604.498046875 c 0
 491.580078125 605.498046875 466.247070312 605.998046875 434.247070312 605.998046875 c 0
 402.247070312 605.998046875 369.9140625 604.998046875 337.247070312 602.998046875 c 1
 323.247070312 552.998046875 314.9140625 522.998046875 312.247070312 512.998046875 c 0
 309.580078125 500.998046875 307.580078125 492.331054688 306.247070312 486.998046875 c 0
 304.9140625 481.665039062 303.247070312 474.665039062 301.247070312 465.998046875 c 1
 321.247070312 479.331054688 344.247070312 490.6640625 370.247070312 499.997070312 c 0
 407.580078125 513.997070312 447.580078125 520.997070312 490.247070312 520.997070312 c 0
 522.247070312 520.997070312 549.580078125 515.330078125 572.247070312 503.997070312 c 0
 592.9140625 491.997070312 608.747070312 475.997070312 619.747070312 455.997070312 c 0
 630.747070312 435.997070312 637.247070312 412.830078125 639.247070312 386.497070312 c 0
 639.67578125 380.854492188 639.889648438 375.112304688 639.889648438 369.271484375 c 0
 639.889648438 347.850585938 637.008789062 325.092773438 631.247070312 300.997070312 c 0
 619.9140625 251.6640625 603.581054688 206.831054688 582.248046875 166.498046875 c 0
 560.915039062 126.165039062 536.248046875 92.498046875 508.248046875 65.498046875 c 0
 480.248046875 38.498046875 448.248046875 17.6650390625 412.248046875 2.998046875 c 0
 375.581054688 -11.001953125 337.248046875 -18.001953125 297.248046875 -18.001953125 c 0
 266.581054688 -18.001953125 238.9140625 -14.6689453125 214.247070312 -8.001953125 c 0
 189.580078125 -1.3349609375 170.247070312 7.33203125 156.247070312 17.9990234375 c 0
 142.247070312 28.666015625 131.247070312 40.3330078125 123.247070312 53 c 0
 115.247070312 65.6669921875 109.247070312 79 105.247070312 93 c 0
 103.9140625 100.666015625 103.247070312 107.916015625 103.247070312 114.75 c 0
 103.247070312 121.583007812 103.9140625 128 105.247070312 134 c 0
 105.9140625 138 106.9140625 142 108.247070312 146 c 0
 114.9140625 160.666992188 126.247070312 172 142.247070312 180 c 0
 150.9140625 183.333007812 157.747070312 185.666015625 162.747070312 186.999023438 c 0
 167.747070312 188.33203125 171.747070312 188.999023438 174.747070312 188.999023438 c 0
 177.747070312 188.999023438 180.580078125 188.666015625 183.247070312 187.999023438 c 0
 191.247070312 187.33203125 197.580078125 183.665039062 202.247070312 176.998046875 c 0
 206.247070312 171.665039062 210.580078125 164.33203125 215.247070312 154.999023438 c 0
 233.247070312 112.33203125 265.747070312 90.9990234375 312.747070312 90.9990234375 c 0
 359.747070312 90.9990234375 400.9140625 108.33203125 436.247070312 142.999023438 c 0
 472.9140625 178.999023438 498.581054688 227.666015625 513.248046875 288.999023438 c 0
 516.768554688 304.166015625 518.529296875 318.01171875 518.529296875 330.538085938 c 0
 518.529296875 348.844726562 514.768554688 364.33203125 507.248046875 376.998046875 c 0
 495.248046875 397.665039062 472.248046875 407.998046875 438.248046875 407.998046875 c 0
 422.248046875 407.998046875 404.915039062 405.998046875 386.248046875 401.998046875 c 0
 376.915039062 399.998046875 363.58203125 395.331054688 346.249023438 387.998046875 c 0
 342.249023438 386.665039062 336.749023438 383.498046875 329.749023438 378.498046875 c 0
 322.749023438 373.498046875 317.916015625 369.998046875 315.249023438 367.998046875 c 0
 302.58203125 358.665039062 292.249023438 350.665039062 284.249023438 343.998046875 c 0
 266.916015625 331.331054688 248.916015625 323.998046875 230.249023438 321.998046875 c 2
 223.249023438 321.998046875 l 2
 214.58203125 321.998046875 206.249023438 323.998046875 198.249023438 327.998046875 c 0
 186.249023438 333.998046875 179.58203125 346.665039062 178.249023438 365.998046875 c 0
 177.916015625 370.165039062 177.749023438 374.581054688 177.749023438 379.248046875 c 0
 177.749023438 393.248046875 179.249023438 409.498046875 182.249023438 427.999023438 c 0
 184.249023438 438.666015625 186.58203125 449.333007812 189.249023438 460 c 0
 194.58203125 483.333007812 203.915039062 517 217.248046875 561 c 0xd0
EndSplineSet
Validated: 1
EndChar

StartChar: six
Encoding: 54 54 29
Width: 640
GlyphClass: 2
Flags: HMW
HStem: -22.0029 108<290.297 337.964> 379.997 114.001<403.963 489.297>
LayerCount: 2
Fore
SplineSet
632.963867188 361 m 0
 633.31640625 355.471679688 633.493164062 349.787109375 633.493164062 343.948242188 c 0
 633.493164062 316.689453125 629.649414062 286.038085938 621.962890625 251.998046875 c 0
 613.295898438 213.998046875 598.962890625 178.331054688 578.962890625 144.998046875 c 0
 538.962890625 76.3310546875 485.629882812 27.6640625 418.962890625 -1.0029296875 c 0
 383.629882812 -15.0029296875 347.962890625 -22.0029296875 311.962890625 -22.0029296875 c 0
 268.629882812 -22.0029296875 232.296875 -14.0029296875 202.963867188 1.9970703125 c 0
 174.963867188 17.9970703125 154.963867188 41.1640625 142.963867188 71.4970703125 c 0
 131.288085938 101.010742188 125.450195312 134.943359375 125.450195312 173.293945312 c 0
 125.450195312 204.677734375 128.879882812 248.9375 141.963867188 306.997070312 c 0
 155.963867188 366.997070312 173.630859375 420.497070312 194.963867188 467.497070312 c 0
 216.296875 514.497070312 239.963867188 553.830078125 265.963867188 585.497070312 c 0
 291.963867188 617.1640625 321.296875 643.997070312 353.963867188 665.997070312 c 0
 388.630859375 687.997070312 424.130859375 704.497070312 460.463867188 715.497070312 c 0
 496.796875 726.497070312 535.963867188 733.6640625 577.963867188 736.997070312 c 2
 587.963867188 736.997070312 l 2
 601.963867188 736.997070312 613.630859375 734.330078125 622.963867188 728.997070312 c 0
 634.424804688 722.362304688 640.155273438 712.1796875 640.155273438 698.44921875 c 0
 640.155273438 695.75390625 640.155273438 692.376953125 638.96484375 689.998046875 c 0
 636.96484375 679.998046875 629.96484375 669.665039062 617.96484375 658.998046875 c 0
 605.297851562 648.331054688 592.297851562 641.331054688 578.96484375 637.998046875 c 0
 570.96484375 635.998046875 558.797851562 633.331054688 542.46484375 629.998046875 c 0
 526.131835938 626.665039062 512.46484375 623.665039062 501.46484375 620.998046875 c 0
 490.46484375 618.331054688 477.297851562 614.331054688 461.96484375 608.998046875 c 0
 432.631835938 598.331054688 400.631835938 577.998046875 365.96484375 547.998046875 c 0
 348.631835938 531.998046875 330.298828125 510.331054688 310.965820312 482.998046875 c 0
 302.298828125 468.998046875 294.631835938 455.998046875 287.96484375 443.998046875 c 1
 307.297851562 456.665039062 328.630859375 466.665039062 351.963867188 473.998046875 c 0
 389.963867188 487.331054688 430.296875 493.998046875 472.963867188 493.998046875 c 0
 505.630859375 493.998046875 533.963867188 489.331054688 557.963867188 479.998046875 c 0
 579.963867188 470.665039062 597.463867188 456.33203125 610.463867188 436.999023438 c 0
 623.463867188 417.666015625 630.963867188 392.333007812 632.963867188 361 c 0
292.962890625 94.9970703125 m 0
 305.629882812 88.9970703125 319.963867188 85.9970703125 335.963867188 85.9970703125 c 2
 337.963867188 85.9970703125 l 1
 338.963867188 85.9970703125 l 2
 360.963867188 85.9970703125 383.963867188 93.6640625 407.963867188 108.997070312 c 0
 431.963867188 124.330078125 452.796875 143.997070312 470.463867188 167.997070312 c 0
 488.130859375 191.997070312 499.630859375 215.997070312 504.963867188 239.997070312 c 0
 510.889648438 265.181640625 513.852539062 286.6796875 513.852539062 304.490234375 c 0
 513.852539062 326.75390625 509.22265625 343.255859375 499.962890625 353.997070312 c 0
 491.962890625 363.997070312 481.795898438 370.830078125 469.462890625 374.497070312 c 0
 457.129882812 378.1640625 440.629882812 379.997070312 419.962890625 379.997070312 c 0
 387.962890625 379.997070312 356.629882812 372.330078125 325.962890625 356.997070312 c 0
 295.295898438 341.6640625 268.962890625 322.6640625 246.962890625 299.997070312 c 1
 240.962890625 274.6640625 236.629882812 253.6640625 233.962890625 236.997070312 c 0
 232.762695312 228.59765625 232.163085938 220.2578125 232.163085938 211.977539062 c 0
 232.163085938 192.657226562 235.4296875 173.6640625 241.962890625 154.997070312 c 0
 246.629882812 140.997070312 253.129882812 128.997070312 261.462890625 118.997070312 c 0
 269.795898438 108.997070312 280.295898438 100.997070312 292.962890625 94.9970703125 c 0
EndSplineSet
Validated: 1
EndChar

StartChar: seven
Encoding: 55 55 30
Width: 640
GlyphClass: 2
Flags: HMW
HStem: -22.999 21G<145.931 153.264> 601 113.002<412.263 467.93 412.263 559.597>
LayerCount: 2
Fore
SplineSet
385.59765625 601 m 0
 324.264648438 599.666992188 284.265625 596.670898438 265.598632812 592.00390625 c 0
 261.598632812 591.336914062 257.265625 590.836914062 252.598632812 590.50390625 c 0
 247.931640625 590.170898438 243.264648438 591.00390625 238.59765625 593.00390625 c 0
 231.264648438 596.336914062 226.264648438 601.336914062 223.59765625 608.00390625 c 0
 219.71875 616.731445312 217.779296875 626.340820312 217.779296875 636.831054688 c 0
 217.779296875 640.764648438 218.051757812 644.822265625 218.59765625 649.00390625 c 1
 217.264648438 642.336914062 217.264648438 642.669921875 218.59765625 650.002929688 c 0
 221.930664062 664.002929688 228.263671875 675.669921875 237.596679688 685.002929688 c 0
 247.596679688 694.3359375 261.9296875 700.668945312 280.596679688 704.001953125 c 0
 315.9296875 710.668945312 372.9296875 714.001953125 451.596679688 714.001953125 c 0
 484.263671875 714.001953125 528.263671875 712.668945312 583.596679688 710.001953125 c 0
 636.263671875 708.001953125 663.596679688 707.001953125 665.596679688 707.001953125 c 0
 673.596679688 707.001953125 681.263671875 705.168945312 688.596679688 701.501953125 c 0
 695.9296875 697.834960938 701.9296875 692.001953125 706.596679688 684.001953125 c 0
 709.87890625 678.66796875 711.51953125 672.325195312 711.51953125 664.971679688 c 0
 711.51953125 660.375976562 710.87890625 655.38671875 709.596679688 650.001953125 c 0
 706.9296875 638.001953125 700.596679688 624.668945312 690.596679688 610.001953125 c 0
 676.596679688 590.001953125 653.763671875 560.501953125 622.096679688 521.501953125 c 0
 590.4296875 482.501953125 557.262695312 442.668945312 522.595703125 402.001953125 c 0
 486.595703125 361.334960938 441.595703125 307.16796875 387.595703125 239.500976562 c 0
 333.595703125 171.833984375 281.262695312 102.666992188 230.595703125 32 c 0
 217.262695312 12.6669921875 201.9296875 -1.666015625 184.596679688 -10.9990234375 c 0
 171.263671875 -18.9990234375 158.930664062 -22.9990234375 147.59765625 -22.9990234375 c 0
 144.264648438 -22.9990234375 140.931640625 -22.666015625 137.598632812 -21.9990234375 c 0
 121.598632812 -17.9990234375 111.931640625 -7.9990234375 108.598632812 8.0009765625 c 0
 107.265625 15.333984375 107.598632812 23.1669921875 109.598632812 31.5 c 0
 111.598632812 39.8330078125 115.598632812 49 121.598632812 59 c 0
 168.931640625 125.666992188 219.264648438 192 272.59765625 258 c 0
 327.264648438 324 372.09765625 376.5 407.09765625 415.5 c 0
 442.09765625 454.5 473.09765625 490.166992188 500.09765625 522.5 c 0
 527.09765625 554.833007812 546.930664062 581 559.59765625 601 c 1
 533.263671875 601.666015625 505.59765625 602 476.59765625 602 c 0
 447.59765625 602 417.263671875 601.666015625 385.59765625 601 c 0
EndSplineSet
Validated: 1
EndChar

StartChar: eight
Encoding: 56 56 31
Width: 640
GlyphClass: 2
Flags: HMW
HStem: -28.0039 110.002<317.625 317.958> 621.996 96.0029<437.625 487.29 451.959 487.29>
VStem: 505.96 111.998
LayerCount: 2
Fore
SplineSet
622.953125 246 m 0
 622.286132812 234 620.625 221.329101562 617.958007812 207.99609375 c 0
 613.291015625 185.99609375 605.458007812 164.329101562 594.458007812 142.99609375 c 0
 583.458007812 121.663085938 568.958007812 100.49609375 550.958007812 79.49609375 c 0
 532.958007812 58.49609375 512.958007812 40.3291015625 490.958007812 24.99609375 c 0
 468.291015625 9.6630859375 439.958007812 -3.00390625 405.958007812 -13.00390625 c 0
 371.958007812 -23.00390625 336.458007812 -28.00390625 299.458007812 -28.00390625 c 0
 262.458007812 -28.00390625 230.625 -23.3369140625 203.958007812 -14.00390625 c 0
 177.958007812 -4.6708984375 158.125 7.49609375 144.458007812 22.49609375 c 0
 130.791015625 37.49609375 120.624023438 55.1630859375 113.95703125 75.49609375 c 0
 107.607421875 94.861328125 104.432617188 114.37890625 104.432617188 134.047851562 c 0
 104.432617188 151.06640625 106.45703125 174.37890625 112.955078125 201.997070312 c 0
 118.288085938 224.6640625 129.62109375 249.1640625 146.954101562 275.497070312 c 0
 164.287109375 301.830078125 185.954101562 326.330078125 211.954101562 348.997070312 c 0
 230.62109375 364.997070312 249.954101562 377.6640625 269.954101562 386.997070312 c 1
 248.62109375 401.6640625 232.954101562 419.997070312 222.954101562 441.997070312 c 0
 214.065429688 460.663085938 209.62109375 479.625976562 209.62109375 498.884765625 c 0
 209.62109375 508.514648438 210.732421875 518.21875 212.955078125 527.997070312 c 0
 214.955078125 536.6640625 217.788085938 545.6640625 221.455078125 554.997070312 c 0
 225.122070312 564.330078125 230.2890625 575.330078125 236.956054688 587.997070312 c 0
 243.623046875 600.6640625 251.290039062 612.831054688 259.95703125 624.498046875 c 0
 268.624023438 636.165039062 279.791015625 647.83203125 293.458007812 659.499023438 c 0
 307.125 671.166015625 321.958007812 680.999023438 337.958007812 688.999023438 c 0
 355.291015625 697.666015625 375.624023438 704.666015625 398.95703125 709.999023438 c 0
 422.290039062 715.33203125 447.290039062 717.999023438 473.95703125 717.999023438 c 0
 500.624023438 717.999023438 524.624023438 715.33203125 545.95703125 709.999023438 c 0
 567.290039062 704.666015625 584.623046875 697.666015625 597.956054688 688.999023438 c 0
 611.2890625 680.33203125 622.122070312 670.33203125 630.455078125 658.999023438 c 0
 638.788085938 647.666015625 644.62109375 636.166015625 647.954101562 624.499023438 c 0
 651.287109375 612.83203125 653.454101562 600.499023438 654.454101562 587.499023438 c 0
 654.954101562 580.999023438 655.204101562 574.916015625 655.204101562 569.249023438 c 0
 655.204101562 563.58203125 654.954101562 558.33203125 654.454101562 553.499023438 c 0
 653.454101562 543.83203125 651.787109375 534.33203125 649.454101562 524.999023438 c 0
 647.12109375 515.666015625 643.954101562 506.833007812 639.954101562 498.5 c 0
 635.954101562 490.166992188 631.62109375 482.666992188 626.954101562 476 c 0
 622.287109375 469.333007812 616.454101562 462.5 609.454101562 455.5 c 0
 602.454101562 448.5 596.12109375 442.666992188 590.454101562 438 c 0
 584.787109375 433.333007812 577.620117188 428 568.953125 422 c 0
 560.286132812 416 553.286132812 411.666992188 547.953125 409 c 0
 542.620117188 406.333007812 536.287109375 402.333007812 528.954101562 397 c 1
 544.287109375 389 557.287109375 380 567.954101562 370 c 0
 582.62109375 356 593.954101562 342.5 601.954101562 329.5 c 0
 609.954101562 316.5 615.62109375 302.333007812 618.954101562 287 c 0
 621.731445312 274.223632812 623.120117188 262.604492188 623.120117188 252.141601562 c 0
 623.120117188 250.047851562 623.064453125 248.000976562 622.953125 246 c 0
370.958984375 591.99609375 m 0
 345.625976562 571.99609375 330.293945312 549.99609375 324.9609375 525.99609375 c 0
 324.072265625 521.99609375 323.627929688 518.078125 323.627929688 514.243164062 c 0
 323.627929688 500.819335938 329.072265625 488.403320312 339.9609375 476.99609375 c 0
 355.293945312 461.663085938 382.9609375 445.663085938 422.9609375 428.99609375 c 1
 450.293945312 439.663085938 475.626953125 453.663085938 498.959960938 470.99609375 c 0
 522.29296875 488.329101562 535.625976562 503.329101562 538.958984375 515.99609375 c 0
 540.5078125 522.189453125 541.28125 528.408203125 541.28125 534.651367188 c 0
 541.28125 544.537109375 539.340820312 554.485351562 535.458984375 564.49609375 c 0
 529.125976562 580.829101562 518.625976562 594.49609375 503.958984375 605.49609375 c 0
 489.291992188 616.49609375 472.291992188 621.99609375 452.958984375 621.99609375 c 2
 451.958984375 621.99609375 l 2
 423.291992188 621.99609375 396.291992188 611.99609375 370.958984375 591.99609375 c 0
263.959960938 96.99609375 m 0
 283.29296875 86.99609375 305.291992188 81.998046875 329.958984375 81.998046875 c 0
 347.291992188 81.998046875 365.458984375 84.6650390625 384.458984375 89.998046875 c 0
 403.458984375 95.3310546875 421.291992188 102.998046875 437.958984375 112.998046875 c 0
 454.625976562 122.998046875 469.29296875 135.665039062 481.959960938 150.998046875 c 0
 493.959960938 166.331054688 501.959960938 182.998046875 505.959960938 200.998046875 c 0
 507.959960938 210.998046875 509.626953125 220.331054688 510.959960938 228.998046875 c 0
 510.959960938 237.665039062 509.459960938 247.665039062 506.459960938 258.998046875 c 0
 503.459960938 270.331054688 498.126953125 280.998046875 490.459960938 290.998046875 c 0
 482.79296875 300.998046875 471.29296875 311.331054688 455.959960938 321.998046875 c 0
 440.626953125 332.665039062 421.959960938 342.665039062 399.959960938 351.998046875 c 1
 352.626953125 339.331054688 311.626953125 318.6640625 276.959960938 289.997070312 c 0
 242.959960938 261.330078125 222.29296875 230.663085938 214.959960938 197.99609375 c 0
 213.020507812 189.99609375 212.05078125 182.260742188 212.05078125 174.790039062 c 0
 212.05078125 161.715820312 215.020507812 149.451171875 220.959960938 137.99609375 c 0
 230.959960938 119.99609375 245.29296875 106.329101562 263.959960938 96.99609375 c 0
EndSplineSet
Validated: 1
EndChar

StartChar: nine
Encoding: 57 57 32
Width: 640
GlyphClass: 2
Flags: HMW
HStem: -22.9971 78.5 223.001 113.003<324.042 406.038> 630.004 108.995<448.706 529.71 460.039 529.71>
LayerCount: 2
Fore
SplineSet
196.044921875 -22 m 0
 192.711914062 -22 189.708007812 -22.330078125 187.041015625 -22.9970703125 c 0
 173.041015625 -22.9970703125 161.708007812 -19.9970703125 153.041015625 -13.9970703125 c 0
 142.1015625 -7.6640625 136.631835938 1.9013671875 136.631835938 14.69921875 c 0
 136.631835938 16.7197265625 136.768554688 18.8212890625 137.041015625 21.0029296875 c 2
 137.041015625 24.0029296875 l 2
 139.041015625 34.669921875 146.041015625 45.169921875 158.041015625 55.5029296875 c 0
 170.041015625 65.8359375 182.708007812 73.0029296875 196.041015625 77.0029296875 c 0
 204.041015625 79.0029296875 216.874023438 81.669921875 234.541015625 85.0029296875 c 0
 252.208007812 88.3359375 267.875 91.6689453125 281.541992188 95.001953125 c 0
 295.208984375 98.3349609375 310.375976562 102.66796875 327.04296875 108.000976562 c 0
 363.04296875 120.000976562 396.375976562 139.000976562 427.04296875 165.000976562 c 0
 447.04296875 183.000976562 466.375976562 203.66796875 485.04296875 227.000976562 c 0
 492.375976562 236.333984375 498.708984375 245.333984375 504.041992188 254.000976562 c 1
 488.708984375 246.000976562 472.375976562 239.66796875 455.04296875 235.000976562 c 0
 423.04296875 227.000976562 384.709960938 223.000976562 340.04296875 223.000976562 c 0
 308.04296875 223.000976562 279.375976562 230.333984375 254.04296875 245.000976562 c 0
 230.04296875 259.000976562 211.709960938 277.500976562 199.04296875 300.500976562 c 0
 186.375976562 323.500976562 178.04296875 350.16796875 174.04296875 380.500976562 c 0
 172.630859375 391.206054688 171.92578125 401.974609375 171.92578125 412.8046875 c 0
 171.92578125 432.66015625 174.297851562 452.725585938 179.04296875 473 c 0
 187.709960938 511 201.876953125 546.5 221.543945312 579.5 c 0
 241.2109375 612.5 264.2109375 640.666992188 290.543945312 664 c 0
 316.876953125 687.333007812 347.043945312 705.666015625 381.043945312 718.999023438 c 0
 415.7109375 732.33203125 450.7109375 738.999023438 486.043945312 738.999023438 c 0
 573.376953125 738.999023438 629.709960938 707.33203125 655.04296875 643.999023438 c 0
 666.23046875 615.231445312 671.823242188 580.717773438 671.823242188 540.45703125 c 0
 671.823242188 496.745117188 665.23046875 446.259765625 652.04296875 388.999023438 c 0
 638.709960938 331.666015625 620.876953125 280.833007812 598.543945312 236.5 c 0
 576.2109375 192.166992188 551.2109375 155 523.543945312 125 c 0
 495.876953125 95 464.043945312 69.3330078125 428.043945312 48 c 0
 391.376953125 26.6669921875 353.876953125 10.5 315.543945312 -0.5 c 0
 277.2109375 -11.5 237.377929688 -18.6669921875 196.044921875 -22 c 0
330.041015625 555.002929688 m 0
 312.708007812 532.3359375 301.372070312 509.004882812 296.0390625 485.004882812 c 0
 291.33984375 464.549804688 288.990234375 446.200195312 288.990234375 429.956054688 c 0
 288.990234375 367.850585938 323.33984375 336.532226562 392.0390625 336.00390625 c 0
 420.0390625 336.00390625 448.372070312 342.00390625 477.0390625 354.00390625 c 0
 505.706054688 366.00390625 529.706054688 381.336914062 549.0390625 400.00390625 c 0
 549.706054688 402.670898438 550.373046875 405.670898438 551.040039062 409.00390625 c 0
 555.040039062 426.336914062 559.70703125 450.00390625 565.040039062 480.00390625 c 0
 566.240234375 488.403320312 566.83984375 496.743164062 566.83984375 505.0234375 c 0
 566.83984375 524.34375 563.573242188 543.336914062 557.040039062 562.00390625 c 0
 552.373046875 576.00390625 545.873046875 588.00390625 537.540039062 598.00390625 c 0
 529.20703125 608.00390625 518.540039062 615.836914062 505.540039062 621.50390625 c 0
 492.540039062 627.170898438 478.040039062 630.00390625 462.040039062 630.00390625 c 2
 460.040039062 630.00390625 l 2
 437.373046875 630.00390625 414.373046875 623.170898438 391.040039062 609.50390625 c 0
 367.70703125 595.836914062 347.374023438 577.669921875 330.041015625 555.002929688 c 0
EndSplineSet
Validated: 1
EndChar

StartChar: colon
Encoding: 58 58 33
Width: 640
GlyphClass: 2
Flags: HMW
HStem: 27 180.001<316.477 369.814> 295 179.001<386.149 427.482 386.149 427.482>
VStem: 268.145 216.002
LayerCount: 2
Fore
SplineSet
481.146484375 404 m 0
 476.479492188 384.666992188 469.147460938 364.66796875 459.147460938 344.000976562 c 0
 451.814453125 327.333984375 440.481445312 314.666992188 425.1484375 306 c 0
 411.815429688 298.666992188 399.815429688 295 389.1484375 295 c 2
 386.1484375 295 l 2
 368.1484375 295.666992188 354.1484375 299.666992188 344.1484375 307 c 0
 333.038085938 315.333007812 327.482421875 327.138671875 327.482421875 342.416015625 c 0
 327.482421875 345.471679688 327.705078125 348.666015625 328.149414062 352 c 0
 329.482421875 364 331.649414062 376.166992188 334.649414062 388.5 c 0
 337.649414062 400.833007812 340.649414062 412.333007812 343.649414062 423 c 0
 346.649414062 433.666992188 351.982421875 442.833984375 359.649414062 450.500976562 c 0
 367.31640625 458.16796875 375.649414062 463.66796875 384.649414062 467.000976562 c 0
 393.649414062 470.333984375 401.31640625 472.333984375 407.649414062 473.000976562 c 0
 413.982421875 473.66796875 418.815429688 474.000976562 422.1484375 474.000976562 c 0
 432.815429688 474.000976562 441.315429688 473.333984375 447.6484375 472.000976562 c 0
 453.981445312 470.66796875 460.314453125 468.000976562 466.647460938 464.000976562 c 0
 472.98046875 460.000976562 477.813476562 454.000976562 481.146484375 446.000976562 c 0
 484.479492188 438.000976562 485.479492188 428.66796875 484.146484375 418.000976562 c 0
 482.813476562 413.333984375 481.813476562 408.666992188 481.146484375 404 c 0
419.147460938 125.000976562 m 0
 415.814453125 109.000976562 409.809570312 92.333984375 401.142578125 75.0009765625 c 0
 393.142578125 58.333984375 380.809570312 46.0009765625 364.142578125 38.0009765625 c 0
 350.142578125 31.333984375 336.809570312 27.6669921875 324.142578125 27 c 0
 308.809570312 27 294.9765625 32 282.643554688 42 c 0
 272.502929688 50.2216796875 267.43359375 61.1484375 267.43359375 74.7783203125 c 0
 267.43359375 77.7255859375 267.669921875 80.7998046875 268.14453125 84 c 0
 271.477539062 102.666992188 273.477539062 113.333984375 274.14453125 116.000976562 c 0
 274.811523438 118.66796875 276.478515625 124.66796875 279.145507812 134.000976562 c 0
 281.8125 143.333984375 283.8125 150.666992188 285.145507812 156 c 0
 287.8125 166.666992188 292.979492188 175.833984375 300.646484375 183.500976562 c 0
 308.313476562 191.16796875 316.813476562 196.66796875 326.146484375 200.000976562 c 0
 340.146484375 204.66796875 352.813476562 207.000976562 364.146484375 207.000976562 c 0
 375.479492188 207.000976562 385.146484375 205.500976562 393.146484375 202.500976562 c 0
 401.146484375 199.500976562 408.479492188 193.66796875 415.146484375 185.000976562 c 0
 420.702148438 177.778320312 423.48046875 168.934570312 423.48046875 158.471679688 c 0
 423.48046875 156.379882812 423.369140625 154.22265625 423.147460938 152.000976562 c 0
 422.48046875 143.333984375 421.147460938 134.333984375 419.147460938 125.000976562 c 0
EndSplineSet
Validated: 1
EndChar

StartChar: semicolon
Encoding: 59 59 34
Width: 640
GlyphClass: 2
Flags: HMW
HStem: 253.001 180.001<404.01 448.344>
VStem: 347.677 155.998
LayerCount: 2
Fore
SplineSet
500.674804688 363 m 0
 496.0078125 343.666992188 488.67578125 323.334960938 478.67578125 302.001953125 c 0
 471.342773438 285.334960938 460.009765625 272.66796875 444.676757812 264.000976562 c 0
 431.34375 256.66796875 419.34375 253.000976562 408.676757812 253.000976562 c 0
 399.34375 253.000976562 389.84375 255.000976562 380.176757812 259.000976562 c 0
 370.509765625 263.000976562 362.676757812 269.000976562 356.676757812 277.000976562 c 0
 350.471679688 284.8984375 347.369140625 293.989257812 347.369140625 304.274414062 c 0
 347.369140625 306.143554688 347.471679688 308.052734375 347.676757812 310.000976562 c 2
 347.676757812 311.000976562 l 2
 349.009765625 323.000976562 351.342773438 335.000976562 354.67578125 347.000976562 c 0
 358.008789062 359.000976562 361.008789062 370.333984375 363.67578125 381.000976562 c 0
 366.342773438 391.66796875 371.509765625 401.000976562 379.176757812 409.000976562 c 0
 386.84375 417.000976562 395.010742188 422.333984375 403.677734375 425.000976562 c 0
 418.344726562 429.66796875 431.677734375 432.334960938 443.677734375 433.001953125 c 0
 453.010742188 433.001953125 460.84375 432.168945312 467.176757812 430.501953125 c 0
 473.509765625 428.834960938 479.842773438 426.16796875 486.17578125 422.500976562 c 0
 492.508789062 418.833984375 497.341796875 413.000976562 500.674804688 405.000976562 c 0
 504.0078125 396.333984375 505.0078125 386.666992188 503.674804688 376 c 0
 502.341796875 372 501.341796875 367.666992188 500.674804688 363 c 0
416.67578125 79.0009765625 m 0
 416.67578125 77.0009765625 416.01171875 75 414.678710938 73 c 0
 408.01171875 51 367.678710938 -36.6669921875 293.678710938 -190 c 0
 285.678710938 -206.666992188 275.01171875 -219.333984375 261.678710938 -228.000976562 c 0
 250.678710938 -234.72265625 239.959960938 -238.083007812 229.520507812 -238.083007812 c 0
 228.5703125 -238.083007812 227.624023438 -238.055664062 226.678710938 -238 c 0
 210.678710938 -238 197.678710938 -233 187.678710938 -223 c 0
 180.801757812 -216.123046875 177.36328125 -207.435546875 177.36328125 -196.938476562 c 0
 177.36328125 -193.189453125 177.801757812 -189.209960938 178.678710938 -185 c 0
 181.345703125 -171.666992188 196.678710938 -132 224.678710938 -66 c 0
 252.678710938 0 274.01171875 49.3330078125 288.678710938 82 c 0
 294.01171875 93.3330078125 299.844726562 102.833007812 306.177734375 110.5 c 0
 312.510742188 118.166992188 319.34375 123.333984375 326.676757812 126.000976562 c 0
 336.009765625 129.333984375 344.676757812 131.333984375 352.676757812 132.000976562 c 0
 355.34375 132.000976562 358.34375 131.66796875 361.676757812 131.000976562 c 0
 375.009765625 131.000976562 387.676757812 127.66796875 399.676757812 121.000976562 c 0
 407.009765625 117.000976562 412.342773438 111.000976562 415.67578125 103.000976562 c 0
 418.342773438 95.66796875 418.67578125 87.66796875 416.67578125 79.0009765625 c 0
EndSplineSet
Validated: 1
EndChar

StartChar: less
Encoding: 60 60 35
Width: 640
GlyphClass: 2
Flags: HMW
HStem: -24 21G<489.513 494.513 494.513 503.513>
LayerCount: 2
Fore
SplineSet
494.512695312 -24 m 2
 484.512695312 -24 473.846679688 -21.9990234375 462.513671875 -17.9990234375 c 0
 447.180664062 -12.666015625 429.84765625 -0.666015625 410.514648438 18.0009765625 c 0
 391.181640625 36.66796875 371.181640625 58.8349609375 350.514648438 84.501953125 c 0
 329.84765625 110.168945312 309.514648438 135.8359375 289.514648438 161.502929688 c 0
 269.514648438 187.169921875 248.34765625 213.669921875 226.014648438 241.002929688 c 0
 203.681640625 268.3359375 184.181640625 290.002929688 167.514648438 306.002929688 c 0
 159.514648438 314.002929688 155.514648438 325.002929688 155.514648438 339.002929688 c 0
 155.514648438 345.002929688 156.34765625 351.502929688 158.014648438 358.502929688 c 0
 159.681640625 365.502929688 162.181640625 372.669921875 165.514648438 380.002929688 c 0
 172.181640625 394.002929688 181.514648438 404.002929688 193.514648438 410.002929688 c 0
 234.84765625 438.002929688 284.014648438 473.169921875 341.014648438 515.502929688 c 0
 398.014648438 557.8359375 450.34765625 596.168945312 498.014648438 630.501953125 c 0
 545.681640625 664.834960938 587.514648438 692.001953125 623.514648438 712.001953125 c 0
 638.181640625 720.668945312 651.514648438 725.001953125 663.514648438 725.001953125 c 0
 672.84765625 725.001953125 680.514648438 722.668945312 686.514648438 718.001953125 c 0
 698.514648438 709.334960938 705.84765625 697.66796875 708.514648438 683.000976562 c 0
 709.84765625 676.333984375 709.680664062 669.000976562 708.013671875 661.000976562 c 0
 706.346679688 653.000976562 701.846679688 644.66796875 694.513671875 636.000976562 c 0
 683.846679688 622.66796875 665.513671875 607.66796875 639.513671875 591.000976562 c 0
 598.846679688 565.000976562 539.846679688 524.833984375 462.513671875 470.500976562 c 0
 385.180664062 416.16796875 332.513671875 379.334960938 304.513671875 360.001953125 c 1
 321.180664062 342.001953125 340.34765625 319.668945312 362.014648438 293.001953125 c 0
 383.681640625 266.334960938 403.014648438 241.66796875 420.014648438 219.000976562 c 0
 437.014648438 196.333984375 455.681640625 173.166992188 476.014648438 149.5 c 0
 496.34765625 125.833007812 515.180664062 106.833007812 532.513671875 92.5 c 0
 549.846679688 78.1669921875 560.846679688 65 565.513671875 53 c 0
 568.846679688 45 569.1796875 36.3330078125 566.512695312 27 c 0
 565.1796875 20.3330078125 562.512695312 14 558.512695312 8 c 0
 545.845703125 -10 527.512695312 -20.6669921875 503.512695312 -24 c 2
 494.512695312 -24 l 2
EndSplineSet
Validated: 1
EndChar

StartChar: equal
Encoding: 61 61 36
Width: 640
GlyphClass: 2
Flags: HMW
HStem: 235 107<230.087 263.087> 435 106
LayerCount: 2
Fore
SplineSet
580.751953125 541 m 0
 598.751953125 541 610.419921875 536.33203125 615.752929688 526.999023438 c 0
 619.307617188 520.77734375 621.0859375 513.518554688 621.0859375 505.22265625 c 0
 621.0859375 501.07421875 620.640625 496.666015625 619.751953125 491.999023438 c 2
 619.751953125 490.999023438 l 2
 618.418945312 483.666015625 616.418945312 476.999023438 613.751953125 470.999023438 c 0
 611.084960938 464.999023438 607.084960938 458.83203125 601.751953125 452.499023438 c 0
 596.418945312 446.166015625 589.418945312 441.333007812 580.751953125 438 c 0
 574.751953125 436 568.751953125 435 562.751953125 435 c 2
 554.751953125 435 l 2
 532.751953125 435.666992188 509.751953125 436 485.751953125 436 c 2
 382.751953125 433 l 2
 339.418945312 431.666992188 307.418945312 431 286.751953125 431 c 0
 268.751953125 431 255.418945312 436 246.751953125 446 c 0
 240.4921875 453.22265625 237.362304688 461.8359375 237.362304688 471.840820312 c 0
 237.362304688 475.688476562 237.825195312 479.741210938 238.750976562 484 c 2
 238.750976562 487 l 2
 242.083984375 501 249.583984375 513.5 261.250976562 524.5 c 0
 272.91796875 535.5 287.41796875 541 304.750976562 541 c 2
 308.750976562 541 l 2
 345.150390625 539.799804688 385.149414062 539.200195312 428.749023438 539.200195312 c 0
 457.81640625 539.200195312 488.484375 539.466796875 520.751953125 540 c 0
 554.084960938 540.666992188 574.084960938 541 580.751953125 541 c 0
516.752929688 238.999023438 m 2
 509.75390625 239 l 2
 495.75390625 239.666992188 482.420898438 240 469.75390625 240 c 0
 443.75390625 240 403.75390625 239.166992188 349.75390625 237.5 c 0
 295.75390625 235.833007812 259.086914062 235 239.75390625 235 c 0
 220.420898438 235 207.087890625 240.333007812 199.754882812 251 c 0
 194.712890625 258.333984375 192.192382812 266.770507812 192.192382812 276.309570312 c 0
 192.192382812 280.645507812 192.712890625 285.208984375 193.754882812 290 c 2
 193.754882812 292 l 2
 197.087890625 306 204.920898438 317.833007812 217.25390625 327.5 c 0
 229.586914062 337.166992188 244.75390625 342 262.75390625 342 c 0
 263.420898438 342 268.75390625 341.666992188 278.75390625 341 c 0
 291.87109375 340.77734375 306.434570312 340.666015625 322.443359375 340.666015625 c 0
 354.438476562 340.666015625 392.208007812 341.110351562 435.752929688 341.999023438 c 2
 534.752929688 344.999023438 l 2
 552.752929688 344.999023438 564.5859375 340.33203125 570.252929688 330.999023438 c 0
 574.106445312 324.65234375 576.033203125 317.227539062 576.033203125 308.72265625 c 0
 576.033203125 304.720703125 575.606445312 300.479492188 574.752929688 295.999023438 c 2
 574.752929688 294.999023438 l 2
 573.419921875 287.666015625 571.252929688 281.166015625 568.252929688 275.499023438 c 0
 565.252929688 269.83203125 561.419921875 263.999023438 556.752929688 257.999023438 c 0
 551.419921875 251.33203125 544.419921875 245.999023438 535.752929688 241.999023438 c 0
 529.752929688 239.999023438 523.419921875 238.999023438 516.752929688 238.999023438 c 2
EndSplineSet
Validated: 1
EndChar

StartChar: greater
Encoding: 62 62 37
Width: 640
GlyphClass: 2
Flags: HMW
HStem: -18 21G<127.89 138.558>
LayerCount: 2
Fore
SplineSet
132.224609375 -18 m 0
 123.557617188 -18 116.221679688 -15.6689453125 110.221679688 -11.001953125 c 0
 104.221679688 -6.3349609375 99.388671875 -1.001953125 95.7216796875 4.998046875 c 0
 92.0546875 10.998046875 89.5546875 17.3310546875 88.2216796875 23.998046875 c 0
 86.888671875 30.6650390625 87.0556640625 37.998046875 88.72265625 45.998046875 c 0
 90.3896484375 53.998046875 94.556640625 62.3310546875 101.223632812 70.998046875 c 0
 111.890625 84.3310546875 130.557617188 99.3310546875 157.224609375 115.998046875 c 0
 197.891601562 141.998046875 256.891601562 182.165039062 334.224609375 236.498046875 c 0
 411.557617188 290.831054688 463.890625 327.6640625 491.223632812 346.997070312 c 1
 473.890625 364.997070312 454.723632812 387.330078125 433.723632812 413.997070312 c 0
 412.723632812 440.6640625 393.556640625 465.331054688 376.223632812 487.998046875 c 0
 358.890625 510.665039062 340.057617188 533.83203125 319.724609375 557.499023438 c 0
 299.391601562 581.166015625 280.724609375 600.166015625 263.724609375 614.499023438 c 0
 246.724609375 628.83203125 235.891601562 641.999023438 231.224609375 653.999023438 c 0
 227.891601562 661.999023438 227.55859375 670.666015625 230.225585938 679.999023438 c 0
 231.55859375 686.666015625 234.225585938 692.999023438 238.225585938 698.999023438 c 0
 250.892578125 716.999023438 269.225585938 727.666015625 293.225585938 730.999023438 c 2
 302.225585938 730.999023438 l 2
 312.225585938 730.999023438 322.892578125 728.999023438 334.225585938 724.999023438 c 0
 349.55859375 719.666015625 367.05859375 707.833007812 386.725585938 689.5 c 0
 406.392578125 671.166992188 426.392578125 649 446.725585938 623 c 0
 467.05859375 597 487.225585938 571.166992188 507.225585938 545.5 c 0
 527.225585938 519.833007812 548.392578125 493.333007812 570.725585938 466 c 0
 593.05859375 438.666992188 612.55859375 417 629.225585938 401 c 0
 637.225585938 393 641.225585938 382 641.225585938 368 c 0
 641.225585938 362 640.392578125 355.5 638.725585938 348.5 c 0
 637.05859375 341.5 634.55859375 334.333007812 631.225585938 327 c 0
 624.55859375 313 615.225585938 303 603.225585938 297 c 0
 561.892578125 269.666992188 512.725585938 234.666992188 455.725585938 192 c 0
 398.725585938 149.333007812 346.392578125 110.833007812 298.725585938 76.5 c 0
 251.05859375 42.1669921875 209.225585938 15 173.225585938 -5 c 0
 158.55859375 -13.6669921875 144.891601562 -18 132.224609375 -18 c 0
EndSplineSet
Validated: 1
EndChar

StartChar: question
Encoding: 63 63 38
Width: 640
GlyphClass: 2
Flags: HMW
HStem: -25.999 178.002<269.876 346.208 280.876 346.208> 508.998 21G<284.208 285.875 285.875 293.875> 625.003 108.995<461.542 467.874>
VStem: 299.876 116
LayerCount: 2
Fore
SplineSet
348.875 201 m 0
 343.541992188 201 337.875976562 201.66796875 331.875976562 203.000976562 c 0
 308.828125 209.810546875 297.3046875 224.028320312 297.3046875 245.655273438 c 0
 297.3046875 251.552734375 298.162109375 258.001953125 299.875976562 265.001953125 c 0
 301.875976562 274.334960938 305.54296875 284.334960938 310.875976562 295.001953125 c 0
 320.208984375 314.334960938 331.041992188 332.334960938 343.375 349.001953125 c 0
 355.708007812 365.668945312 368.375 380.001953125 381.375 392.001953125 c 0
 394.375 404.001953125 407.541992188 415.168945312 420.875 425.501953125 c 0
 434.208007812 435.834960938 446.875 445.501953125 458.875 454.501953125 c 0
 470.875 463.501953125 481.541992188 472.334960938 490.875 481.001953125 c 0
 510.875 499.668945312 523.208007812 519.001953125 527.875 539.001953125 c 0
 530.563476562 550.24609375 531.908203125 560.280273438 531.908203125 569.104492188 c 0
 531.908203125 584.34765625 527.896484375 595.98046875 519.874023438 604.002929688 c 0
 506.541015625 618.002929688 483.874023438 625.002929688 451.874023438 625.002929688 c 0
 444.541015625 625.002929688 436.708007812 623.169921875 428.375 619.502929688 c 0
 420.041992188 615.8359375 412.375 611.668945312 405.375 607.001953125 c 0
 398.375 602.334960938 390.541992188 595.66796875 381.875 587.000976562 c 0
 373.208007812 578.333984375 366.208007812 571.166992188 360.875 565.5 c 0
 355.541992188 559.833007812 348.875 552.166015625 340.875 542.499023438 c 0
 332.875 532.83203125 325.041992188 525.165039062 317.375 519.498046875 c 0
 309.708007812 513.831054688 301.875 510.331054688 293.875 508.998046875 c 2
 285.875 508.998046875 l 2
 282.541992188 508.998046875 278.875 509.665039062 274.875 510.998046875 c 0
 270.875 512.331054688 265.208007812 514.6640625 257.875 517.997070312 c 0
 245.875 525.997070312 239.875 537.330078125 239.875 551.997070312 c 0
 239.875 555.330078125 240.208007812 559.330078125 240.875 563.997070312 c 0
 243.541992188 575.997070312 249.875 589.330078125 259.875 603.997070312 c 0
 270.541992188 618.6640625 282.541992188 632.831054688 295.875 646.498046875 c 0
 309.208007812 660.165039062 325.041015625 673.998046875 343.374023438 687.998046875 c 0
 361.70703125 701.998046875 382.20703125 713.165039062 404.874023438 721.498046875 c 0
 427.541015625 729.831054688 450.208007812 733.998046875 472.875 733.998046875 c 0
 542.208007812 733.998046875 591.375 716.165039062 620.375 680.498046875 c 0
 639.063476562 657.512695312 648.408203125 627.3984375 648.408203125 590.154296875 c 0
 648.408203125 569.60546875 645.563476562 546.88671875 639.875 521.998046875 c 0
 635.208007812 502.665039062 628.208007812 484.83203125 618.875 468.499023438 c 0
 609.541992188 452.166015625 598.708984375 438.333007812 586.375976562 427 c 0
 574.04296875 415.666992188 561.375976562 405.166992188 548.375976562 395.5 c 0
 535.375976562 385.833007812 522.208984375 376.5 508.875976562 367.5 c 0
 495.54296875 358.5 483.04296875 349.166992188 471.375976562 339.5 c 0
 459.708984375 329.833007812 448.875976562 318.333007812 438.875976562 305 c 0
 428.875976562 291.666992188 421.208984375 276.666992188 415.875976562 260 c 0
 408.54296875 240 397.875976562 224.333007812 383.875976562 213 c 0
 373.208984375 205 361.541992188 201 348.875 201 c 0
280.875976562 -25.9990234375 m 2
 258.875976562 -25.9990234375 242.541992188 -17.9990234375 231.875 -1.9990234375 c 0
 223.279296875 10.66796875 218.982421875 24.7158203125 218.982421875 40.1455078125 c 0
 218.982421875 47.4541015625 219.946289062 55.0732421875 221.875 63.001953125 c 0
 227.875 87.6689453125 241.875 108.3359375 263.875 125.002929688 c 0
 287.208007812 143.002929688 310.875 152.002929688 334.875 152.002929688 c 0
 357.541992188 152.002929688 374.875 144.002929688 386.875 128.002929688 c 0
 395.026367188 116.681640625 399.1015625 103.515625 399.1015625 88.50390625 c 0
 399.1015625 81.4140625 398.192382812 73.9140625 396.375 66.001953125 c 0
 390.708007812 41.3349609375 378.208007812 20.66796875 358.875 4.0009765625 c 0
 339.541992188 -12.666015625 317.208984375 -22.666015625 291.875976562 -25.9990234375 c 2
 280.875976562 -25.9990234375 l 2
EndSplineSet
Validated: 1
EndChar

StartChar: at
Encoding: 64 64 39
Width: 640
GlyphClass: 2
Flags: HMW
HStem: -141.997 110.002<260.792 317.46 278.126 317.46> 105 105.001<349.13 349.797> 369.5 100.5 601.002 113.999<465.127 506.791>
VStem: 103.625 109.002 570.63 98.4951
LayerCount: 2
Fore
SplineSet
420.124023438 148 m 1
 395.45703125 119.333007812 366.463867188 105 333.130859375 105 c 0
 293.130859375 105 264.963867188 118.833007812 248.630859375 146.5 c 0
 239.431640625 162.08203125 234.833007812 181.735351562 234.833007812 205.458984375 c 0
 234.833007812 223.857421875 237.598632812 244.704101562 243.131835938 268 c 0
 249.131835938 294.666992188 257.46484375 319.166992188 268.131835938 341.5 c 0
 278.798828125 363.833007812 290.798828125 383 304.131835938 399 c 0
 317.46484375 415 332.131835938 428.666992188 348.131835938 440 c 0
 376.131835938 460 406.131835938 470 438.131835938 470 c 0
 456.798828125 470 474.465820312 466 491.1328125 458 c 0
 505.799804688 451.333007812 516.799804688 442.333007812 524.1328125 431 c 0
 529.465820312 421.666992188 531.1328125 412.666992188 529.1328125 404 c 0
 528.465820312 399.333007812 526.1328125 394.333007812 522.1328125 389 c 0
 518.1328125 383.666992188 513.465820312 378.666992188 508.1328125 374 c 0
 502.799804688 369.333007812 497.1328125 366 491.1328125 364 c 0
 482.465820312 361.333007812 475.798828125 360 471.131835938 360 c 0
 463.131835938 360 454.46484375 361.333007812 445.131835938 364 c 0
 442.46484375 364.666992188 438.131835938 366 432.131835938 368 c 0
 425.46484375 369.333007812 418.96484375 369.833007812 412.631835938 369.5 c 0
 406.298828125 369.166992188 399.631835938 366.833984375 392.631835938 362.500976562 c 0
 385.631835938 358.16796875 378.798828125 352.66796875 372.131835938 346.000976562 c 0
 365.46484375 339.333984375 359.297851562 330.333984375 353.630859375 319.000976562 c 0
 347.963867188 307.66796875 343.796875 294.66796875 341.129882812 280.000976562 c 0
 339.129882812 272.000976562 337.629882812 264.333984375 336.629882812 257.000976562 c 0
 335.629882812 249.66796875 335.462890625 242.000976562 336.129882812 234.000976562 c 0
 336.796875 218.000976562 343.129882812 210.000976562 355.129882812 210.000976562 c 0
 362.462890625 210.000976562 368.462890625 211.333984375 373.129882812 214.000976562 c 0
 379.796875 216.66796875 385.463867188 221.334960938 390.130859375 228.001953125 c 0
 400.797851562 242.668945312 410.797851562 268.001953125 420.130859375 304.001953125 c 0
 424.130859375 319.334960938 437.463867188 331.66796875 460.130859375 341.000976562 c 0
 472.797851562 345.66796875 484.130859375 348.334960938 494.130859375 349.001953125 c 0
 501.463867188 349.001953125 507.463867188 347.668945312 512.130859375 345.001953125 c 0
 521.3046875 340.684570312 525.891601562 333.52734375 525.891601562 323.53125 c 0
 525.891601562 321.178710938 525.637695312 318.668945312 525.129882812 316.001953125 c 0
 525.129882812 314.668945312 524.462890625 313.3359375 523.129882812 312.002929688 c 0
 515.129882812 288.669921875 509.462890625 269.002929688 506.129882812 253.002929688 c 0
 502.129882812 235.002929688 500.129882812 219.669921875 500.129882812 207.002929688 c 0
 500.129882812 202.3359375 500.796875 199.002929688 502.129882812 197.002929688 c 0
 503.462890625 193.669921875 505.462890625 192.002929688 508.129882812 192.002929688 c 0
 509.462890625 193.3359375 511.129882812 195.3359375 513.129882812 198.002929688 c 0
 517.796875 206.002929688 522.796875 216.3359375 528.129882812 229.002929688 c 0
 536.129882812 253.002929688 542.462890625 275.002929688 547.129882812 295.002929688 c 0
 555.129882812 328.3359375 560.962890625 359.168945312 564.629882812 387.501953125 c 0
 568.296875 415.834960938 570.296875 439.834960938 570.629882812 459.501953125 c 0
 570.666992188 461.684570312 570.685546875 463.845703125 570.685546875 465.983398438 c 0
 570.685546875 483.10546875 569.5 498.778320312 567.12890625 513.001953125 c 0
 564.461914062 529.001953125 561.294921875 541.668945312 557.627929688 551.001953125 c 0
 553.9609375 560.334960938 548.9609375 568.334960938 542.627929688 575.001953125 c 0
 536.294921875 581.668945312 530.627929688 586.501953125 525.627929688 589.501953125 c 0
 520.627929688 592.501953125 514.627929688 595.001953125 507.627929688 597.001953125 c 0
 500.627929688 599.001953125 495.294921875 600.168945312 491.627929688 600.501953125 c 0
 487.9609375 600.834960938 482.793945312 601.001953125 476.126953125 601.001953125 c 0
 454.126953125 601.001953125 431.293945312 593.334960938 407.626953125 578.001953125 c 0
 383.959960938 562.668945312 361.126953125 540.668945312 339.126953125 512.001953125 c 0
 317.126953125 483.334960938 296.459960938 447.501953125 277.126953125 404.501953125 c 0
 257.793945312 361.501953125 242.4609375 314.668945312 231.127929688 264.001953125 c 0
 220.4609375 219.334960938 214.293945312 179.334960938 212.626953125 144.001953125 c 0
 212.188476562 134.703125 211.96875 125.888671875 211.96875 117.559570312 c 0
 211.96875 94.240234375 213.688476562 74.7216796875 217.126953125 59.0029296875 c 0
 221.793945312 37.669921875 229.126953125 19.8369140625 239.126953125 5.50390625 c 0
 249.126953125 -8.8291015625 259.793945312 -18.662109375 271.126953125 -23.9951171875 c 0
 282.459960938 -29.328125 295.459960938 -31.9951171875 310.126953125 -31.9951171875 c 0
 324.793945312 -31.9951171875 338.626953125 -30.328125 351.626953125 -26.9951171875 c 0
 364.626953125 -23.662109375 375.626953125 -19.9951171875 384.626953125 -15.9951171875 c 0
 393.626953125 -11.9951171875 402.626953125 -6.328125 411.626953125 1.0048828125 c 0
 420.626953125 8.337890625 427.959960938 15.1708984375 433.626953125 21.50390625 c 0
 439.293945312 27.8369140625 446.126953125 35.669921875 454.126953125 45.0029296875 c 0
 458.126953125 50.3359375 461.293945312 54.5029296875 463.626953125 57.5029296875 c 0
 465.959960938 60.5029296875 469.126953125 64.169921875 473.126953125 68.5029296875 c 0
 477.126953125 72.8359375 480.626953125 76.0029296875 483.626953125 78.0029296875 c 0
 486.626953125 80.0029296875 490.126953125 82.0029296875 494.126953125 84.0029296875 c 0
 498.126953125 86.0029296875 502.459960938 87.0029296875 507.126953125 87.0029296875 c 0
 511.793945312 87.0029296875 516.126953125 86.0029296875 520.126953125 84.0029296875 c 0
 526.126953125 81.3359375 530.793945312 78.0029296875 534.126953125 74.0029296875 c 0
 537.459960938 70.0029296875 539.626953125 65.169921875 540.626953125 59.5029296875 c 0
 541.626953125 53.8359375 541.459960938 48.0029296875 540.126953125 42.0029296875 c 0
 537.459960938 30.669921875 531.459960938 17.0029296875 522.126953125 1.0029296875 c 0
 516.126953125 -8.9970703125 510.459960938 -17.6640625 505.126953125 -24.9970703125 c 0
 499.793945312 -32.330078125 492.793945312 -41.330078125 484.126953125 -51.9970703125 c 0
 475.459960938 -62.6640625 466.79296875 -71.9970703125 458.125976562 -79.9970703125 c 0
 449.458984375 -87.9970703125 438.458984375 -96.1640625 425.125976562 -104.497070312 c 0
 411.79296875 -112.830078125 398.125976562 -119.497070312 384.125976562 -124.497070312 c 0
 370.125976562 -129.497070312 354.458984375 -133.6640625 337.125976562 -136.997070312 c 0
 319.79296875 -140.330078125 302.125976562 -141.997070312 284.125976562 -141.997070312 c 2
 278.125976562 -141.997070312 l 2
 243.458984375 -141.997070312 213.291992188 -132.6640625 187.625 -113.997070312 c 0
 161.958007812 -95.330078125 141.958007812 -69.9970703125 127.625 -37.9970703125 c 0
 113.291992188 -5.9970703125 105.291992188 32.8359375 103.625 78.5029296875 c 0
 103.421875 84.072265625 103.3203125 89.7041015625 103.3203125 95.3984375 c 0
 103.3203125 136.387695312 108.588867188 180.588867188 119.125 228.002929688 c 0
 133.125 287.3359375 150.291992188 342.8359375 170.625 394.502929688 c 0
 190.958007812 446.169921875 213.625 491.169921875 238.625 529.502929688 c 0
 263.625 567.8359375 290.291992188 601.168945312 318.625 629.501953125 c 0
 346.958007812 657.834960938 376.125 679.16796875 406.125 693.500976562 c 0
 436.125 707.833984375 466.125 715.000976562 496.125 715.000976562 c 0
 517.458007812 715.000976562 536.625 713.16796875 553.625 709.500976562 c 0
 570.625 705.833984375 586.625 699.500976562 601.625 690.500976562 c 0
 616.625 681.500976562 628.791992188 669.66796875 638.125 655.000976562 c 0
 647.458007812 640.333984375 654.958007812 622.000976562 660.625 600.000976562 c 0
 666.291992188 578.000976562 669.125 552.333984375 669.125 523.000976562 c 0
 669.125 461.66796875 658.125 385.000976562 636.125 293.000976562 c 0
 624.125 242.333984375 607.125 198.000976562 585.125 160.000976562 c 0
 572.458007812 138.66796875 557.625 121.500976562 540.625 108.500976562 c 0
 523.625 95.5009765625 505.458007812 89.0009765625 486.125 89.0009765625 c 0
 457.458007812 89.0009765625 437.791015625 99.333984375 427.124023438 120.000976562 c 0
 423.124023438 127.333984375 420.791015625 136.666992188 420.124023438 148 c 1
EndSplineSet
Validated: 1
EndChar

StartChar: A
Encoding: 65 65 40
Width: 640
GlyphClass: 2
Flags: HMW
HStem: -6.00195 21G<95.8346 103.502> 251 91.998<486.162 486.162>
VStem: 486.163 109.502 491.168 115.998
LayerCount: 2
Fore
SplineSet
166.162109375 49 m 0xe0
 153.495117188 25 139.500976562 8.998046875 124.16796875 0.998046875 c 0
 115.500976562 -3.6689453125 107.333984375 -6.001953125 99.6669921875 -6.001953125 c 0
 92 -6.001953125 85.1669921875 -4.3349609375 79.1669921875 -1.001953125 c 0
 69.1669921875 4.3310546875 62.833984375 12.6640625 60.1669921875 23.9970703125 c 0
 58.1669921875 32.6640625 58.333984375 42.1640625 60.6669921875 52.4970703125 c 0
 63 62.830078125 66.8330078125 73.6630859375 72.166015625 84.99609375 c 0
 80.8330078125 105.663085938 109.166015625 153.99609375 157.166015625 229.99609375 c 1
 151.610351562 237.21875 148.83203125 245.831054688 148.83203125 255.83203125 c 0
 148.83203125 257.831054688 148.943359375 259.88671875 149.165039062 261.997070312 c 0
 149.165039062 262.6640625 149.498046875 263.331054688 150.165039062 263.998046875 c 0
 152.83203125 275.998046875 160.499023438 286.665039062 173.166015625 295.998046875 c 0
 183.833007812 304.665039062 196.166015625 311.33203125 210.166015625 315.999023438 c 1
 332.166015625 497.999023438 422.499023438 620.33203125 481.166015625 682.999023438 c 0
 495.166015625 696.999023438 507.499023438 707.33203125 518.166015625 713.999023438 c 0
 528.833007812 721.33203125 540.166015625 724.999023438 552.166015625 724.999023438 c 0
 555.499023438 724.999023438 558.166015625 725.33203125 560.166015625 725.999023438 c 0
 572.833007812 725.999023438 583.166015625 722.666015625 591.166015625 715.999023438 c 0
 601.965820312 708.798828125 607.366210938 697.818359375 607.366210938 683.05859375 c 0
 607.366210938 681.41796875 607.298828125 679.732421875 607.166015625 677.999023438 c 0xd0
 602.499023438 597.999023438 598.83203125 484.999023438 596.165039062 338.999023438 c 0
 595.403320312 292.51953125 595.022460938 253.061523438 595.022460938 220.625 c 0
 595.022460938 196.301757812 595.236328125 175.926757812 595.665039062 159.5 c 0
 596.665039062 121.166992188 598.498046875 97.6669921875 601.165039062 89 c 0
 603.248046875 81.5 604.290039062 74.259765625 604.290039062 67.2802734375 c 0
 604.290039062 63.09375 603.915039062 59 603.165039062 55 c 0
 602.498046875 53 601.831054688 50.6669921875 601.1640625 48 c 0
 597.1640625 36 590.997070312 25.8330078125 582.6640625 17.5 c 0
 574.331054688 9.1669921875 565.1640625 3 555.1640625 -1 c 0
 543.831054688 -4.3330078125 536.831054688 -6 534.1640625 -6 c 0
 526.1640625 -6 518.497070312 -3.6669921875 511.1640625 1 c 0
 498.497070312 9 490.830078125 24.6669921875 488.163085938 48 c 0
 486.080078125 61.333984375 485.038085938 92.767578125 485.038085938 142.301757812 c 0
 485.038085938 172.01953125 485.413085938 208.251953125 486.163085938 251 c 1
 407.49609375 247.666992188 335.829101562 241 271.162109375 231 c 1
 237.829101562 179 202.829101562 118.333007812 166.162109375 49 c 0xe0
335.16796875 331.998046875 m 1
 390.500976562 337.998046875 440.834960938 341.665039062 486.16796875 342.998046875 c 1
 491.16796875 567.998046875 l 1
 453.834960938 519.998046875 401.834960938 441.331054688 335.16796875 331.998046875 c 1
EndSplineSet
Validated: 1
EndChar

StartChar: B
Encoding: 66 66 41
Width: 640
GlyphClass: 2
Flags: HMW
HStem: -23 21G<137.009 144.341> 285.002 97.998 605.004 103.999<414.677 419.676>
LayerCount: 2
Fore
SplineSet
80.6748046875 42 m 0
 86.6748046875 61.3330078125 95.0087890625 94.00390625 105.67578125 140.00390625 c 0
 125.67578125 227.336914062 146.342773438 324.00390625 167.67578125 430.00390625 c 0
 176.342773438 473.336914062 182.342773438 502.50390625 185.67578125 517.50390625 c 0
 189.008789062 532.50390625 194.008789062 552.50390625 200.67578125 577.50390625 c 0
 207.342773438 602.50390625 212.009765625 619.670898438 214.676757812 629.00390625 c 0
 220.009765625 649.670898438 229.509765625 665.670898438 243.176757812 677.00390625 c 0
 256.84375 688.336914062 271.34375 694.00390625 286.676757812 694.00390625 c 2
 289.676757812 694.00390625 l 1
 307.676757812 699.336914062 329.34375 703.336914062 354.676757812 706.00390625 c 0
 365.34375 707.336914062 376.34375 708.169921875 387.676757812 708.502929688 c 0
 399.009765625 708.8359375 408.009765625 709.002929688 414.676757812 709.002929688 c 2
 434.676757812 709.002929688 l 1
 446.676757812 709.002929688 l 2
 494.009765625 709.002929688 534.676757812 700.669921875 568.676757812 684.002929688 c 0
 602.009765625 667.3359375 624.676757812 642.3359375 636.676757812 609.002929688 c 0
 644.295898438 589.955078125 648.10546875 569.166015625 648.10546875 546.634765625 c 0
 648.10546875 529.737304688 645.962890625 511.860351562 641.676757812 493.002929688 c 0
 633.009765625 455.002929688 616.342773438 422.002929688 591.67578125 394.002929688 c 0
 573.67578125 372.669921875 553.008789062 355.669921875 529.67578125 343.002929688 c 1
 542.342773438 336.3359375 554.009765625 328.668945312 564.676757812 320.001953125 c 0
 582.009765625 305.334960938 596.009765625 288.66796875 606.676757812 270.000976562 c 0
 614.434570312 256.424804688 618.313476562 243.026367188 618.313476562 229.802734375 c 0
 618.313476562 224.84375 617.767578125 219.91015625 616.676757812 215.000976562 c 0
 616.676757812 214.333984375 616.34375 214.000976562 615.676757812 214.000976562 c 0
 609.676757812 188.000976562 597.34375 162.333984375 578.676757812 137.000976562 c 0
 560.009765625 111.66796875 536.342773438 88.5009765625 507.67578125 67.5009765625 c 0
 479.008789062 46.5009765625 443.341796875 28.66796875 400.674804688 14.0009765625 c 0
 357.341796875 -0.666015625 311.674804688 -9.9990234375 263.674804688 -13.9990234375 c 1
 258.688476562 -10.7724609375 253.37890625 -9.1591796875 247.747070312 -9.1591796875 c 0
 240.579101562 -9.1591796875 232.888671875 -11.7724609375 224.674804688 -16.9990234375 c 1
 192.0078125 -19.666015625 171.674804688 -21.3330078125 163.674804688 -22 c 0
 155.674804688 -22.6669921875 148.0078125 -23 140.674804688 -23 c 0
 133.341796875 -23 126.674804688 -22.3330078125 120.674804688 -21 c 2
 118.674804688 -21 l 2
 103.341796875 -21 91.6748046875 -15.3330078125 83.6748046875 -4 c 0
 79.5078125 2.25 77.4248046875 9.671875 77.4248046875 18.265625 c 0
 77.4248046875 23.421875 78.1748046875 29 79.6748046875 35 c 0
 79.6748046875 37.6669921875 80.0078125 40 80.6748046875 42 c 0
273.67578125 402.00390625 m 0
 272.342773438 395.336914062 271.006835938 389 269.673828125 383 c 1
 297.006835938 382.333007812 321.673828125 381.833007812 343.673828125 381.5 c 0
 345.872070312 381.466796875 348.04296875 381.450195312 350.184570312 381.450195312 c 0
 369.4765625 381.450195312 386.47265625 382.799804688 401.173828125 385.5 c 0
 417.506835938 388.5 431.506835938 392.333007812 443.173828125 397 c 0
 454.840820312 401.666992188 465.5078125 407.333984375 475.174804688 414.000976562 c 0
 484.841796875 420.66796875 492.508789062 427.334960938 498.17578125 434.001953125 c 0
 503.842773438 440.668945312 509.17578125 448.168945312 514.17578125 456.501953125 c 0
 519.17578125 464.834960938 523.008789062 472.334960938 525.67578125 479.001953125 c 0
 528.342773438 485.668945312 530.342773438 492.668945312 531.67578125 500.001953125 c 0
 533.4296875 507.721679688 534.307617188 515.1640625 534.307617188 522.330078125 c 0
 534.307617188 528.778320312 533.596679688 535.002929688 532.17578125 541.002929688 c 0
 529.17578125 553.669921875 523.67578125 563.836914062 515.67578125 571.50390625 c 0
 507.67578125 579.170898438 498.342773438 585.670898438 487.67578125 591.00390625 c 0
 468.92578125 600.37890625 447.833007812 605.06640625 424.396484375 605.06640625 c 0
 422.833007812 605.06640625 421.259765625 605.045898438 419.67578125 605.00390625 c 0
 387.67578125 605.00390625 355.67578125 602.00390625 323.67578125 596.00390625 c 1
 320.342773438 584.00390625 315.67578125 566.00390625 309.67578125 542.00390625 c 0
 295.67578125 492.670898438 283.67578125 446.00390625 273.67578125 402.00390625 c 0
476.172851562 165.5 m 0
 487.83984375 178.5 494.674804688 189.670898438 496.674804688 199.00390625 c 0
 498.0078125 204.336914062 496.5078125 210.669921875 492.174804688 218.002929688 c 0
 487.841796875 225.3359375 479.841796875 233.168945312 468.174804688 241.501953125 c 0
 456.5078125 249.834960938 438.840820312 258.001953125 415.173828125 266.001953125 c 0
 391.506835938 274.001953125 364.006835938 280.334960938 332.673828125 285.001953125 c 1
 249.673828125 285.001953125 l 1
 231.006835938 193.001953125 217.33984375 124.668945312 208.672851562 80.001953125 c 1
 215.33984375 80.001953125 225.33984375 80.1689453125 238.672851562 80.501953125 c 0
 252.005859375 80.8349609375 263.005859375 81.3349609375 271.672851562 82.001953125 c 0
 301.672851562 83.3349609375 330.672851562 88.16796875 358.672851562 96.5009765625 c 0
 386.672851562 104.833984375 410.33984375 115.166992188 429.672851562 127.5 c 0
 449.005859375 139.833007812 464.505859375 152.5 476.172851562 165.5 c 0
EndSplineSet
Validated: 1
EndChar

StartChar: C
Encoding: 67 67 42
Width: 640
GlyphClass: 2
Flags: HMW
HStem: -30.9971 114.001<260.598 322.598 274.931 322.598> 608.005 104.996<553.598 554.598>
LayerCount: 2
Fore
SplineSet
729.930664062 692 m 0
 729.930664062 666 726.264648438 638.336914062 718.931640625 609.00390625 c 0
 714.264648438 589.00390625 711.264648438 577.00390625 709.931640625 573.00390625 c 0
 705.931640625 556.336914062 696.431640625 539.50390625 681.431640625 522.50390625 c 0
 666.431640625 505.50390625 652.264648438 496.336914062 638.931640625 495.00390625 c 0
 636.264648438 495.00390625 633.264648438 494.670898438 629.931640625 494.00390625 c 0
 618.598632812 494.00390625 608.598632812 498.00390625 599.931640625 506.00390625 c 0
 589.67578125 514.208984375 584.546875 524.583984375 584.546875 537.12890625 c 0
 584.546875 540.891601562 585.008789062 544.850585938 585.931640625 549.00390625 c 0
 587.264648438 553.670898438 590.59765625 565.670898438 595.930664062 585.00390625 c 1
 588.59765625 590.336914062 583.930664062 593.836914062 581.930664062 595.50390625 c 0
 579.930664062 597.170898438 576.930664062 599.337890625 572.930664062 602.004882812 c 0
 565.59765625 606.004882812 558.264648438 608.004882812 550.931640625 608.004882812 c 0
 532.264648438 608.004882812 510.264648438 602.004882812 484.931640625 590.004882812 c 0
 459.598632812 578.004882812 433.931640625 560.504882812 407.931640625 537.504882812 c 0
 381.931640625 514.504882812 356.764648438 488.171875 332.431640625 458.504882812 c 0
 308.098632812 428.837890625 286.431640625 395.170898438 267.431640625 357.50390625 c 0
 248.431640625 319.836914062 234.598632812 282.336914062 225.931640625 245.00390625 c 0
 222.754882812 230.88671875 221.166992188 217.001953125 221.166992188 203.3515625 c 0
 221.166992188 191.217773438 222.421875 179.268554688 224.931640625 167.50390625 c 0
 230.264648438 142.50390625 240.764648438 122.170898438 256.431640625 106.50390625 c 0
 272.098632812 90.8369140625 290.598632812 83.00390625 311.931640625 83.00390625 c 0
 333.264648438 83.00390625 354.264648438 85.1708984375 374.931640625 89.50390625 c 0
 395.598632812 93.8369140625 414.598632812 99.3369140625 431.931640625 106.00390625 c 0
 449.264648438 112.670898438 464.431640625 119.50390625 477.431640625 126.50390625 c 0
 490.431640625 133.50390625 502.598632812 140.670898438 513.931640625 148.00390625 c 0
 523.931640625 154.670898438 532.931640625 160.00390625 540.931640625 164.00390625 c 0
 548.931640625 168.00390625 557.431640625 169.836914062 566.431640625 169.50390625 c 0
 575.431640625 169.170898438 582.931640625 166.00390625 588.931640625 160.00390625 c 0
 597.494140625 151.44140625 601.775390625 141.641601562 601.775390625 130.60546875 c 0
 601.775390625 127.034179688 601.327148438 123.333984375 600.430664062 119.50390625 c 0
 596.763671875 103.836914062 585.263671875 86.669921875 565.930664062 68.0029296875 c 0
 497.284179688 1.99609375 404.45703125 -31.0068359375 287.450195312 -31.0068359375 c 0
 286.279296875 -31.0068359375 285.106445312 -31.00390625 283.930664062 -30.9970703125 c 2
 274.930664062 -30.9970703125 l 2
 246.263671875 -30.9970703125 219.930664062 -26.330078125 195.930664062 -16.9970703125 c 0
 172.59765625 -7.6640625 154.264648438 5.0029296875 140.931640625 21.0029296875 c 0
 127.598632812 37.0029296875 116.931640625 55.3359375 108.931640625 76.0029296875 c 0
 100.931640625 96.669921875 96.5986328125 118.669921875 95.931640625 142.002929688 c 0
 95.857421875 144.596679688 95.8203125 147.190429688 95.8203125 149.784179688 c 0
 95.8203125 170.5234375 98.1904296875 191.262695312 102.930664062 212.001953125 c 0
 114.263671875 260.001953125 129.763671875 306.501953125 149.430664062 351.501953125 c 0
 169.09765625 396.501953125 191.09765625 437.001953125 215.430664062 473.001953125 c 0
 239.763671875 509.001953125 266.596679688 542.334960938 295.9296875 573.001953125 c 0
 325.9296875 603.001953125 356.596679688 628.168945312 387.9296875 648.501953125 c 0
 419.262695312 668.834960938 450.262695312 684.66796875 480.9296875 696.000976562 c 0
 511.596679688 707.333984375 540.263671875 713.000976562 566.930664062 713.000976562 c 0
 588.263671875 713.000976562 607.930664062 711.333984375 625.930664062 708.000976562 c 1
 631.263671875 715.333984375 637.596679688 721.666992188 644.9296875 727 c 0
 655.596679688 735 666.263671875 739.333007812 676.930664062 740 c 0
 680.930664062 740.666992188 683.430664062 741 684.430664062 741 c 2
 685.930664062 741 l 2
 695.930664062 741 704.930664062 737.666992188 712.930664062 731 c 0
 724.263671875 721.666992188 729.930664062 708.666992188 729.930664062 692 c 0
EndSplineSet
Validated: 1
EndChar

StartChar: D
Encoding: 68 68 43
Width: 640
GlyphClass: 2
Flags: HMW
HStem: -31 110.001<320.803 378.138 336.136 378.138> 694 20G<269.139 287.805>
LayerCount: 2
Fore
SplineSet
273.638671875 86 m 0
 300.638671875 81.3330078125 332.805664062 79.0009765625 370.138671875 79.0009765625 c 0
 386.138671875 79.0009765625 402.805664062 84.66796875 420.138671875 96.0009765625 c 0
 437.471679688 107.333984375 453.3046875 122.166992188 467.637695312 140.5 c 0
 481.970703125 158.833007812 494.970703125 179.333007812 506.637695312 202 c 0
 518.3046875 224.666992188 526.471679688 246.666992188 531.138671875 268 c 0
 538.09765625 297.98828125 541.576171875 326.2265625 541.576171875 352.71484375 c 0
 541.576171875 432.810546875 509.763671875 496.905273438 446.138671875 545 c 0
 416.138671875 567.666992188 370.138671875 591 308.138671875 615 c 1
 287.471679688 533.666992188 268.471679688 448.666992188 251.138671875 360 c 0
 245.138671875 331.333007812 236.638671875 289.5 225.638671875 234.5 c 0
 214.638671875 179.5 206.138671875 137.333007812 200.138671875 108 c 1
 222.138671875 98 246.638671875 90.6669921875 273.638671875 86 c 0
71.1376953125 62 m 0
 77.8046875 84.6669921875 86.8056640625 120 98.138671875 168 c 0
 118.138671875 256 140.471679688 360.666992188 165.138671875 482 c 0
 172.471679688 518 177.471679688 541.833007812 180.138671875 553.5 c 0
 182.805664062 565.166992188 187.47265625 583 194.139648438 607 c 0
 199.24609375 625.380859375 202.591796875 637.896484375 204.178710938 644.545898438 c 0
 204.283203125 645.229492188 204.603515625 647.046875 205.140625 649.999023438 c 0
 210.473632812 670.666015625 219.806640625 686.333007812 233.139648438 697 c 0
 246.47265625 708.333007812 261.139648438 714 277.139648438 714 c 0
 298.47265625 714 325.47265625 710.666992188 358.139648438 704 c 0
 378.806640625 700 399.806640625 694.5 421.139648438 687.5 c 0
 442.47265625 680.5 464.805664062 670.666992188 488.138671875 658 c 0
 511.471679688 645.333007812 533.138671875 630.833007812 553.138671875 614.5 c 0
 573.138671875 598.166992188 591.138671875 577.333984375 607.138671875 552.000976562 c 0
 621.805664062 527.333984375 633.138671875 500.166992188 641.138671875 470.5 c 0
 648.5234375 443.116210938 652.215820312 411.1875 652.215820312 374.715820312 c 0
 652.215820312 371.67578125 652.190429688 368.603515625 652.138671875 365.5 c 0
 651.471679688 325.166992188 645.8046875 281.666992188 635.137695312 235 c 0
 629.8046875 211.666992188 621.3046875 187.666992188 609.637695312 163 c 0
 597.970703125 138.333007812 583.303710938 114.666015625 565.63671875 91.9990234375 c 0
 547.969726562 69.33203125 528.469726562 48.83203125 507.13671875 30.4990234375 c 0
 485.803710938 12.166015625 461.13671875 -2.6669921875 433.13671875 -14 c 0
 405.979492188 -25.3681640625 378.522460938 -31.052734375 350.767578125 -31.052734375 c 0
 349.224609375 -31.052734375 347.681640625 -31.03515625 346.13671875 -31 c 2
 336.13671875 -31 l 2
 305.469726562 -31 275.13671875 -29.5 245.13671875 -26.5 c 0
 215.13671875 -23.5 191.13671875 -20 173.13671875 -16 c 0
 155.803710938 -12 141.470703125 -8.3330078125 130.137695312 -5 c 0
 118.8046875 -1.6669921875 111.8046875 0 109.137695312 0 c 0
 93.8046875 0 82.1376953125 5.6669921875 74.1376953125 17 c 0
 69.6923828125 23.6669921875 67.470703125 31.51953125 67.470703125 40.556640625 c 0
 67.470703125 45.0751953125 68.025390625 49.8896484375 69.13671875 55 c 0
 69.8037109375 57.6669921875 70.470703125 60 71.1376953125 62 c 0
204.6796875 646.7109375 m 1
 204.892578125 647.672851562 205.046875 648.435546875 205.140625 649 c 1
 204.962890625 648.11328125 204.809570312 647.349609375 204.6796875 646.7109375 c 1
EndSplineSet
Validated: 1
EndChar

StartChar: E
Encoding: 69 69 44
Width: 640
GlyphClass: 2
Flags: HMW
HStem: -20 115 -6 115<490.208 549.873 497.208 549.873> 301 108.999 319 106<572.541 611.206> 589.998 107.998<488.538 519.206 469.206 540.872>
VStem: 211.207 1<640 640>
LayerCount: 2
Fore
SplineSet
287.205078125 704 m 2x8c
 302.538085938 704 314.206054688 698.663085938 322.206054688 687.99609375 c 1
 377.5390625 694.663085938 446.872070312 697.99609375 530.205078125 697.99609375 c 0
 551.538085938 697.99609375 571.87109375 697.663085938 591.204101562 696.99609375 c 0
 629.87109375 695.663085938 659.538085938 693.663085938 680.205078125 690.99609375 c 0
 696.872070312 688.99609375 708.0390625 683.829101562 713.706054688 675.49609375 c 0
 717.559570312 669.830078125 719.486328125 662.853515625 719.486328125 654.56640625 c 0
 719.486328125 650.666015625 719.059570312 646.4765625 718.206054688 641.99609375 c 0
 716.873046875 634.663085938 714.706054688 627.830078125 711.706054688 621.497070312 c 0
 708.706054688 615.1640625 704.873046875 609.331054688 700.206054688 603.998046875 c 0
 694.873046875 597.331054688 687.873046875 591.998046875 679.206054688 587.998046875 c 0
 673.206054688 585.998046875 666.873046875 584.998046875 660.206054688 584.998046875 c 2
 653.206054688 584.998046875 l 2
 611.206054688 588.331054688 566.5390625 589.998046875 519.206054688 589.998046875 c 2
 469.206054688 589.998046875 l 2
 409.873046875 588.665039062 357.873046875 585.33203125 313.206054688 579.999023438 c 1
 297.206054688 522.666015625 282.873046875 465.999023438 270.206054688 409.999023438 c 1
 318.206054688 410.666015625 383.5390625 413.333007812 466.206054688 418 c 0
 546.873046875 422.666992188 592.206054688 425 602.206054688 425 c 0
 620.206054688 425 632.0390625 420.333007812 637.706054688 411 c 0
 641.274414062 405.123046875 643.05859375 398.321289062 643.05859375 390.59375 c 0
 643.05859375 386.049804688 642.44140625 381.184570312 641.20703125 376 c 2
 641.20703125 375 l 2
 637.874023438 359 631.541015625 346.666992188 622.208007812 338 c 0
 610.208007812 325.333007812 595.541015625 319 578.208007812 319 c 0x9c
 566.875 319 518.208007812 316.333007812 432.208007812 311 c 0
 344.208007812 305 282.208007812 301.666992188 246.208007812 301 c 1
 242.875 285 239.375 269 235.708007812 253 c 0
 232.041015625 237 228.541015625 220.333007812 225.208007812 203 c 0
 215.208007812 158.333007812 209.208007812 127.333007812 207.208007812 110 c 0
 206.541015625 104 205.874023438 99 205.20703125 95 c 1xac
 217.20703125 93.6669921875 235.540039062 92.833984375 260.20703125 92.5009765625 c 0
 265.137695312 92.4345703125 270.321289062 92.4013671875 275.7578125 92.4013671875 c 0
 297.51953125 92.4013671875 323.3359375 92.9345703125 353.20703125 94.0009765625 c 0
 440.540039062 97.333984375 496.20703125 101.666992188 520.20703125 107 c 0
 530.20703125 108.333007812 538.874023438 109 546.20703125 109 c 0
 553.540039062 109 559.70703125 107.333007812 564.70703125 104 c 0
 569.70703125 100.666992188 573.70703125 97.1669921875 576.70703125 93.5 c 0
 579.70703125 89.8330078125 581.540039062 85.3330078125 582.20703125 80 c 0
 582.874023438 74.6669921875 583.20703125 70 583.20703125 66 c 0
 583.20703125 62 582.874023438 57.6669921875 582.20703125 53 c 0
 578.874023438 37.6669921875 570.541015625 23.6669921875 557.208007812 11 c 0
 545.208007812 -0.3330078125 531.208007812 -6.3330078125 515.208007812 -7 c 1
 512.541015625 1.6669921875 507.541015625 2 500.208007812 -6 c 1
 497.208007812 -6 l 2x4c
 483.208007812 -6 456.208007812 -7.3330078125 416.208007812 -10 c 0
 374.875 -12.6669921875 332.541992188 -15 289.208984375 -17 c 0
 245.875976562 -19 213.208984375 -20 191.208984375 -20 c 0
 169.875976562 -20 152.875976562 -19.3330078125 140.208984375 -18 c 0
 123.541992188 -16.6669921875 108.875 -8 96.2080078125 8 c 0
 85.744140625 20.666015625 80.5126953125 35.8349609375 80.5126953125 53.505859375 c 0
 80.5126953125 57.2265625 80.744140625 61.0576171875 81.2080078125 65 c 0
 82.541015625 81 87.8740234375 109 97.20703125 149 c 0
 105.874023438 185.666992188 114.70703125 222.5 123.70703125 259.5 c 0
 132.70703125 296.5 140.20703125 328 146.20703125 354 c 0
 152.20703125 380 159.540039062 415.666992188 168.20703125 461 c 0
 176.20703125 499.666992188 181.70703125 525.5 184.70703125 538.5 c 0
 187.70703125 551.5 192.540039062 570 199.20703125 594 c 0
 205.201171875 615.578125 209.0390625 630.150390625 210.721679688 637.716796875 c 1
 210.010742188 634.133789062 210.504882812 634.89453125 212.20703125 640 c 0
 217.540039062 660.666992188 226.873046875 676.5 240.206054688 687.5 c 0
 253.5390625 698.5 267.872070312 704 283.205078125 704 c 2
 287.205078125 704 l 2x8c
210.721679688 637.716796875 m 1
 210.846679688 638.344726562 211.008789062 639.10546875 211.20703125 640 c 1
 211.072265625 639.327148438 210.911132812 638.56640625 210.721679688 637.716796875 c 1
EndSplineSet
Validated: 1
EndChar

StartChar: F
Encoding: 70 70 45
Width: 640
GlyphClass: 2
Flags: HMW
HStem: -21.002 21G<104.615 112.283 112.283 115.283> 313.498 106.502 597 110<522.615 562.615> 694 20G<285.282 290.282 290.282 298.282>
LayerCount: 2
Fore
SplineSet
290.282226562 714 m 2xd0
 306.282226562 714 317.94921875 708.666992188 325.282226562 698 c 1
 406.615234375 704 484.948242188 707 560.28125 707 c 0
 609.614257812 707 649.947265625 705.333007812 681.280273438 702 c 0
 697.947265625 700.666992188 709.114257812 695.666992188 714.78125 687 c 0
 718.969726562 680.59375 721.063476562 672.548828125 721.063476562 662.865234375 c 0
 721.063476562 659.447265625 720.802734375 655.825195312 720.28125 651.999023438 c 0
 718.28125 643.33203125 717.948242188 643.33203125 719.28125 651.999023438 c 1
 715.948242188 636.666015625 708.615234375 623.333007812 697.282226562 612 c 0
 685.94921875 600.666992188 671.282226562 595 653.282226562 595 c 2
 651.282226562 595 l 2
 617.94921875 596.333007812 581.94921875 597 543.282226562 597 c 0xe0
 471.282226562 597 395.282226562 594.333007812 315.282226562 589 c 1
 312.615234375 579 308.282226562 563.666992188 302.282226562 543 c 0
 291.615234375 503.666992188 282.615234375 467 275.282226562 433 c 0
 273.94921875 427 272.616210938 421.333007812 271.283203125 416 c 1
 297.283203125 418.666992188 325.283203125 420 355.283203125 420 c 0
 363.283203125 420 371.283203125 419.666992188 379.283203125 419 c 0
 423.283203125 418.333007812 462.950195312 416.666015625 498.283203125 413.999023438 c 0
 534.283203125 411.33203125 561.116210938 408.165039062 578.783203125 404.498046875 c 0
 596.450195312 400.831054688 607.950195312 395.1640625 613.283203125 387.497070312 c 0
 617.162109375 381.920898438 619.1015625 374.846679688 619.1015625 366.2734375 c 0
 619.1015625 363.05859375 618.829101562 359.6328125 618.283203125 355.997070312 c 1
 618.283203125 356.6640625 617.950195312 356.6640625 617.283203125 355.997070312 c 0
 613.950195312 341.997070312 608.283203125 329.6640625 600.283203125 318.997070312 c 0
 594.950195312 312.330078125 587.6171875 307.330078125 578.284179688 303.997070312 c 0
 572.284179688 301.997070312 565.951171875 300.997070312 559.284179688 300.997070312 c 2
 552.284179688 300.997070312 l 2
 534.284179688 304.330078125 507.284179688 307.330078125 471.284179688 309.997070312 c 0
 436.909179688 312.368164062 401.348632812 313.553710938 364.603515625 313.553710938 c 0
 360.014648438 313.553710938 355.408203125 313.53515625 350.783203125 313.498046875 c 0
 309.116210938 313.165039062 274.616210938 311.665039062 247.283203125 308.998046875 c 1
 229.950195312 222.331054688 211.950195312 130.998046875 193.283203125 34.998046875 c 0
 187.283203125 16.998046875 175.616210938 2.998046875 158.283203125 -7.001953125 c 0
 144.283203125 -16.3349609375 129.950195312 -21.001953125 115.283203125 -21.001953125 c 2
 112.283203125 -21.001953125 l 2
 96.9501953125 -21.001953125 85.283203125 -15.3349609375 77.283203125 -4.001953125 c 0
 73.1162109375 2.248046875 71.033203125 9.669921875 71.033203125 18.263671875 c 0
 71.033203125 23.419921875 71.783203125 28.998046875 73.283203125 34.998046875 c 0
 73.9501953125 36.998046875 74.283203125 39.3310546875 74.283203125 41.998046875 c 0
 80.283203125 62.6650390625 89.283203125 97.33203125 101.283203125 145.999023438 c 0
 122.616210938 237.999023438 143.94921875 339.666015625 165.282226562 450.999023438 c 0
 173.94921875 494.33203125 180.116210938 523.499023438 183.783203125 538.499023438 c 0
 187.450195312 553.499023438 192.783203125 573.499023438 199.783203125 598.499023438 c 0
 206.783203125 623.499023438 211.283203125 640.666015625 213.283203125 649.999023438 c 0
 218.616210938 670.666015625 227.94921875 686.333007812 241.282226562 697 c 0
 254.615234375 708.333007812 269.282226562 714 285.282226562 714 c 2
 290.282226562 714 l 2xd0
EndSplineSet
Validated: 1
EndChar

StartChar: G
Encoding: 71 71 46
Width: 640
GlyphClass: 2
Flags: HMW
HStem: -31 114<260.857 318.188> 619 105<555.523 556.52>
LayerCount: 2
Fore
SplineSet
94.1845703125 142 m 2
 94.1845703125 150 l 2
 94.1845703125 171 96.1845703125 191 101.184570312 212 c 0
 112.184570312 261 128.184570312 308 148.184570312 354 c 0
 168.184570312 400 190.184570312 442 215.184570312 479 c 0
 240.184570312 516 267.184570312 549 296.184570312 580 c 0
 327.184570312 611 358.184570312 637 389.184570312 658 c 0
 420.184570312 679 450.184570312 695 481.184570312 706 c 0
 512.184570312 718 542.184570312 724 570.184570312 724 c 0
 598.184570312 724 628.184570312 717 659.184570312 704 c 0
 690.184570312 690 709.184570312 678 717.184570312 667 c 0
 723.184570312 658 726.184570312 649 726.184570312 639 c 0
 726.184570312 634 725.184570312 629 724.184570312 624 c 0
 722.184570312 616 719.184570312 607 714.184570312 598 c 0
 708.184570312 586 698.184570312 577 684.184570312 572 c 0
 677.184570312 569 671.184570312 568 664.184570312 568 c 0
 657.184570312 568 652.184570312 569 648.184570312 571 c 0
 644.184570312 573 635.184570312 578 623.184570312 587 c 0
 611.184570312 596 599.184570312 604 586.184570312 610 c 0
 573.184570312 616 562.184570312 619 551.184570312 619 c 0
 532.184570312 619 511.184570312 613 486.184570312 601 c 0
 461.184570312 589 435.184570312 571 408.184570312 547 c 0
 381.184570312 523 356.184570312 496 332.184570312 465 c 0
 308.184570312 434 286.184570312 400 267.184570312 361 c 0
 248.184570312 322 233.184570312 284 224.184570312 245 c 0
 221.184570312 231 219.184570312 217 219.184570312 203 c 0
 219.184570312 191 220.184570312 180 223.184570312 168 c 0
 228.184570312 143 239.184570312 123 255.184570312 107 c 0
 271.184570312 91 290.184570312 83 311.184570312 83 c 0
 325.184570312 83 341.184570312 88 358.184570312 97 c 0
 375.184570312 106 393.184570312 117 409.184570312 132 c 0
 425.184570312 147 441.184570312 163 457.184570312 182 c 0
 482.184570312 211 503.184570312 240 520.184570312 270 c 1
 484.184570312 268 447.184570312 265 409.184570312 260 c 0
 371.184570312 255 344.184570312 248 328.184570312 241 c 0
 320.184570312 237 313.184570312 235 305.184570312 235 c 0
 297.184570312 235 290.184570312 237 283.184570312 242 c 0
 273.184570312 249 268.184570312 259 268.184570312 270 c 2
 268.184570312 276 l 2
 268.184570312 279 268.184570312 283 269.184570312 286 c 0
 272.184570312 300 280.184570312 313 293.184570312 324 c 0
 302.184570312 332 314.184570312 339 329.184570312 345 c 0
 352.184570312 355 396.184570312 362 461.184570312 367 c 0
 508.184570312 370 546.184570312 372 577.184570312 373 c 0
 588.184570312 373 599.184570312 373 608.184570312 372 c 0
 625.184570312 371 637.184570312 367 644.184570312 360 c 0
 650.184570312 354 653.184570312 346 653.184570312 335 c 0
 653.184570312 330 652.184570312 325 651.184570312 319 c 0
 646.184570312 299 636.184570312 285 619.184570312 276 c 1
 615.184570312 264 l 2
 614.184570312 261 612.184570312 255 610.184570312 247 c 0
 600.184570312 218 579.184570312 182 547.184570312 138 c 0
 532.184570312 117 514.184570312 97 494.184570312 76 c 0
 473.184570312 56 451.184570312 38 428.184570312 22 c 0
 405.184570312 6 381.184570312 -6 354.184570312 -16 c 0
 327.184570312 -26 301.184570312 -31 276.184570312 -31 c 0
 245.184570312 -31 218.184570312 -26 195.184570312 -17 c 0
 172.184570312 -8 154.184570312 5 140.184570312 21 c 0
 126.184570312 37 115.184570312 55 107.184570312 76 c 0
 99.1845703125 97 95.1845703125 119 94.1845703125 142 c 2
EndSplineSet
Validated: 1
EndChar

StartChar: H
Encoding: 72 72 47
Width: 640
GlyphClass: 2
Flags: HMW
HStem: -21 21G<111.867 119.534 119.534 122.534> 312 86.0049 694.005 20G<301.534 305.534 305.534 312.867>
LayerCount: 2
Fore
SplineSet
79.533203125 34 m 0
 80.2001953125 36.6669921875 81.2021484375 39.3369140625 82.53515625 42.00390625 c 0
 87.8681640625 60.00390625 98.53515625 104.336914062 114.53515625 175.00390625 c 0
 123.868164062 215.670898438 136.03515625 265.170898438 151.03515625 323.50390625 c 2
 178.03515625 428.50390625 l 2
 181.03515625 440.170898438 183.868164062 451.837890625 186.53515625 463.504882812 c 0
 189.202148438 475.171875 193.369140625 494.671875 199.036132812 522.004882812 c 0
 204.703125 549.337890625 208.703125 567.504882812 211.036132812 576.504882812 c 0
 213.369140625 585.504882812 215.702148438 594.671875 218.03515625 604.004882812 c 0
 220.368164062 613.337890625 221.868164062 619.170898438 222.53515625 621.50390625 c 0
 223.202148438 623.836914062 223.869140625 626.50390625 224.536132812 629.50390625 c 0
 225.203125 632.50390625 226.036132812 635.50390625 227.036132812 638.50390625 c 0
 228.036132812 641.50390625 228.869140625 644.170898438 229.536132812 646.50390625 c 2
 230.536132812 650.00390625 l 2
 235.869140625 670.670898438 245.202148438 686.337890625 258.53515625 697.004882812 c 0
 271.868164062 708.337890625 286.201171875 714.004882812 301.534179688 714.004882812 c 2
 305.534179688 714.004882812 l 2
 320.201171875 714.004882812 331.868164062 709.337890625 340.53515625 700.004882812 c 0
 347.056640625 693.047851562 350.317382812 683.681640625 350.317382812 671.904296875 c 0
 350.317382812 665.624023438 349.389648438 658.657226562 347.53515625 651.004882812 c 0
 346.202148438 643.671875 342.03515625 629.004882812 335.03515625 607.004882812 c 0
 328.03515625 585.004882812 322.53515625 565.171875 318.53515625 547.504882812 c 0
 314.53515625 529.837890625 309.202148438 505.004882812 302.53515625 473.004882812 c 0
 295.868164062 441.004882812 290.53515625 416.004882812 286.53515625 398.004882812 c 1
 341.202148438 398.671875 407.869140625 404.671875 486.536132812 416.004882812 c 0
 509.869140625 419.337890625 528.202148438 421.670898438 541.53515625 423.00390625 c 0
 542.202148438 425.670898438 543.03515625 430.170898438 544.03515625 436.50390625 c 0
 545.03515625 442.836914062 548.03515625 457.669921875 553.03515625 481.002929688 c 0
 558.03515625 504.3359375 562.03515625 522.502929688 565.03515625 535.502929688 c 0
 568.03515625 548.502929688 573.202148438 569.002929688 580.53515625 597.002929688 c 0
 587.868164062 625.002929688 592.53515625 642.002929688 594.53515625 648.002929688 c 0
 599.868164062 669.3359375 609.53515625 685.668945312 623.53515625 697.001953125 c 0
 637.53515625 708.334960938 651.868164062 714.001953125 666.53515625 714.001953125 c 2
 670.53515625 714.001953125 l 2
 685.868164062 714.001953125 697.53515625 709.334960938 705.53515625 700.001953125 c 0
 711.756835938 692.890625 714.868164062 683.41015625 714.868164062 671.55859375 c 0
 714.868164062 665.631835938 714.08984375 659.11328125 712.534179688 652.001953125 c 0
 709.8671875 639.334960938 703.534179688 614.334960938 693.534179688 577.001953125 c 0
 681.534179688 530.334960938 671.3671875 488.501953125 663.034179688 451.501953125 c 0
 654.701171875 414.501953125 648.201171875 385.168945312 643.534179688 363.501953125 c 0
 638.8671875 341.834960938 634.8671875 321.66796875 631.534179688 303.000976562 c 0
 622.8671875 266.333984375 610.8671875 219.500976562 595.534179688 162.500976562 c 0
 580.201171875 105.500976562 570.201171875 65.66796875 565.534179688 43.0009765625 c 2
 563.534179688 35.0009765625 l 2
 558.201171875 17.0009765625 547.201171875 3.0009765625 530.534179688 -6.9990234375 c 0
 516.534179688 -16.33203125 502.201171875 -20.9990234375 487.534179688 -20.9990234375 c 2
 484.534179688 -20.9990234375 l 2
 469.201171875 -20.9990234375 457.534179688 -15.33203125 449.534179688 -3.9990234375 c 0
 444.7890625 2.9033203125 442.416992188 10.921875 442.416992188 20.056640625 c 0
 442.416992188 25.0390625 443.122070312 30.3544921875 444.534179688 36.0009765625 c 0
 445.201171875 38.0009765625 445.534179688 40.333984375 445.534179688 43.0009765625 c 0
 470.8671875 126.333984375 495.534179688 219.666992188 519.534179688 323 c 2
 523.534179688 341 l 1
 502.201171875 339 461.534179688 333.833007812 401.534179688 325.5 c 0
 341.534179688 317.166992188 295.534179688 312.666992188 263.534179688 312 c 1
 262.201171875 307.333007812 261.534179688 304.333007812 261.534179688 303 c 0
 251.534179688 269.666992188 241.3671875 231 231.034179688 187 c 0
 220.701171875 143 210.201171875 92.6669921875 199.534179688 36 c 0
 192.8671875 17.3330078125 181.534179688 3 165.534179688 -7 c 0
 151.534179688 -16.3330078125 137.201171875 -21 122.534179688 -21 c 2
 119.534179688 -21 l 2
 104.201171875 -21 92.5341796875 -15.3330078125 84.5341796875 -4 c 0
 80.0888671875 2.6669921875 77.8671875 10.51953125 77.8671875 19.556640625 c 0
 77.8671875 24.0751953125 78.421875 28.8896484375 79.533203125 34 c 0
EndSplineSet
Validated: 1
EndChar

StartChar: I
Encoding: 73 73 48
Width: 640
GlyphClass: 2
Flags: HMW
HStem: -11.002 103<518.82 530.32 518.82 518.82> -6.00098 97.999<415.487 539.824> 600.997 108.999<308.824 492.49 316.824 492.49>
LayerCount: 2
Fore
SplineSet
202.8203125 -12 m 1x60
 161.487304688 -13.3330078125 133.16015625 -14.001953125 117.827148438 -14.001953125 c 0
 99.16015625 -14.001953125 85.8271484375 -9.6689453125 77.8271484375 -1.001953125 c 0
 71.5673828125 5.2578125 68.4375 12.908203125 68.4375 21.9501953125 c 0
 68.4375 25.4267578125 68.900390625 29.109375 69.826171875 32.998046875 c 2
 69.826171875 35.998046875 l 2
 72.4931640625 49.3310546875 79.826171875 60.8310546875 91.826171875 70.498046875 c 0
 103.826171875 80.1650390625 119.159179688 85.6650390625 137.826171875 86.998046875 c 1
 139.159179688 92.3310546875 139.4921875 92.3310546875 138.825195312 86.998046875 c 1
 164.158203125 88.3310546875 208.825195312 89.6640625 272.825195312 90.9970703125 c 1
 293.4921875 160.330078125 312.4921875 232.663085938 329.825195312 307.99609375 c 0
 339.158203125 347.329101562 347.825195312 386.99609375 355.825195312 426.99609375 c 0
 361.158203125 455.663085938 367.491210938 486.663085938 374.82421875 519.99609375 c 0
 376.157226562 527.329101562 377.657226562 534.329101562 379.32421875 540.99609375 c 0
 380.991210938 547.663085938 383.82421875 557.830078125 387.82421875 571.497070312 c 0
 391.82421875 585.1640625 394.82421875 594.997070312 396.82421875 600.997070312 c 1
 316.82421875 600.997070312 l 2
 300.82421875 600.997070312 284.157226562 600.6640625 266.82421875 599.997070312 c 2
 264.82421875 599.997070312 l 2
 247.491210938 599.997070312 234.82421875 604.6640625 226.82421875 613.997070312 c 0
 220.82421875 620.997070312 217.82421875 629.68359375 217.82421875 640.05859375 c 0
 217.82421875 643.516601562 218.157226562 647.163085938 218.82421875 650.99609375 c 0
 218.82421875 651.663085938 219.157226562 652.663085938 219.82421875 653.99609375 c 0
 223.157226562 667.99609375 230.82421875 680.49609375 242.82421875 691.49609375 c 0
 254.82421875 702.49609375 270.491210938 707.99609375 289.82421875 707.99609375 c 0
 343.82421875 709.329101562 395.157226562 709.99609375 443.82421875 709.99609375 c 0
 541.157226562 709.99609375 620.157226562 706.99609375 680.82421875 700.99609375 c 0
 694.82421875 699.663085938 705.491210938 695.330078125 712.82421875 687.997070312 c 0
 719.701171875 681.120117188 723.139648438 672.071289062 723.139648438 660.850585938 c 0
 723.139648438 656.84375 722.701171875 652.559570312 721.82421875 647.998046875 c 0
 718.491210938 633.331054688 711.158203125 619.6640625 699.825195312 606.997070312 c 0
 693.825195312 599.6640625 686.158203125 593.997070312 676.825195312 589.997070312 c 0
 670.825195312 587.997070312 665.158203125 586.6640625 659.825195312 585.997070312 c 0
 656.4921875 585.997070312 653.159179688 586.330078125 649.826171875 586.997070312 c 0
 633.826171875 589.6640625 591.493164062 593.331054688 522.826171875 597.998046875 c 1
 520.826171875 590.665039062 517.493164062 577.33203125 512.826171875 557.999023438 c 0
 508.159179688 539.33203125 504.4921875 524.999023438 501.825195312 514.999023438 c 0
 499.158203125 504.999023438 496.491210938 494.666015625 493.82421875 483.999023438 c 0
 484.491210938 443.999023438 477.32421875 411.33203125 472.32421875 385.999023438 c 0
 467.32421875 360.666015625 461.657226562 334.666015625 455.32421875 307.999023438 c 0
 448.991210938 281.33203125 439.32421875 243.665039062 426.32421875 194.998046875 c 0
 413.32421875 146.331054688 404.491210938 112.331054688 399.82421875 92.998046875 c 1
 426.491210938 92.998046875 447.82421875 92.6650390625 463.82421875 91.998046875 c 2
 539.82421875 91.998046875 l 1
 541.157226562 97.3310546875 541.490234375 97.3310546875 540.823242188 91.998046875 c 1xa0
 542.15625 97.3310546875 542.489257812 97.3310546875 541.822265625 91.998046875 c 1
 543.155273438 97.3310546875 543.48828125 97.3310546875 542.821289062 91.998046875 c 1x60
 544.154296875 97.3310546875 544.487304688 97.3310546875 543.8203125 91.998046875 c 1
 561.8203125 91.998046875 573.653320312 87.498046875 579.3203125 78.498046875 c 0
 583.173828125 72.3779296875 585.100585938 65.1025390625 585.100585938 56.6708984375 c 0
 585.100585938 52.7021484375 584.673828125 48.478515625 583.8203125 43.998046875 c 0
 582.487304688 37.3310546875 580.487304688 30.998046875 577.8203125 24.998046875 c 0
 575.153320312 18.998046875 571.486328125 12.998046875 566.819335938 6.998046875 c 0
 560.819335938 -0.3349609375 553.486328125 -5.3349609375 544.819335938 -8.001953125 c 0
 539.486328125 -10.001953125 534.653320312 -11.001953125 530.3203125 -11.001953125 c 2
 518.8203125 -11.001953125 l 2xa0
 502.8203125 -8.3349609375 475.153320312 -6.66796875 435.8203125 -6.0009765625 c 0
 395.153320312 -6.0009765625 357.8203125 -6.66796875 323.8203125 -8.0009765625 c 1
 307.708007812 -5.22265625 291.306640625 -3.833984375 274.616210938 -3.833984375 c 0
 251.250976562 -3.833984375 227.319335938 -6.5556640625 202.8203125 -12 c 1x60
EndSplineSet
Validated: 1
EndChar

StartChar: J
Encoding: 74 74 49
Width: 640
GlyphClass: 2
Flags: HMW
HStem: -34.998 125.999<298.813 304.482> 600.001 109.999<422.147 452.148>
LayerCount: 2
Fore
SplineSet
480.1484375 217 m 0
 442.815429688 101 403.48046875 26.3349609375 362.147460938 -6.998046875 c 0
 340.147460938 -25.6650390625 316.814453125 -34.998046875 292.147460938 -34.998046875 c 0
 267.48046875 -34.998046875 244.48046875 -30.6650390625 223.147460938 -21.998046875 c 0
 201.814453125 -13.3310546875 184.147460938 -2.3310546875 170.147460938 11.001953125 c 0
 157.48046875 25.001953125 146.313476562 40.1689453125 136.646484375 56.501953125 c 0
 126.979492188 72.8349609375 119.479492188 89.001953125 114.146484375 105.001953125 c 0
 108.813476562 121.001953125 105.146484375 135.501953125 103.146484375 148.501953125 c 0
 101.646484375 158.251953125 100.896484375 166.782226562 100.896484375 174.094726562 c 0
 100.896484375 176.532226562 100.979492188 178.834960938 101.146484375 181.001953125 c 0
 101.146484375 188.334960938 102.646484375 196.501953125 105.646484375 205.501953125 c 0
 108.646484375 214.501953125 112.146484375 223.001953125 116.146484375 231.001953125 c 0
 120.813476562 241.001953125 127.646484375 249.501953125 136.646484375 256.501953125 c 0
 145.646484375 263.501953125 156.146484375 268.334960938 168.146484375 271.001953125 c 0
 172.146484375 271.668945312 176.146484375 271.668945312 180.146484375 271.001953125 c 0
 192.813476562 271.001953125 202.146484375 267.001953125 208.146484375 259.001953125 c 0
 213.479492188 251.890625 216.146484375 243.446289062 216.146484375 233.66796875 c 0
 216.146484375 228.779296875 215.479492188 223.556640625 214.146484375 218.000976562 c 0
 212.864257812 212.103515625 212.223632812 205.6640625 212.223632812 198.682617188 c 0
 212.223632812 187.510742188 213.864257812 174.950195312 217.146484375 161.000976562 c 0
 219.813476562 148.333984375 224.313476562 136.833984375 230.646484375 126.500976562 c 0
 236.979492188 116.16796875 246.8125 107.66796875 260.145507812 101.000976562 c 0
 273.478515625 94.333984375 289.478515625 91.0009765625 308.145507812 91.0009765625 c 0
 308.8125 91.0009765625 309.8125 91.333984375 311.145507812 92.0009765625 c 0
 315.8125 95.333984375 321.479492188 103.000976562 328.146484375 115.000976562 c 0
 343.479492188 143.000976562 358.479492188 186.333984375 373.146484375 245.000976562 c 2
 373.646484375 247.000976562 l 2
 373.979492188 248.333984375 375.479492188 255.166992188 378.146484375 267.5 c 0
 380.813476562 279.833007812 387.813476562 313 399.146484375 367 c 0
 415.813476562 447.666992188 433.48046875 525.333984375 452.147460938 600.000976562 c 1
 417.48046875 601.000976562 384.897460938 601.500976562 354.397460938 601.500976562 c 0
 323.897460938 601.500976562 295.48046875 601.000976562 269.147460938 600.000976562 c 2
 267.147460938 600.000976562 l 2
 249.814453125 600.000976562 237.147460938 604.66796875 229.147460938 614.000976562 c 0
 223.5 620.588867188 220.676757812 628.671875 220.676757812 638.25 c 0
 220.676757812 642.240234375 221.166992188 646.490234375 222.147460938 651 c 2
 222.147460938 654 l 2
 225.48046875 668 233.313476562 680.5 245.646484375 691.5 c 0
 257.979492188 702.5 273.479492188 708 292.146484375 708 c 0
 346.813476562 709.333007812 398.146484375 710 446.146484375 710 c 0
 543.479492188 710 622.479492188 707 683.146484375 701 c 0
 697.146484375 699.666992188 707.479492188 695.333984375 714.146484375 688.000976562 c 0
 721.405273438 680.7421875 725.034179688 671.063476562 725.034179688 658.965820312 c 0
 725.034179688 655.508789062 724.73828125 651.854492188 724.145507812 648.001953125 c 0
 720.8125 633.334960938 713.479492188 619.66796875 702.146484375 607.000976562 c 0
 696.146484375 599.66796875 688.479492188 594.000976562 679.146484375 590.000976562 c 0
 673.146484375 588.000976562 667.479492188 586.66796875 662.146484375 586.000976562 c 0
 658.813476562 586.000976562 655.146484375 586.333984375 651.146484375 587.000976562 c 0
 632.479492188 590.333984375 603.146484375 593.333984375 563.146484375 596.000976562 c 1
 559.813476562 579.333984375 548.48046875 521.000976562 529.147460938 421.000976562 c 0
 523.814453125 393.66796875 518.981445312 370.66796875 514.6484375 352.000976562 c 0
 510.315429688 333.333984375 507.815429688 321.666992188 507.1484375 317 c 0
 497.1484375 275 488.1484375 241.666992188 480.1484375 217 c 0
EndSplineSet
Validated: 1
EndChar

StartChar: K
Encoding: 75 75 50
Width: 640
GlyphClass: 2
Flags: HMW
HStem: -21 21G<109.186 116.852 116.852 119.851> 693.998 21G
LayerCount: 2
Fore
SplineSet
119.850585938 -21 m 2
 116.8515625 -21 l 2
 101.518554688 -21 89.5185546875 -16.6669921875 80.8515625 -8 c 0
 75.8095703125 -2.5 73.2890625 4.2607421875 73.2890625 12.2822265625 c 0
 73.2890625 15.927734375 73.8095703125 19.833984375 74.8515625 24 c 0
 75.5185546875 26.6669921875 76.5185546875 29.333984375 77.8515625 32.0009765625 c 0
 84.5185546875 53.333984375 93.185546875 88.6669921875 103.852539062 138 c 0
 125.852539062 233.333007812 148.185546875 338.666015625 170.852539062 453.999023438 c 0
 179.51953125 495.999023438 185.51953125 524.999023438 188.852539062 540.999023438 c 0
 192.185546875 556.33203125 197.852539062 577.999023438 205.852539062 605.999023438 c 0
 213.852539062 634.666015625 218.852539062 652.666015625 220.852539062 659.999023438 c 0
 225.51953125 677.33203125 234.186523438 690.999023438 246.853515625 700.999023438 c 0
 259.296875 709.709960938 272.612304688 714.064453125 286.797851562 714.064453125 c 0
 287.811523438 714.064453125 288.830078125 714.04296875 289.852539062 713.998046875 c 2
 292.852539062 713.998046875 l 2
 307.51953125 713.998046875 319.51953125 710.331054688 328.852539062 702.998046875 c 0
 335.995117188 696.807617188 339.56640625 688.236328125 339.56640625 677.284179688 c 0
 339.56640625 672.90234375 338.995117188 668.140625 337.852539062 662.998046875 c 0
 334.51953125 646.998046875 326.51953125 615.331054688 313.852539062 567.998046875 c 0
 301.185546875 521.331054688 291.518554688 482.998046875 284.8515625 452.998046875 c 1
 312.184570312 472.998046875 351.517578125 501.665039062 402.850585938 538.998046875 c 0
 514.850585938 627.665039062 581.18359375 679.33203125 601.850585938 693.999023438 c 0
 614.517578125 702.666015625 625.850585938 708.666015625 635.850585938 711.999023438 c 0
 642.517578125 713.999023438 648.184570312 714.999023438 652.8515625 714.999023438 c 0
 657.518554688 714.999023438 661.185546875 714.666015625 663.852539062 713.999023438 c 0
 671.185546875 711.999023438 677.518554688 708.33203125 682.8515625 702.999023438 c 0
 690.184570312 694.999023438 692.8515625 685.999023438 690.8515625 675.999023438 c 0
 686.8515625 657.999023438 675.518554688 638.666015625 656.8515625 617.999023438 c 0
 644.184570312 605.33203125 602.184570312 568.999023438 530.8515625 508.999023438 c 0
 458.184570312 452.999023438 394.517578125 404.33203125 339.850585938 362.999023438 c 1
 357.850585938 338.999023438 387.18359375 303.33203125 427.850585938 255.999023438 c 0
 469.18359375 211.33203125 504.850585938 170.999023438 534.850585938 134.999023438 c 0
 550.18359375 112.999023438 561.18359375 95.666015625 567.850585938 82.9990234375 c 0
 575.18359375 67.666015625 578.850585938 56.9990234375 578.850585938 50.9990234375 c 0
 578.850585938 42.33203125 578.18359375 33.9990234375 576.850585938 25.9990234375 c 0
 575.517578125 20.666015625 573.184570312 15.3330078125 569.8515625 10 c 0
 563.184570312 0.6669921875 554.184570312 -6.666015625 542.8515625 -11.9990234375 c 0
 528.306640625 -18.0595703125 518.719726562 -21.08984375 514.091796875 -21.08984375 c 0
 513.62890625 -21.08984375 513.215820312 -21.0595703125 512.8515625 -20.9990234375 c 2
 511.8515625 -20.9990234375 l 2
 495.184570312 -20.9990234375 481.517578125 -12.666015625 470.850585938 4.0009765625 c 0
 466.850585938 12.0009765625 448.517578125 35.0009765625 415.850585938 73.0009765625 c 0
 383.18359375 110.333984375 348.18359375 151.333984375 310.850585938 196.000976562 c 0
 282.850585938 225.333984375 260.517578125 250.333984375 243.850585938 271.000976562 c 1
 195.850585938 25.0009765625 l 2
 190.517578125 10.333984375 179.517578125 -1.3330078125 162.850585938 -10 c 0
 148.850585938 -17.3330078125 134.517578125 -21 119.850585938 -21 c 2
EndSplineSet
Validated: 1
EndChar

StartChar: L
Encoding: 76 76 51
Width: 640
GlyphClass: 2
Flags: HMW
HStem: -9 105 686 20G<311.855 314.855 314.855 322.522>
LayerCount: 2
Fore
SplineSet
73.8564453125 26 m 0
 73.8564453125 31 74.8564453125 36 75.8564453125 41 c 0
 76.8564453125 43 76.8564453125 46 77.8564453125 50 c 0
 78.8564453125 54 90.8564453125 90 113.856445312 159 c 0
 136.856445312 228 157.856445312 294 174.856445312 357 c 0
 179.856445312 376 185.856445312 400 192.856445312 428 c 0
 198.822265625 452.856445312 214.673828125 523.188476562 239.427734375 638.994140625 c 0
 239.541015625 639.791015625 239.68359375 640.791015625 239.856445312 642 c 0
 244.856445312 663 253.856445312 679 267.856445312 690 c 0
 281.856445312 701 296.856445312 706 311.856445312 706 c 2
 314.856445312 706 l 2
 329.856445312 706 341.856445312 701 350.856445312 692 c 0
 357.856445312 685 361.856445312 676 361.856445312 664 c 0
 361.856445312 658 360.856445312 652 358.856445312 645 c 0
 354.856445312 626 348.856445312 601 339.856445312 569 c 0
 328.856445312 526 317.856445312 485 307.856445312 447 c 0
 296.856445312 406 284.856445312 364 273.856445312 321 c 0
 266.856445312 294 254.856445312 256 239.856445312 208 c 0
 224.856445312 160 214.856445312 123 207.856445312 96 c 1
 210.856445312 104 210.856445312 104 209.856445312 96 c 1
 262.856445312 96 325.856445312 99 398.856445312 106 c 0
 469.856445312 113 517.856445312 119 541.856445312 125 c 0
 545.856445312 126 549.856445312 127 554.856445312 127 c 0
 559.856445312 127 563.856445312 126 567.856445312 125 c 0
 574.856445312 122 580.856445312 116 584.856445312 108 c 0
 587.856445312 101 588.856445312 94 588.856445312 87 c 0
 589.856445312 79 588.856445312 72 587.856445312 66 c 0
 584.856445312 51 577.856445312 40 567.856445312 30 c 0
 557.856445312 20 544.856445312 13 525.856445312 10 c 0
 480.856445312 1 410.856445312 -5 316.856445312 -9 c 0
 222.856445312 -13 155.856445312 -15 114.856445312 -15 c 0
 99.8564453125 -15 87.8564453125 -9 80.8564453125 2 c 0
 76.8564453125 9 73.8564453125 17 73.8564453125 26 c 0
EndSplineSet
Validated: 1
EndChar

StartChar: M
Encoding: 77 77 52
Width: 640
GlyphClass: 2
Flags: HMW
HStem: -10.002 21G<88.0716 91.4056 91.4056 93.4056>
LayerCount: 2
Fore
SplineSet
164.407226562 63 m 2
 162.40234375 52.998046875 l 2
 158.40234375 34.998046875 150.069335938 19.998046875 137.40234375 7.998046875 c 0
 123.40234375 -4.001953125 108.735351562 -10.001953125 93.40234375 -10.001953125 c 2
 91.40234375 -10.001953125 l 2
 84.7353515625 -10.001953125 78.7353515625 -8.6689453125 73.40234375 -6.001953125 c 0
 66.0693359375 -2.001953125 61.40234375 5.3310546875 59.40234375 15.998046875 c 0
 59.1064453125 18.6640625 58.9580078125 21.52734375 58.9580078125 24.5888671875 c 0
 58.9580078125 35.3046875 60.7734375 48.44140625 64.4033203125 63.998046875 c 0
 66.4033203125 72.6650390625 70.4033203125 86.998046875 76.4033203125 106.998046875 c 0
 82.4033203125 126.331054688 90.736328125 151.998046875 101.403320312 183.998046875 c 0
 112.736328125 217.998046875 125.403320312 258.331054688 139.403320312 304.998046875 c 0
 153.403320312 351.665039062 165.0703125 388.998046875 174.403320312 416.998046875 c 0
 204.403320312 512.998046875 226.736328125 579.665039062 241.403320312 616.998046875 c 0
 250.736328125 640.331054688 259.069335938 656.6640625 266.40234375 665.997070312 c 0
 277.069335938 679.997070312 290.736328125 689.997070312 307.403320312 695.997070312 c 0
 321.403320312 701.330078125 335.0703125 703.997070312 348.403320312 703.997070312 c 2
 354.403320312 703.997070312 l 2
 369.736328125 703.997070312 381.736328125 701.6640625 390.403320312 696.997070312 c 0
 403.0703125 690.997070312 410.0703125 680.997070312 411.403320312 666.997070312 c 0
 411.645507812 661.6640625 411.766601562 655.703125 411.766601562 649.114257812 c 0
 411.766601562 619.461914062 409.3125 577.08984375 404.403320312 521.998046875 c 0
 398.403320312 454.665039062 390.403320312 377.998046875 380.403320312 291.998046875 c 0
 378.403320312 272.665039062 376.403320312 254.665039062 374.403320312 237.998046875 c 1
 389.736328125 285.998046875 404.403320312 331.331054688 418.403320312 373.998046875 c 0
 437.0703125 429.331054688 458.0703125 484.331054688 481.403320312 538.998046875 c 0
 504.736328125 594.331054688 523.736328125 636.998046875 538.403320312 666.998046875 c 0
 543.736328125 676.998046875 552.736328125 685.331054688 565.403320312 691.998046875 c 0
 576.736328125 697.998046875 588.069335938 701.665039062 599.40234375 702.998046875 c 0
 606.735351562 703.665039062 612.735351562 704.165039062 617.40234375 704.498046875 c 0
 622.069335938 704.831054688 625.736328125 704.6640625 628.403320312 703.997070312 c 2
 632.403320312 703.997070312 l 1
 646.903320312 703.997070312 l 2
 650.5703125 703.997070312 655.403320312 702.997070312 661.403320312 700.997070312 c 0
 668.0703125 699.6640625 673.403320312 697.6640625 677.403320312 694.997070312 c 0
 681.403320312 692.330078125 684.736328125 688.330078125 687.403320312 682.997070312 c 0
 690.0703125 676.997070312 691.403320312 669.997070312 691.403320312 661.997070312 c 0
 689.403320312 641.997070312 674.0703125 544.997070312 645.403320312 370.997070312 c 0
 617.403320312 197.6640625 603.403320312 99.6640625 603.403320312 76.9970703125 c 0
 603.403320312 63.6640625 601.736328125 51.3310546875 598.403320312 39.998046875 c 0
 596.403320312 30.6650390625 592.736328125 22.6650390625 587.403320312 15.998046875 c 0
 580.0703125 6.6650390625 570.0703125 -0.001953125 557.403320312 -4.001953125 c 0
 550.0703125 -6.001953125 542.737304688 -7.1689453125 535.404296875 -7.501953125 c 0
 528.071289062 -7.8349609375 520.73828125 -6.001953125 513.405273438 -2.001953125 c 0
 500.73828125 4.6650390625 493.405273438 18.33203125 491.405273438 38.9990234375 c 0
 491.20703125 41.3798828125 491.107421875 44.16796875 491.107421875 47.36328125 c 0
 491.107421875 97.857421875 515.874023438 250.069335938 565.40625 503.999023438 c 1
 545.40625 452.666015625 528.40625 403.999023438 514.40625 357.999023438 c 0
 490.40625 281.999023438 465.739257812 209.999023438 440.40625 141.999023438 c 0
 414.40625 73.9990234375 396.073242188 32.33203125 385.40625 16.9990234375 c 0
 372.073242188 0.9990234375 348.073242188 -7.0009765625 313.40625 -7.0009765625 c 2
 308.40625 -7.0009765625 l 2
 295.073242188 -7.0009765625 284.073242188 -5.0009765625 275.40625 -1.0009765625 c 0
 264.739257812 3.666015625 258.739257812 10.3330078125 257.40625 19 c 0
 257.354492188 21.4619140625 257.329101562 24.16796875 257.329101562 27.115234375 c 0
 257.329101562 62.4775390625 261.021484375 132.772460938 268.40625 238 c 0
 273.739257812 316 279.40625 391.666992188 285.40625 465 c 1
 281.40625 451.666992188 274.073242188 427.666992188 263.40625 393 c 2
 248.40625 340 l 1
 221.40625 252 l 2
 213.40625 224.666992188 204.739257812 196.333984375 195.40625 167.000976562 c 0
 188.073242188 144.333984375 180.740234375 120.666992188 173.407226562 96 c 0
 168.740234375 81.3330078125 165.740234375 70.3330078125 164.407226562 63 c 2
EndSplineSet
Validated: 1
EndChar

StartChar: N
Encoding: 78 78 53
Width: 640
GlyphClass: 2
Flags: HMW
HStem: -11.999 21G<101.391 118.059> 685.001 20G<293.06 302.394 665.727 681.06>
VStem: 75.7232 100.002
LayerCount: 2
Fore
SplineSet
282.727539062 486 m 1
 276.727539062 456 271.39453125 431.000976562 266.727539062 411.000976562 c 0
 262.060546875 389.66796875 255.060546875 359.66796875 245.727539062 321.000976562 c 0
 236.39453125 283.000976562 224.727539062 237.000976562 210.727539062 183.000976562 c 0
 196.727539062 127.66796875 187.727539062 93.0009765625 183.727539062 79.0009765625 c 0
 180.39453125 65.0009765625 178.39453125 56.0009765625 177.727539062 52.0009765625 c 0
 177.060546875 48.66796875 176.393554688 45.66796875 175.7265625 43.0009765625 c 0
 171.7265625 25.0009765625 163.7265625 11.333984375 151.7265625 2.0009765625 c 0
 139.059570312 -7.33203125 125.392578125 -11.9990234375 110.725585938 -11.9990234375 c 0
 92.05859375 -11.9990234375 80.3916015625 -5.9990234375 75.724609375 6.0009765625 c 0
 74.7548828125 10.365234375 74.26953125 15.3017578125 74.26953125 20.8115234375 c 0
 74.26953125 30.453125 75.7548828125 41.849609375 78.724609375 55.0009765625 c 0
 81.3916015625 68.333984375 94.05859375 120.000976562 116.725585938 210.000976562 c 0
 151.392578125 348.66796875 175.059570312 444.000976562 187.7265625 496.000976562 c 0
 199.7265625 548.000976562 209.7265625 595.333984375 217.7265625 638.000976562 c 0
 218.393554688 640.66796875 219.060546875 643.66796875 219.727539062 647.000976562 c 0
 221.727539062 657.000976562 225.727539062 665.66796875 231.727539062 673.000976562 c 0
 238.39453125 682.333984375 246.727539062 689.333984375 256.727539062 694.000976562 c 0
 270.727539062 701.333984375 285.39453125 705.000976562 300.727539062 705.000976562 c 0
 304.060546875 705.000976562 307.393554688 704.66796875 310.7265625 704.000976562 c 0
 324.7265625 704.000976562 336.059570312 701.66796875 344.7265625 697.000976562 c 0
 357.393554688 691.000976562 364.393554688 681.000976562 365.7265625 667.000976562 c 0
 369.7265625 624.333984375 390.393554688 545.333984375 427.7265625 430.000976562 c 0
 459.059570312 332.66796875 487.059570312 251.66796875 511.7265625 187.000976562 c 1
 526.393554688 244.333984375 543.7265625 319.333984375 563.7265625 412.000976562 c 0
 589.7265625 530.000976562 605.059570312 608.000976562 609.7265625 646.000976562 c 0
 610.393554688 650.000976562 611.060546875 653.66796875 611.727539062 657.000976562 c 0
 614.39453125 669.000976562 620.727539062 679.333984375 630.727539062 688.000976562 c 0
 643.39453125 699.333984375 657.727539062 705.000976562 673.727539062 705.000976562 c 0
 688.39453125 705.000976562 699.727539062 702.333984375 707.727539062 697.000976562 c 0
 711.727539062 694.333984375 714.727539062 690.333984375 716.727539062 685.000976562 c 0
 717.39453125 679.66796875 717.727539062 675.000976562 717.727539062 671.000976562 c 0
 717.727539062 666.333984375 717.060546875 659.333984375 715.727539062 650.000976562 c 0
 715.060546875 638.66796875 703.727539062 585.334960938 681.727539062 490.001953125 c 0
 678.39453125 476.001953125 675.39453125 462.001953125 672.727539062 448.001953125 c 0
 653.39453125 364.668945312 632.39453125 278.668945312 609.727539062 190.001953125 c 0
 595.060546875 132.668945312 583.060546875 90.001953125 573.727539062 62.001953125 c 0
 565.060546875 35.3349609375 558.060546875 18.3349609375 552.727539062 11.001953125 c 0
 540.060546875 -4.998046875 517.727539062 -13.3310546875 485.727539062 -13.998046875 c 2
 481.727539062 -13.998046875 l 2
 469.727539062 -13.998046875 459.727539062 -11.6650390625 451.727539062 -6.998046875 c 0
 441.727539062 -1.6650390625 435.727539062 5.001953125 433.727539062 13.001953125 c 0
 430.39453125 26.3349609375 421.061523438 55.66796875 405.728515625 101.000976562 c 0
 389.728515625 148.333984375 373.061523438 193.666992188 355.728515625 237 c 0
 339.061523438 286.333007812 322.39453125 341 305.727539062 401 c 0
 296.39453125 431.666992188 288.727539062 460 282.727539062 486 c 1
EndSplineSet
Validated: 1
EndChar

StartChar: O
Encoding: 79 79 54
Width: 640
GlyphClass: 2
Flags: HMW
HStem: -24 108<277.169 319.838> 612.001 105.999<480.171 487.504>
VStem: 123.169 111.999<161.501 244.667>
LayerCount: 2
Fore
SplineSet
674.170898438 480 m 0
 673.50390625 477.333007812 673.501953125 477.333984375 674.168945312 480.000976562 c 1
 662.8359375 406.000976562 646.502929688 333.333984375 625.169921875 262.000976562 c 0
 613.169921875 222.66796875 602.169921875 192.334960938 592.169921875 171.001953125 c 0
 576.836914062 139.668945312 560.336914062 112.668945312 542.669921875 90.001953125 c 0
 525.002929688 67.3349609375 506.8359375 48.66796875 488.168945312 34.0009765625 c 0
 469.501953125 19.333984375 448.501953125 7.6669921875 425.168945312 -1 c 0
 401.168945312 -9.6669921875 377.668945312 -15.6669921875 354.668945312 -19 c 0
 331.668945312 -22.3330078125 305.8359375 -24 277.168945312 -24 c 0
 233.168945312 -23.3330078125 197.168945312 -10.666015625 169.168945312 14.0009765625 c 0
 142.501953125 39.333984375 125.501953125 72.6669921875 118.168945312 114 c 0
 115.181640625 130.295898438 113.6875 147.14453125 113.6875 164.545898438 c 0
 113.6875 189.860351562 116.848632812 216.344726562 123.169921875 244 c 0
 123.169921875 245.333007812 123.502929688 247.333007812 124.169921875 250 c 0
 125.502929688 257.333007812 126.8359375 262.666015625 128.168945312 265.999023438 c 0
 134.8359375 294.666015625 140.502929688 317.833007812 145.169921875 335.5 c 0
 149.836914062 353.166992188 156.50390625 376.666992188 165.170898438 406 c 0
 182.50390625 463.333007812 205.50390625 516.666015625 234.170898438 565.999023438 c 0
 261.50390625 610.666015625 299.170898438 647.333007812 347.170898438 676 c 0
 398.50390625 704 452.170898438 718 508.170898438 718 c 0
 536.837890625 718 563.170898438 712.666992188 587.170898438 702 c 0
 610.50390625 691.333007812 629.50390625 676 644.170898438 656 c 0
 658.837890625 636 668.837890625 611 674.170898438 581 c 0
 676.836914062 566 678.170898438 550.083007812 678.170898438 533.25 c 0
 678.170898438 516.416015625 676.836914062 498.666015625 674.170898438 480 c 0
266.668945312 94.0009765625 m 0
 276.3359375 87.333984375 288.170898438 84 302.170898438 84 c 0
 337.50390625 84 370.836914062 92.3330078125 402.169921875 109 c 0
 418.169921875 117 433.502929688 128.166992188 448.169921875 142.5 c 0
 462.836914062 156.833007812 475.50390625 173.333007812 486.170898438 192 c 0
 490.170898438 199.333007812 497.00390625 217.833007812 506.670898438 247.5 c 0
 516.337890625 277.166992188 526.504882812 312.666992188 537.171875 354 c 0
 540.504882812 366 543.504882812 378 546.171875 390 c 0
 552.838867188 418.666992188 558.171875 447.333984375 562.171875 476.000976562 c 0
 563.46484375 485.697265625 564.111328125 494.962890625 564.111328125 503.797851562 c 0
 564.111328125 531.407226562 557.797851562 554.80859375 545.170898438 574.000976562 c 0
 528.50390625 599.333984375 503.836914062 612.000976562 471.169921875 612.000976562 c 0
 438.502929688 612.000976562 408.8359375 600.66796875 382.168945312 578.000976562 c 0
 354.168945312 554.000976562 329.501953125 520.66796875 308.168945312 478.000976562 c 0
 284.8359375 430.000976562 266.168945312 374.66796875 252.168945312 312.000976562 c 0
 242.8359375 272.66796875 237.168945312 239.000976562 235.168945312 211.000976562 c 0
 234.502929688 202.66796875 234.168945312 194.375976562 234.168945312 186.125976562 c 0
 234.168945312 177.875976562 234.502929688 169.66796875 235.168945312 161.500976562 c 0
 236.501953125 145.16796875 239.668945312 131.500976562 244.668945312 120.500976562 c 0
 249.668945312 109.500976562 257.001953125 100.66796875 266.668945312 94.0009765625 c 0
EndSplineSet
Validated: 1
EndChar

StartChar: P
Encoding: 80 80 55
Width: 640
GlyphClass: 2
Flags: HMW
HStem: -18.998 21G<131.756 147.757> 218 106.003<349.423 358.757 349.423 374.761> 605.003 105.999<441.424 500.425>
VStem: 95.4218 120 224.423 0.999023
LayerCount: 2
Fore
SplineSet
267.423828125 334.002929688 m 1
 288.201171875 327.28125 312.8984375 323.919921875 341.517578125 323.919921875 c 0
 344.120117188 323.919921875 346.755859375 323.947265625 349.422851562 324.002929688 c 0
 368.08984375 324.002929688 385.58984375 325.3359375 401.922851562 328.002929688 c 0
 418.255859375 330.669921875 432.422851562 334.002929688 444.422851562 338.002929688 c 0
 456.422851562 342.002929688 467.422851562 347.3359375 477.422851562 354.002929688 c 0
 487.422851562 360.669921875 496.08984375 367.336914062 503.422851562 374.00390625 c 0
 510.755859375 380.670898438 517.422851562 388.50390625 523.422851562 397.50390625 c 0
 529.422851562 406.50390625 534.422851562 414.670898438 538.422851562 422.00390625 c 0
 542.422851562 429.336914062 546.08984375 438.169921875 549.422851562 448.502929688 c 0
 552.755859375 458.8359375 555.422851562 467.168945312 557.422851562 473.501953125 c 0
 559.422851562 479.834960938 561.422851562 488.001953125 563.422851562 498.001953125 c 0
 565.604492188 506.729492188 566.6953125 514.959960938 566.6953125 522.6953125 c 0
 566.6953125 529.141601562 565.9375 535.244140625 564.422851562 541.001953125 c 0
 561.08984375 553.668945312 555.756835938 563.8359375 548.423828125 571.502929688 c 0
 541.090820312 579.169921875 531.590820312 585.669921875 519.923828125 591.002929688 c 0
 508.256835938 596.3359375 496.756835938 600.002929688 485.423828125 602.002929688 c 0
 474.090820312 604.002929688 463.090820312 605.002929688 452.423828125 605.002929688 c 0
 430.423828125 605.002929688 390.756835938 603.002929688 333.423828125 599.002929688 c 1
 312.756835938 519.669921875 299.08984375 466.002929688 292.422851562 438.002929688 c 0
 283.08984375 400.669921875 274.756835938 366.002929688 267.423828125 334.002929688 c 1
226.427734375 109 m 0
 219.760742188 61 216.08984375 35.3359375 215.422851562 32.0029296875 c 0
 211.422851562 15.3359375 200.755859375 2.6689453125 183.422851562 -5.998046875 c 0
 169.422851562 -14.6650390625 155.08984375 -18.998046875 140.422851562 -18.998046875 c 0
 123.08984375 -18.998046875 110.08984375 -13.6650390625 101.422851562 -2.998046875 c 0
 96.380859375 3.4189453125 93.8603515625 11.2529296875 93.8603515625 20.505859375 c 0
 93.8603515625 24.7109375 94.380859375 29.2099609375 95.4228515625 34.0009765625 c 0
 96.08984375 36.66796875 97.08984375 41.0009765625 98.4228515625 47.0009765625 c 0
 101.08984375 56.333984375 105.08984375 72.333984375 110.422851562 95.0009765625 c 0
 119.08984375 132.333984375 130.422851562 183.666992188 144.422851562 249 c 0
 167.755859375 359.666992188 181.422851562 425 185.422851562 445 c 0
 196.728515625 497.540039062 210.024414062 554.059570312 225.310546875 614.560546875 c 1
 224.0703125 609.7109375 223.774414062 610.524414062 224.422851562 617.001953125 c 1
 223.08984375 611.668945312 222.756835938 612.001953125 223.423828125 618.001953125 c 0
 220.090820312 626.668945312 219.423828125 635.3359375 221.423828125 644.002929688 c 0
 222.090820312 646.669921875 222.756835938 649.002929688 223.423828125 651.002929688 c 0
 227.423828125 661.002929688 233.7578125 670.002929688 242.424804688 678.002929688 c 0
 251.091796875 686.002929688 260.091796875 691.002929688 269.424804688 693.002929688 c 0
 293.424804688 698.3359375 328.424804688 703.002929688 374.424804688 707.002929688 c 0
 414.9765625 709.780273438 445.344726562 711.168945312 465.530273438 711.168945312 c 0
 469.569335938 711.168945312 473.201171875 711.11328125 476.424804688 711.001953125 c 0
 524.424804688 711.001953125 565.7578125 703.001953125 600.424804688 687.001953125 c 0
 631.091796875 670.334960938 652.924804688 645.16796875 665.924804688 611.500976562 c 0
 673.272460938 592.471679688 676.946289062 571.47265625 676.946289062 548.50390625 c 0
 676.946289062 530.834960938 674.772460938 512.000976562 670.424804688 492.000976562 c 0
 661.7578125 454.000976562 647.7578125 418.333984375 628.424804688 385.000976562 c 0
 609.091796875 351.66796875 586.258789062 322.66796875 559.92578125 298.000976562 c 0
 533.592773438 273.333984375 502.759765625 253.666992188 467.426757812 239 c 0
 431.426757812 225 394.09375 218 355.426757812 218 c 0
 310.09375 218 273.426757812 220.666992188 245.426757812 226 c 1
 238.09375 188 231.760742188 149 226.427734375 109 c 0
EndSplineSet
Validated: 1
EndChar

StartChar: Q
Encoding: 81 81 56
Width: 640
GlyphClass: 2
Flags: HMW
HStem: -24.002 21G<286.287 311.287> 612.496 105.504
VStem: 298.952 104.002
LayerCount: 2
Fore
SplineSet
498.951171875 -204 m 0
 489.618164062 -209.333007812 480.2890625 -212.002929688 470.956054688 -212.002929688 c 0
 466.2890625 -212.002929688 461.622070312 -211.3359375 456.955078125 -210.002929688 c 0
 443.622070312 -206.002929688 433.955078125 -197.669921875 427.955078125 -185.002929688 c 0
 421.288085938 -171.669921875 410.62109375 -149.169921875 395.954101562 -117.502929688 c 0
 381.287109375 -85.8359375 367.287109375 -53.6689453125 353.954101562 -21.001953125 c 1
 337.954101562 -23.001953125 320.62109375 -24.001953125 301.954101562 -24.001953125 c 0
 270.62109375 -24.001953125 242.62109375 -19.001953125 217.954101562 -9.001953125 c 0
 193.287109375 0.998046875 173.954101562 14.3310546875 159.954101562 30.998046875 c 0
 145.954101562 48.3310546875 134.954101562 68.3310546875 126.954101562 90.998046875 c 0
 119.217773438 115.313476562 115.348632812 142.276367188 115.348632812 171.885742188 c 0
 115.348632812 195.85546875 117.883789062 221.559570312 122.954101562 248.998046875 c 0
 126.287109375 265.665039062 129.954101562 282.33203125 133.954101562 298.999023438 c 0
 157.954101562 403.666015625 190.954101562 491.333007812 232.954101562 562 c 0
 260.287109375 606.666992188 297.954101562 644 345.954101562 674 c 0
 397.287109375 703.333007812 450.620117188 718 505.953125 718 c 0
 564.620117188 718 609.953125 699.333007812 641.953125 662 c 0
 656.620117188 643.333007812 666.620117188 618.333007812 671.953125 587 c 0
 674.796875 570.290039062 676.219726562 552.252929688 676.219726562 532.888671875 c 0
 676.219726562 515.942382812 675.129882812 497.979492188 672.952148438 479 c 0
 668.28515625 443 660.28515625 401.333007812 648.952148438 354 c 0
 629.619140625 270 610.952148438 207 592.952148438 165 c 0
 564.28515625 97 523.618164062 47 470.951171875 15 c 1
 484.284179688 -14.3330078125 500.951171875 -48 520.951171875 -86 c 0
 532.319335938 -108.104492188 538.00390625 -120.038085938 538.00390625 -121.80078125 c 0
 538.00390625 -121.8984375 537.986328125 -121.96484375 537.951171875 -122 c 0
 540.034179688 -127 541.076171875 -132.130859375 541.076171875 -137.390625 c 0
 541.076171875 -140.546875 540.701171875 -143.75 539.951171875 -147 c 0
 539.284179688 -149 538.6171875 -151.333007812 537.950195312 -154 c 0
 533.950195312 -164 528.283203125 -173.666992188 520.950195312 -183 c 0
 513.6171875 -192.333007812 506.284179688 -199.333007812 498.951171875 -204 c 0
297.955078125 113.997070312 m 0
 296.76953125 121.704101562 296.17578125 129.08203125 296.17578125 136.130859375 c 0
 296.17578125 144.93359375 297.1015625 153.22265625 298.952148438 160.997070312 c 0
 303.619140625 182.330078125 315.286132812 198.997070312 333.953125 210.997070312 c 0
 345.286132812 218.330078125 356.286132812 222.330078125 366.953125 222.997070312 c 0
 375.620117188 222.997070312 383.287109375 219.997070312 389.954101562 213.997070312 c 0
 396.62109375 207.997070312 400.954101562 198.6640625 402.954101562 185.997070312 c 0
 406.954101562 157.330078125 414.62109375 125.663085938 425.954101562 90.99609375 c 1
 450.62109375 108.329101562 470.288085938 133.99609375 484.955078125 167.99609375 c 0
 488.955078125 177.329101562 495.622070312 196.99609375 504.955078125 226.99609375 c 0
 514.288085938 256.99609375 524.288085938 294.663085938 534.955078125 339.99609375 c 2
 538.955078125 355.99609375 l 2
 548.288085938 395.329101562 554.955078125 432.99609375 558.955078125 468.99609375 c 0
 560.008789062 479.08203125 560.536132812 488.692382812 560.536132812 497.827148438 c 0
 560.536132812 529.14453125 554.341796875 554.8671875 541.955078125 574.99609375 c 0
 526.821289062 600 503.081054688 612.502929688 470.735351562 612.502929688 c 0
 470.309570312 612.502929688 469.8828125 612.5 469.455078125 612.49609375 c 0
 436.455078125 612.163085938 406.288085938 600.330078125 378.955078125 576.997070312 c 0
 350.288085938 552.330078125 325.288085938 517.997070312 303.955078125 473.997070312 c 0
 279.955078125 421.997070312 261.622070312 367.997070312 248.955078125 311.997070312 c 0
 244.288085938 291.997070312 240.288085938 271.6640625 236.955078125 250.997070312 c 0
 233.682617188 230.997070312 232.045898438 212.137695312 232.045898438 194.41796875 c 0
 232.045898438 179.65234375 233.182617188 165.678710938 235.455078125 152.497070312 c 0
 240.455078125 123.497070312 250.622070312 100.6640625 265.955078125 83.9970703125 c 0
 278.622070312 70.6640625 293.622070312 62.9970703125 310.955078125 60.9970703125 c 1
 304.288085938 82.330078125 299.955078125 99.9970703125 297.955078125 113.997070312 c 0
EndSplineSet
Validated: 1
EndChar

